<svg width="24" height="24" viewBox="0 0 24 24" fill="none" xmlns="http://www.w3.org/2000/svg">
<circle cx="12" cy="12" r="10" stroke="#030315" stroke-width="1.5"/>
<path d="M14.5 16C13.7839 17.2637 12.9244 18 12 18C11.0756 18 10.2161 17.2637 9.5 16" stroke="#030315" stroke-width="1.5"/>
<path d="M9 11.5001C8.57036 11.1842 8.05462 11.0001 7.5 11.0001C6.94538 11.0001 6.42964 11.1842 6 11.5001" stroke="#030315" stroke-width="1.5"/>
<path d="M18 11.5001C17.5704 11.1842 17.0546 11.0001 16.5 11.0001C15.9454 11.0001 15.4296 11.1842 15 11.5001" stroke="#030315" stroke-width="1.5"/>
<path d="M12 1.99988C10.3431 1.99988 9 3.34302 9 4.99988C9 6.65673 10.3431 7.99988 12 7.99988C12.7684 7.99988 13.4692 7.71102 14 7.23598" stroke="#030315" stroke-width="1.5"/>
</svg>
