<svg width="234" height="42" viewBox="0 0 234 42" fill="none" xmlns="http://www.w3.org/2000/svg">
<path d="M17.5684 27.0068L15.8496 29.2529L13.2646 27.2422L15.0342 24.999L17.5684 27.0068ZM21.8672 27.0068L20.0977 29.2529L17.5127 27.2422L19.2275 24.999L21.8672 27.0068ZM53.5449 17.5234C53.534 18.1781 53.4345 18.8401 53.248 19.502C53.036 20.2578 52.9044 20.7863 52.5205 21.2637C51.9063 22.0265 51.0325 22.2105 49.5703 22.5215C49.5703 22.5215 48.1039 22.8334 46.3965 22.6924C45.9067 22.649 45.57 22.5758 45.3945 22.5469C44.7952 22.442 44.3128 22.2832 43.9473 22.0771C43.5561 22.2761 43.0843 22.4276 42.5322 22.5361C41.7608 22.688 40.832 22.7646 39.7461 22.7646C39.2379 22.7646 38.8026 22.6737 38.4443 22.4893C38.2251 22.3736 38.0456 22.2363 37.9141 22.0664C37.8885 22.2075 37.8409 22.4212 37.7568 22.667C36.8646 25.3176 33.8307 26.4819 32.7666 26.8906C28.1123 28.6737 23.2787 26.1818 22.4561 25.7441C22.9277 25.0715 23.4034 24.4021 23.875 23.7295C24.9171 24.1889 28.2001 25.4768 32.1084 24.4062C34.3056 23.8059 35.8485 22.6923 36.7188 21.9473C36.6785 21.5675 36.5247 20.9123 36.2578 19.9756C35.9909 19.0426 35.6911 18.1126 35.3584 17.1904L37.3291 16.0557C37.585 17.1658 37.8234 17.9793 38.0391 18.4893C38.2548 18.9992 38.5176 19.3468 38.832 19.5312C39.1427 19.7156 39.5998 19.8056 40.1992 19.8057C40.5977 19.8057 40.9639 19.8026 41.293 19.7881C41.2674 19.6253 41.2529 19.4546 41.2529 19.2773C41.253 18.5071 41.4284 17.7003 41.7793 16.8613C42.1302 16.0225 42.5801 15.3177 43.1211 14.75C43.6622 14.1822 44.2435 13.8965 44.7773 13.8965C45.311 13.8965 45.808 14.0555 46.2686 14.3701C46.7292 14.6848 47.0949 15.1045 47.3691 15.6289C47.6433 16.1533 47.7822 16.7136 47.7822 17.3066C47.7822 17.7876 47.6688 18.2974 47.4385 18.8398C47.2995 19.1653 47.1313 19.4765 46.9375 19.7803C47.5005 19.9213 48.371 20.0661 49.4238 19.9648C50.4217 19.8699 51.2213 19.587 51.7656 19.3408L51.9941 19.249C51.7492 15.6793 51.5079 12.1127 51.2666 8.54297C52.0563 8.32959 52.8499 8.1128 53.6396 7.89941C53.6067 11.1074 53.5778 14.3155 53.5449 17.5234ZM95.8945 25.1152L94.5195 26.9131L92.4502 25.3027L93.8652 23.5098L95.8945 25.1152ZM99.335 25.1152L97.9199 26.9131L95.8506 25.3027L97.2217 23.5098L99.335 25.1152ZM105.543 24.6924L104.128 26.4893L102.059 24.8799L103.43 23.083L105.543 24.6924ZM5.53125 23.9141C4.72693 24.1166 3.79802 24.3921 2.74512 24.7393L1.99121 24.998C1.27147 25.2476 0.656766 25.4802 0.149414 25.6973L0.302734 24.2764C0.968162 23.9979 1.83181 23.6791 2.89941 23.3174C3.96674 22.9594 4.89892 22.6704 5.70312 22.457L5.53125 23.9141ZM172.579 14.3848C172.568 15.0392 172.469 15.7007 172.282 16.3623C172.114 16.9591 171.968 17.5164 171.555 18.124C171.375 18.3881 170.948 19.0179 170.195 19.4229C168.861 20.139 167.189 19.7981 166.089 19.082C165.332 18.5867 164.897 17.9507 164.663 17.5312C164.473 17.9505 164.224 18.2973 163.95 18.5938C161.925 20.7818 158.324 20.6015 155.574 19.1514H155.57C155.431 19.0465 155.226 19.1293 155.219 19.3027V19.3359C155.116 20.2038 154.904 20.978 154.579 21.665C154.254 22.3556 153.837 22.8869 153.325 23.2666C152.7 23.7476 151.859 24.1463 150.806 24.4609C149.753 24.7754 148.675 24.9345 147.578 24.9346C145.944 24.9346 144.707 24.5727 143.87 23.8457C143.033 23.1187 142.616 22.106 142.616 20.71C142.616 19.3139 143.738 15.1543 143.738 15.1543L144.865 15.4805C144.861 15.4994 144.509 17.0355 144.411 17.625C144.301 18.2722 144.247 18.8147 144.247 19.2559C144.247 20.113 144.572 20.7827 145.223 21.2637C145.873 21.7447 146.843 21.9834 148.134 21.9834C148.836 21.9834 149.574 21.9103 150.346 21.7656C151.117 21.621 151.815 21.422 152.433 21.1689C153.05 20.9158 153.501 20.6524 153.782 20.374C153.844 20.309 153.888 20.2255 153.906 20.1172C153.925 20.0087 153.936 19.8854 153.936 19.748C153.859 17.3863 153.731 15.0101 153.552 12.623C153.373 10.2324 153.226 7.85976 153.109 5.49805L155.464 4.75977L155.369 13.9102C155.344 14.9084 155.42 15.7444 155.914 16.041C158.963 17.8673 162.279 18.0985 163.936 15.8525C164.148 15.5669 164.257 15.2125 164.271 14.7822L164.323 12.8076L165.592 12.1562L165.709 14.46C165.724 15.4 166.096 15.932 166.271 16.1455C167.445 17.5596 170.261 17.3753 170.9 16.3301C170.97 16.218 171.003 16.1169 171.018 16.0518L170.312 5.49805H170.319L172.674 4.75977L172.579 14.3848ZM164.854 22.4385L163.545 24.1562L161.567 22.6191L162.917 20.9014L164.854 22.4385ZM168.145 22.4385L166.791 24.1562L164.813 22.6191L166.126 20.9014L168.145 22.4385ZM31.8848 22.6484L30.4482 22.9521L29.7207 10.8828L32.0791 10.1455L31.8848 22.6484ZM57.3945 22.6484L55.958 22.9521L55.2119 8.62988L57.5879 7.88867L57.3945 22.6484ZM77.3975 14.1748C77.5619 14.8437 77.7004 15.5163 77.8174 16.1924C77.9307 16.8686 77.9892 17.3896 77.9893 17.7549C77.9893 18.2214 77.8908 18.728 77.6934 19.2705C77.4959 19.813 77.2321 20.3016 76.8994 20.7393C76.5668 21.1767 76.2158 21.4769 75.8467 21.6396C75.1593 21.9904 74.1358 22.2692 72.7832 22.4717C71.4304 22.6742 70.0514 22.7754 68.6475 22.7754C66.644 22.7754 65.2178 22.4645 64.377 21.8389C63.5324 21.2168 63.1123 20.2905 63.1123 19.0645C63.1123 18.5618 63.1858 17.9687 63.332 17.2852C63.4783 16.6016 63.7046 15.8416 64.0117 15.0098L65.0645 15.3496C64.9621 15.7692 64.8746 16.1856 64.7979 16.6016C64.7211 17.0208 64.6846 17.3534 64.6846 17.6064C64.6846 18.3008 65.0279 18.8438 65.7188 19.2344C66.4061 19.625 67.5438 19.8203 69.127 19.8203C70.3113 19.8203 71.4335 19.7692 72.4863 19.668C73.5391 19.5667 74.4206 19.4297 75.1299 19.2598C75.8389 19.0898 76.3001 18.9164 76.5195 18.7393C76.4793 18.4752 76.3515 18.0045 76.1357 17.3281C75.9164 16.6519 75.6827 15.9755 75.4268 15.292L77.3975 14.1748ZM6.8623 9.64648C6.96467 10.6049 7.06755 11.679 7.16992 12.8652C7.21013 13.4583 7.24249 13.9538 7.27539 14.3516C7.30829 14.7494 7.35607 15.2487 7.42188 15.8418C7.52059 16.746 7.54668 16.9919 7.72949 17.2812C7.94517 17.4946 8.16839 17.7047 8.40234 17.9072C12.2593 20.6447 15.4144 20.3882 18.2588 18.9814C18.6646 18.7789 18.592 18.2103 18.5957 17.9102L18.6543 16.3955L20.0322 16.1895V17.5889C20.0322 18.3592 20.2191 18.92 20.5957 19.2744C20.9723 19.6286 21.5681 19.8056 22.3867 19.8057C23.4723 19.8057 24.2583 19.7622 24.752 19.6719C25.2419 19.5815 25.5316 19.4547 25.623 19.292C25.5828 18.9629 25.465 18.4674 25.2676 17.8057C25.0702 17.1403 24.8296 16.4638 24.5518 15.7695L26.5439 14.6523C26.628 14.9922 26.705 15.332 26.7744 15.6719C26.8183 15.8888 26.8587 16.0967 26.8916 16.2734L26.957 16.6807C27.0557 17.2991 27.2461 18.4783 26.833 19.7803C26.5844 20.5615 26.2075 21.0825 26.0576 21.2959C25.7359 21.7516 25.3993 22.0737 25.041 22.2617C24.6718 22.4389 24.2254 22.5657 23.71 22.6416C23.1909 22.7175 22.5951 22.7568 21.9189 22.7568C19.3998 22.7568 18.8327 21.3572 18.9717 20.6592C18.5878 22.5905 10.8438 24.2652 6.81836 19.6611C6.25914 19.0247 5.99573 18.3449 5.79102 17.8965C5.7399 18.2688 5.74358 18.6267 5.80566 18.9629C5.47295 19.1401 4.9832 19.2924 4.33984 19.4189C3.69276 19.5455 3.07124 19.6064 2.47168 19.6064C1.68204 19.6064 1.07132 19.4443 0.643555 19.1152C0.215831 18.7861 5.11776e-05 18.3628 0 17.8457C0 17.4551 0.0879372 17.0319 0.259766 16.5762C0.435252 16.1205 0.661381 15.6753 0.950195 15.2305C1.23903 14.7892 1.57974 14.4094 1.97461 14.0947C2.55222 13.5668 3.32335 12.9735 4.29199 12.3154C4.57352 12.1346 4.82655 11.968 5.06055 11.8125C4.99842 11.3498 4.9359 10.9015 4.87012 10.4785L6.8623 9.64648ZM137.586 22.377L136.149 22.6807L135.403 8.3584L137.776 7.62109L137.586 22.377ZM133.645 17.2451C133.634 17.8997 133.535 18.5618 133.349 19.2236C133.162 19.8853 132.921 20.4709 132.621 20.9844C132.321 21.498 132.017 21.849 131.71 22.0371C131.454 22.2033 131.136 22.319 130.753 22.3877C130.373 22.4564 129.988 22.4932 129.604 22.4932C128.723 22.4932 128.028 22.2978 127.517 21.9072C127.067 21.5637 126.782 21.0611 126.657 20.3994C126.471 20.8186 126.233 21.1763 125.948 21.4619C125.601 21.8091 125.155 22.0702 124.606 22.2402C124.054 22.4102 123.396 22.4971 122.632 22.4971H122.325C121.901 22.4971 121.532 22.4347 121.214 22.3154C120.892 22.1925 120.632 21.9937 120.428 21.708C120.278 21.5019 120.16 21.2346 120.072 20.9092C119.765 21.2309 119.444 21.4773 119.107 21.6436C118.482 21.9184 117.707 22.1317 116.782 22.2764C115.857 22.421 114.841 22.4932 113.729 22.4932H110.033C109.152 22.4932 108.457 22.2977 107.945 21.9072C107.496 21.5637 107.207 21.061 107.086 20.3994C106.896 20.8187 106.658 21.1763 106.373 21.4619C106.026 21.8091 105.58 22.0702 105.031 22.2402C104.479 22.4102 103.824 22.4971 103.057 22.4971H102.75C101.869 22.4971 101.174 22.3016 100.662 21.9111C100.212 21.5675 99.9234 21.0642 99.8027 20.4023C99.6163 20.8218 99.3789 21.1801 99.0938 21.4658C98.7465 21.813 98.3002 22.0732 97.752 22.2432C97.1999 22.4131 96.5451 22.5 95.7773 22.5H95.4697C94.1793 22.5 93.1189 22.4279 92.2891 22.2832C91.6898 22.1784 91.2073 22.0195 90.8418 21.8135C90.447 22.0124 89.9787 22.164 89.4268 22.2725C88.6553 22.4244 87.7265 22.5 86.6406 22.5H83.7666C82.9369 22.5 82.2571 22.352 81.7197 22.0557C81.1859 21.7591 80.7757 21.3026 80.4941 20.6914C80.2128 20.0767 80.0483 19.2741 79.9971 18.2764C79.8435 14.8766 79.6716 11.5957 79.4814 8.42383L81.8545 7.62793C81.8545 9.42167 81.8511 10.8035 81.8438 11.7764C81.8364 12.7493 81.8215 14.1641 81.7959 16.0195V16.7021C81.7959 17.6858 81.9829 18.4056 82.3594 18.8613C82.736 19.317 83.3574 19.5449 84.2275 19.5449H87.1016C87.4999 19.5449 87.8654 19.5382 88.1943 19.5273C88.1688 19.3647 88.1543 19.1947 88.1543 19.0176C88.1543 18.2473 88.3297 17.4406 88.6807 16.6016C89.0317 15.7625 89.4814 15.0571 90.0225 14.4893C90.5636 13.9214 91.1413 13.6357 91.6787 13.6357C92.2161 13.6357 92.7132 13.7948 93.1738 14.1094C93.6309 14.424 94.0002 14.8437 94.2744 15.3682C94.5486 15.8925 94.6874 16.4529 94.6875 17.0459C94.6875 17.5269 94.5741 18.0376 94.3438 18.5801C94.2085 18.9054 94.0404 19.2168 93.8467 19.5205C94.4353 19.5386 95.1302 19.5449 95.9346 19.5449H96.2412C97.009 19.5449 97.6204 19.4805 98.0811 19.3467C98.5416 19.2129 98.8739 19.0063 99.0859 18.7207C99.298 18.435 99.4082 18.0807 99.4229 17.6504L99.4814 16.1348L100.859 15.9248V17.3281C100.859 18.0985 101.046 18.6592 101.423 19.0137C101.799 19.368 102.399 19.5449 103.214 19.5449H103.521C104.289 19.5449 104.9 19.4805 105.36 19.3467C105.821 19.2129 106.153 19.0063 106.365 18.7207C106.577 18.435 106.691 18.0807 106.702 17.6504L106.761 16.1348L108.139 15.9248V17.3281C108.139 18.0985 108.326 18.6592 108.702 19.0137C109.079 19.368 109.674 19.5449 110.493 19.5449H111.188C111.609 18.999 112.007 18.4963 112.384 18.0371L111.872 8.36621L114.227 7.62793L114.091 16.1094C114.807 15.3752 115.466 14.8115 116.059 14.4209C116.702 13.9978 117.291 13.7842 117.828 13.7842C118.406 13.7842 118.969 13.9719 119.524 14.3516C120.076 14.7313 120.533 15.2234 120.892 15.8311C121.25 16.435 121.429 17.0536 121.429 17.6865C121.429 18.1928 121.327 18.7138 121.122 19.249C121.104 19.296 121.082 19.3398 121.063 19.3867C121.21 19.4229 121.374 19.4512 121.564 19.4766C121.919 19.52 122.328 19.542 122.789 19.542H123.097C123.864 19.542 124.475 19.4766 124.936 19.3428C125.396 19.209 125.729 19.0025 125.941 18.7168C126.153 18.4312 126.263 18.0766 126.277 17.6465L126.336 16.1309L127.714 15.9219V17.3242C127.714 18.0946 127.905 18.6553 128.281 19.0098C128.658 19.3642 129.257 19.542 130.072 19.542C130.632 19.542 131.093 19.495 131.451 19.4082C131.809 19.3178 132.025 19.173 132.102 18.9707L132.095 18.9668L131.385 8.3584L133.739 7.62109L133.645 17.2451ZM178.119 9.24902C178.646 9.75525 179.384 10.3587 180.342 11.0674C181.018 11.5846 181.523 12.0012 181.855 12.3086C182.184 12.6196 182.452 12.9595 182.649 13.332C182.847 13.7045 182.945 14.135 182.945 14.6123C182.945 15.0897 182.868 15.5928 182.715 16.1172C182.6 16.5104 182.449 16.8832 182.266 17.2373L182.079 17.5889C181.805 18.041 181.501 18.3953 181.168 18.6484C180.631 19.0498 179.947 19.3787 179.109 19.6318C178.272 19.8849 177.439 20.0117 176.609 20.0117C175.779 20.0117 175.157 19.7986 174.74 19.3682C174.327 18.9378 174.119 18.3044 174.119 17.4727C174.119 17.1581 174.13 16.8323 174.155 16.4961C174.181 16.1599 174.207 15.7551 174.232 15.2744L175.325 15.2158V15.8418C175.325 16.2577 175.446 16.5654 175.688 16.7607C175.929 16.956 176.364 17.0537 176.989 17.0537C177.68 17.0537 178.375 16.9736 179.077 16.8145C179.779 16.659 180.375 16.4635 180.868 16.2285C181.358 15.9935 181.65 15.7767 181.738 15.5742C181.713 15.3464 181.548 15.0999 181.241 14.8359C180.934 14.5719 180.429 14.1928 179.728 13.7012C179.216 13.3576 178.733 13.0244 178.272 12.6953C177.812 12.3698 177.384 12.0155 176.989 11.6357L178.119 9.24902ZM44.2764 16.3916C43.9948 16.3916 43.72 16.4963 43.4531 16.7061C43.2531 16.8633 43.0757 17.0491 42.9209 17.2617L42.7734 17.4766C42.587 17.7876 42.4741 18.0809 42.4375 18.3594C42.4632 18.7354 42.7045 19.0644 43.165 19.3428C43.4464 19.5126 43.7716 19.6318 44.1406 19.7041C44.4075 19.6354 44.6642 19.5522 44.9092 19.4473C45.344 19.2665 45.7096 19.0751 46.002 18.8799C46.2979 18.6847 46.4768 18.5003 46.5391 18.3232C46.4988 18.0231 46.3746 17.7152 46.1553 17.415C45.936 17.1151 45.6584 16.8657 45.3223 16.6777C44.9823 16.4861 44.6346 16.3916 44.2764 16.3916ZM117.122 16.3008C116.702 16.3008 116.263 16.4282 115.803 16.6885C115.346 16.9453 114.837 17.3251 114.281 17.8242C113.788 18.269 113.213 18.8402 112.562 19.5381H114.252C115.287 19.5381 116.23 19.4911 117.078 19.4043C117.714 19.3365 118.258 19.2582 118.708 19.167L119.118 19.0752C119.637 18.9414 119.942 18.7926 120.029 18.6299C119.993 18.3406 119.824 18.0116 119.531 17.6465C119.239 17.2814 118.877 16.9631 118.442 16.6992C118.011 16.4352 117.568 16.3008 117.122 16.3008ZM91.1924 16.1279C90.911 16.1279 90.6369 16.2289 90.3701 16.4385C90.17 16.5958 89.9918 16.7814 89.8369 16.9941L89.6865 17.2158C89.5001 17.5268 89.3862 17.8202 89.3496 18.0986C89.3752 18.4747 89.6167 18.8036 90.0771 19.082C90.3587 19.252 90.6844 19.372 91.0537 19.4443C91.3205 19.3756 91.5764 19.2924 91.8213 19.1875C92.2563 19.0067 92.6216 18.8144 92.9141 18.6191C93.2102 18.4238 93.39 18.2397 93.4521 18.0625C93.4119 17.7588 93.2839 17.4551 93.0684 17.1514C92.849 16.8476 92.5707 16.6012 92.2344 16.4131C91.8981 16.2215 91.5506 16.1279 91.1924 16.1279ZM5.30176 13.668C3.938 14.4564 2.97248 15.0466 2.41309 15.4336C1.82092 15.8458 1.50997 16.1315 1.48438 16.2979C1.52105 16.4496 1.67148 16.5618 1.93457 16.6377C2.1978 16.7172 2.57824 16.7529 3.0752 16.7529C3.39036 16.7529 3.7281 16.7366 4.08691 16.7041L4.45312 16.6631C4.87359 16.6161 5.26524 16.5615 5.63086 16.5C5.6272 16.4422 5.61961 16.3843 5.6123 16.3301C5.56843 15.9142 5.50647 15.4004 5.42969 14.7783C5.38582 14.3986 5.34563 14.0296 5.30176 13.668ZM16.5371 12.3232C16.5919 12.5256 16.6358 12.7495 16.665 12.9951L16.7012 13.3564C16.7085 13.4717 16.7119 13.5828 16.7119 13.6895C16.7119 14.1054 16.6465 14.4858 16.5186 14.833C16.3869 15.1801 16.2147 15.4515 15.999 15.6504C15.7834 15.8455 15.535 15.9433 15.25 15.9434C14.9648 15.9434 14.7119 15.8667 14.5254 15.7148C14.3392 15.563 14.2037 15.3456 14.127 15.0674C14.0026 15.3603 13.8273 15.578 13.6006 15.7227C13.374 15.8672 13.1144 15.9395 12.8184 15.9395C12.376 15.9394 12.0436 15.8089 11.8242 15.5449C11.6049 15.2809 11.4912 14.9269 11.4912 14.4785C11.4912 14.2109 11.5172 13.9105 11.5684 13.585C11.6195 13.2595 11.6889 12.9667 11.7803 12.71L12.3574 12.8799C12.288 13.2053 12.2549 13.5022 12.2549 13.7734C12.2549 14.0445 12.3247 14.24 12.46 14.3701C12.5952 14.5003 12.7819 14.5654 13.0195 14.5654C13.279 14.5654 13.4912 14.5185 13.6484 14.4209C13.8056 14.3269 13.8969 14.2 13.9189 14.041L13.9697 13.4189L14.6172 13.335V13.7041C14.6172 14.0188 14.687 14.2399 14.8223 14.3701C14.9575 14.5001 15.1622 14.5654 15.4326 14.5654C15.5898 14.5654 15.725 14.5322 15.8311 14.4707C15.937 14.4092 16.0101 14.3047 16.043 14.1602C16.032 13.9938 15.9882 13.769 15.915 13.4941C15.8419 13.2194 15.7547 12.9625 15.6523 12.7275L16.5371 12.3232ZM68.5312 11.9609C68.7214 12.1888 68.9923 12.4387 69.3359 12.71C69.6795 12.9811 70.0265 13.2165 70.3701 13.4189L69.127 15.0498C68.7688 14.8365 68.4144 14.594 68.0635 14.3301C67.7088 14.0661 67.4382 13.8197 67.248 13.5918L68.5312 11.9609ZM71.5762 11.957C71.7553 12.1849 72.0301 12.4348 72.3994 12.7061C72.7723 12.9809 73.1339 13.2164 73.4922 13.4189L72.209 15.0459C71.9404 14.8859 71.6737 14.71 71.4092 14.5205L71.1455 14.3232C70.7946 14.0593 70.5202 13.8128 70.3301 13.585L71.5762 11.957ZM126.271 13.0898L124.844 14.9561L122.694 13.2852L124.164 11.4189L126.271 13.0898ZM129.847 13.0898L128.376 14.9561L126.227 13.2852L127.652 11.4189L129.847 13.0898ZM26.2871 11.6719L24.9453 13.375L22.9824 11.8486L24.2842 10.1455L26.2871 11.6719ZM148.877 8.44238C149.122 8.44248 149.344 8.52503 149.538 8.6875L149.68 8.8291C149.81 8.97378 149.917 9.15171 149.999 9.36035C150.109 9.64246 150.167 9.95046 150.167 10.2832C150.167 10.6159 150.094 10.9629 149.951 11.2666C149.805 11.5703 149.593 11.8088 149.315 11.9824C148.829 12.2935 147.944 12.5829 146.657 12.8506L146.756 11.9209C147.512 11.7582 148.101 11.6106 148.521 11.4805C148.942 11.3503 149.238 11.234 149.406 11.1328C149.574 11.0317 149.673 10.9197 149.695 10.7969C149.695 10.7428 149.691 10.6899 149.688 10.6387C149.566 10.7315 149.407 10.8055 149.209 10.8613C149.004 10.9192 148.788 10.9482 148.565 10.9482C148.302 10.9482 148.094 10.8763 147.94 10.7354C147.787 10.5943 147.714 10.3803 147.714 10.1055C147.714 9.83072 147.765 9.54867 147.867 9.29199C147.97 9.03524 148.113 8.82934 148.288 8.67383C148.464 8.51831 148.661 8.44238 148.877 8.44238ZM42.7441 9.42578C42.9343 9.65364 43.2051 9.90355 43.5488 10.1748C43.8923 10.4458 44.2396 10.6804 44.583 10.8828L43.3398 12.5146C42.9817 12.3013 42.6272 12.0589 42.2764 11.7949C41.9254 11.5309 41.6511 11.2845 41.4609 11.0566L42.7441 9.42578ZM45.79 9.42188C45.9692 9.64971 46.2431 9.89967 46.6123 10.1709C46.9852 10.4422 47.3477 10.6773 47.7061 10.8799L46.4229 12.5107C46.1541 12.3507 45.8867 12.1749 45.6221 11.9854L45.3623 11.7871C45.0114 11.5232 44.737 11.2776 44.5469 11.0498L45.79 9.42188ZM91.4043 10.5068L90.0146 12.3262L87.9199 10.6992L89.3535 8.87988L91.4043 10.5068ZM94.8887 10.5068L93.459 12.3262L91.3643 10.6992L92.7529 8.87988L94.8887 10.5068ZM16.4199 10.373C15.707 10.5539 14.8802 10.7961 13.9443 11.1035L13.2773 11.334C12.6386 11.556 12.0942 11.7645 11.6445 11.957L11.7803 10.6953C12.3688 10.4494 13.1364 10.1675 14.083 9.8457C15.03 9.52743 15.8603 9.26981 16.5732 9.07812L16.4199 10.373ZM148.734 9.24121C148.61 9.24121 148.5 9.27422 148.405 9.33203C148.31 9.39352 148.24 9.46213 148.192 9.53809C148.149 9.61378 148.123 9.68962 148.123 9.76172C148.123 9.85922 148.167 9.9318 148.251 9.98242C148.339 10.033 148.481 10.0547 148.679 10.0547C149.015 10.0547 149.313 10.0213 149.57 9.95898C149.531 9.84226 149.483 9.73806 149.425 9.64648C149.253 9.37898 149.019 9.24135 148.734 9.24121ZM34.3389 7.8125C33.8892 8.08014 33.3513 8.28249 32.7188 8.41992C32.0864 8.56094 31.4907 8.62985 30.9277 8.62988C30.5356 8.62988 30.1656 8.60188 29.8203 8.54492L29.4834 8.47461C29.0411 8.37337 28.6569 8.23984 28.3242 8.07715L27.71 9.62793L26.8105 8.9082L27.6729 7.16504C27.841 6.81424 28.0022 6.56108 28.1631 6.40918C28.3238 6.25741 28.514 6.18174 28.7295 6.18164C28.8172 6.18164 28.9167 6.19596 29.0264 6.22852C29.1323 6.26104 29.2385 6.29013 29.3408 6.31543C29.6588 6.40581 29.9698 6.4815 30.2695 6.54297C30.5693 6.60442 30.9678 6.6377 31.4648 6.6377C31.9401 6.63769 32.4482 6.59781 32.9893 6.51465C33.5304 6.43508 34.0131 6.30417 34.4336 6.12695L34.3389 7.8125ZM4.65039 6.60156L2.93555 8.84668L0.34668 6.83594L2.11621 4.58984L4.65039 6.60156ZM8.94922 6.60156L7.18359 8.84668L4.59473 6.83594L6.31348 4.58984L8.94922 6.60156ZM130.372 5.44727C129.568 5.6498 128.639 5.92431 127.586 6.27148L126.832 6.52344C126.112 6.77321 125.498 7.00681 124.99 7.22656L125.144 5.80566C125.809 5.52718 126.673 5.20864 127.74 4.85059C128.808 4.49263 129.74 4.20359 130.544 3.99023L130.372 5.44727ZM181.636 2.59766C180.831 2.80019 179.903 3.07469 178.85 3.42188L178.095 3.67383C177.375 3.92349 176.761 4.15728 176.254 4.37695L176.407 2.95508C177.073 2.67663 177.936 2.35896 179.003 2.00098C180.071 1.64292 181.003 1.35304 181.808 1.13965L181.636 2.59766Z" fill="#061C1A"/>
<path d="M201.844 25.7701L202.835 30.4754L207.551 31.4672L200.955 38.0267L195.248 32.3296L201.844 25.7701Z" fill="#061C1A"/>
<path d="M201.403 16.6688L198.773 20.6991L201.409 24.738L192.103 24.7109L192.102 16.6455L201.403 16.6688Z" fill="#061C1A"/>
<path d="M207.523 9.92258L202.814 10.9128L201.823 15.6335L195.263 9.0367L200.964 3.32966L207.523 9.92258Z" fill="#061C1A"/>
<path d="M216.621 9.48028L212.595 6.85381L208.556 9.48594L208.579 0.184674L216.645 0.179013L216.621 9.48028Z" fill="#061C1A"/>
<path d="M223.367 15.6007L222.377 10.8954L217.66 9.9036L224.253 3.34025L229.964 9.04114L223.367 15.6007Z" fill="#061C1A"/>
<path d="M223.809 24.7018L226.439 20.6715L223.803 16.6326L233.104 16.6598L233.11 24.7252L223.809 24.7018Z" fill="#061C1A"/>
<path d="M217.689 31.4444L222.394 30.4582L223.39 25.7374L229.949 32.3342L224.248 38.0412L217.689 31.4444Z" fill="#061C1A"/>
<path d="M208.591 31.8904L212.617 34.5169L216.656 31.8848L216.633 41.186L208.564 41.1917L208.591 31.8904Z" fill="#061C1A"/>
</svg>
