<svg width="257" height="183" viewBox="0 0 257 183" fill="none" xmlns="http://www.w3.org/2000/svg">
<path d="M1.408 179V168.12H5.328C7.088 168.12 8.48 168.627 9.504 169.64C10.528 170.653 11.04 171.96 11.04 173.56C11.04 175.171 10.528 176.483 9.504 177.496C8.48 178.499 7.088 179 5.328 179H1.408ZM5.312 177.736C6.61333 177.736 7.63733 177.363 8.384 176.616C9.14133 175.869 9.52 174.851 9.52 173.56C9.52 172.28 9.14133 171.267 8.384 170.52C7.62667 169.763 6.60267 169.384 5.312 169.384H2.896V177.736H5.312ZM13.8891 169.544L12.7851 168.472L13.8891 167.416L14.9611 168.472L13.8891 169.544ZM14.5931 179H13.1531V171H14.5931V179ZM21.6689 172.28C20.9649 172.28 20.3249 172.429 19.7489 172.728C19.1835 173.016 18.7462 173.389 18.4369 173.848V179H16.9969V171H18.3249L18.4209 172.824C18.7195 172.227 19.1462 171.747 19.7009 171.384C20.2555 171.021 20.8635 170.84 21.5249 170.84L21.6689 172.28ZM30.4674 174.76C30.4674 175.08 30.462 175.304 30.4514 175.432H24.1314C24.2167 176.264 24.51 176.915 25.0114 177.384C25.5234 177.853 26.222 178.088 27.1074 178.088C28.0674 178.088 28.9794 177.869 29.8434 177.432L30.1154 178.456C29.2087 178.925 28.174 179.16 27.0114 179.16C25.5927 179.16 24.5047 178.792 23.7474 178.056C23.0007 177.309 22.6274 176.291 22.6274 175C22.6274 173.731 23.0007 172.723 23.7474 171.976C24.494 171.219 25.4967 170.84 26.7554 170.84C27.4487 170.84 28.0407 170.947 28.5314 171.16C29.0327 171.373 29.4167 171.672 29.6834 172.056C29.9607 172.44 30.158 172.856 30.2754 173.304C30.4034 173.741 30.4674 174.227 30.4674 174.76ZM24.1474 174.376H29.0274C29.0167 173.619 28.8407 173.016 28.4994 172.568C28.1687 172.12 27.5714 171.896 26.7074 171.896C26.014 171.896 25.438 172.115 24.9794 172.552C24.5207 172.979 24.2434 173.587 24.1474 174.376ZM36.418 178.04C37.218 178.04 38.0553 177.821 38.93 177.384L39.202 178.456C38.2847 178.925 37.3193 179.16 36.306 179.16C34.994 179.16 33.9487 178.787 33.17 178.04C32.402 177.283 32.018 176.269 32.018 175C32.018 173.731 32.402 172.723 33.17 171.976C33.9487 171.219 34.994 170.84 36.306 170.84C37.3193 170.84 38.2847 171.075 39.202 171.544L38.93 172.616C38.0553 172.179 37.218 171.96 36.418 171.96C35.5433 171.96 34.834 172.232 34.29 172.776C33.7567 173.32 33.49 174.061 33.49 175C33.49 175.939 33.7567 176.68 34.29 177.224C34.834 177.768 35.5433 178.04 36.418 178.04ZM43.0293 168.12V171H45.8613V172.12H43.0293V176.776C43.0293 177.619 43.5253 178.04 44.5173 178.04C44.9439 178.04 45.3759 177.955 45.8133 177.784L46.0213 178.84C45.4453 179.053 44.8159 179.16 44.1333 179.16C43.2586 179.16 42.6133 178.952 42.1973 178.536C41.7919 178.109 41.5893 177.533 41.5893 176.808V172.12H40.2773V171H41.5893V168.392L43.0293 168.12ZM51.0408 170.84C52.3528 170.84 53.3928 171.24 54.1608 172.04C54.9394 172.829 55.3288 173.816 55.3288 175C55.3288 176.184 54.9394 177.176 54.1608 177.976C53.3928 178.765 52.3528 179.16 51.0408 179.16C49.7074 179.16 48.6568 178.765 47.8888 177.976C47.1208 177.176 46.7368 176.184 46.7368 175C46.7368 173.816 47.1208 172.829 47.8888 172.04C48.6568 171.24 49.7074 170.84 51.0408 170.84ZM51.0248 178.04C51.9208 178.04 52.6141 177.747 53.1048 177.16C53.6061 176.563 53.8568 175.843 53.8568 175C53.8568 174.168 53.6061 173.453 53.1048 172.856C52.6141 172.259 51.9208 171.96 51.0248 171.96C50.1288 171.96 49.4354 172.259 48.9448 172.856C48.4541 173.443 48.2088 174.157 48.2088 175C48.2088 175.853 48.4488 176.573 48.9288 177.16C49.4194 177.747 50.1181 178.04 51.0248 178.04ZM61.9658 172.28C61.2618 172.28 60.6218 172.429 60.0458 172.728C59.4804 173.016 59.0431 173.389 58.7338 173.848V179H57.2938V171H58.6218L58.7178 172.824C59.0164 172.227 59.4431 171.747 59.9978 171.384C60.5524 171.021 61.1604 170.84 61.8218 170.84L61.9658 172.28ZM69.7693 171H71.2893L67.3053 179.736C66.8573 180.739 66.3719 181.48 65.8493 181.96C65.3373 182.44 64.6706 182.68 63.8493 182.68C63.3479 182.68 62.9319 182.616 62.6013 182.488L62.8092 181.416C63.1719 181.512 63.5079 181.56 63.8173 181.56C64.2653 181.56 64.6493 181.427 64.9693 181.16C65.2893 180.893 65.6146 180.419 65.9453 179.736L66.3133 178.952L62.6973 171H64.2173L67.0493 177.272L69.7693 171ZM86.3145 177.576C85.2798 178.632 83.8825 179.16 82.1225 179.16C80.3625 179.16 78.9598 178.632 77.9145 177.576C76.8798 176.52 76.3625 175.181 76.3625 173.56C76.3625 171.949 76.8798 170.616 77.9145 169.56C78.9598 168.493 80.3625 167.96 82.1225 167.96C83.8825 167.96 85.2798 168.493 86.3145 169.56C87.3598 170.616 87.8825 171.949 87.8825 173.56C87.8825 175.181 87.3598 176.52 86.3145 177.576ZM82.1225 169.224C80.8318 169.224 79.8025 169.624 79.0345 170.424C78.2665 171.224 77.8825 172.269 77.8825 173.56C77.8825 174.861 78.2665 175.912 79.0345 176.712C79.8025 177.501 80.8318 177.896 82.1225 177.896C83.4238 177.896 84.4532 177.501 85.2105 176.712C85.9785 175.912 86.3625 174.861 86.3625 173.56C86.3625 172.269 85.9785 171.224 85.2105 170.424C84.4532 169.624 83.4238 169.224 82.1225 169.224ZM89.1523 171H90.4643V169.944C90.4643 169.101 90.7043 168.456 91.1843 168.008C91.6749 167.549 92.3683 167.32 93.2643 167.32C94.0536 167.32 94.7043 167.427 95.2163 167.64L94.9283 168.696C94.5229 168.525 94.0376 168.44 93.4723 168.44C92.4269 168.44 91.9043 168.952 91.9043 169.976V171H94.8163V172.12H91.9043V179H90.4643V172.12H89.1523V171ZM111.008 173.56C111.008 175.459 110.33 176.931 108.976 177.976L110.112 179.384L109.04 180.168L107.824 178.664C107.045 178.995 106.186 179.16 105.248 179.16C103.488 179.16 102.085 178.632 101.039 177.576C100.005 176.52 99.4875 175.181 99.4875 173.56C99.4875 171.949 100.005 170.616 101.039 169.56C102.085 168.493 103.488 167.96 105.248 167.96C107.008 167.96 108.405 168.493 109.44 169.56C110.485 170.616 111.008 171.949 111.008 173.56ZM105.248 177.928C105.898 177.928 106.485 177.821 107.008 177.608L105.504 175.544L106.368 174.92L108.112 176.936C109.029 176.136 109.488 175.011 109.488 173.56C109.488 172.259 109.104 171.203 108.336 170.392C107.568 169.581 106.538 169.176 105.248 169.176C103.957 169.176 102.928 169.581 102.16 170.392C101.392 171.203 101.008 172.259 101.008 173.56C101.008 174.861 101.392 175.917 102.16 176.728C102.928 177.528 103.957 177.928 105.248 177.928ZM118.581 171H120.021V179H118.709L118.597 177.784C117.903 178.701 116.981 179.16 115.829 179.16C114.901 179.16 114.186 178.904 113.685 178.392C113.183 177.88 112.933 177.16 112.933 176.232V171.048L114.373 170.84V176.2C114.373 176.787 114.543 177.24 114.885 177.56C115.226 177.88 115.711 178.04 116.341 178.04C117.194 178.04 117.941 177.656 118.581 176.888V171ZM127.106 172.28C126.402 172.28 125.762 172.429 125.186 172.728C124.621 173.016 124.184 173.389 123.874 173.848V179H122.434V171H123.762L123.858 172.824C124.157 172.227 124.584 171.747 125.138 171.384C125.693 171.021 126.301 170.84 126.962 170.84L127.106 172.28ZM136.064 178.056C136.309 178.056 136.512 178.019 136.672 177.944V179C136.373 179.107 136.026 179.16 135.632 179.16C134.629 179.16 134.064 178.707 133.936 177.8C133.178 178.707 132.17 179.16 130.912 179.16C130.069 179.16 129.397 178.947 128.896 178.52C128.394 178.083 128.144 177.523 128.144 176.84C128.144 175.955 128.49 175.293 129.184 174.856C129.877 174.419 130.784 174.2 131.904 174.2C132.522 174.2 133.189 174.248 133.904 174.344V173.64C133.904 173.149 133.722 172.749 133.36 172.44C132.997 172.12 132.442 171.96 131.696 171.96C130.693 171.96 129.722 172.184 128.784 172.632L128.512 171.512C129.429 171.064 130.544 170.84 131.856 170.84C132.997 170.84 133.861 171.101 134.448 171.624C135.045 172.136 135.344 172.835 135.344 173.72V177.192C135.344 177.48 135.392 177.699 135.488 177.848C135.594 177.987 135.786 178.056 136.064 178.056ZM131.36 178.04C132.32 178.04 133.168 177.624 133.904 176.792V175.416C133.338 175.32 132.704 175.272 132 175.272C130.41 175.272 129.616 175.736 129.616 176.664C129.616 177.091 129.77 177.427 130.08 177.672C130.4 177.917 130.826 178.04 131.36 178.04ZM142.096 170.84C143.024 170.84 143.738 171.096 144.24 171.608C144.741 172.12 144.992 172.84 144.992 173.768V179H143.552V173.8C143.552 173.213 143.381 172.76 143.04 172.44C142.698 172.12 142.213 171.96 141.584 171.96C140.72 171.96 139.968 172.344 139.328 173.112V179H137.888V171H139.216L139.328 172.216C140 171.299 140.922 170.84 142.096 170.84ZM148.045 169.544L146.941 168.472L148.045 167.416L149.117 168.472L148.045 169.544ZM148.749 179H147.309V171H148.749V179ZM155.121 178.04C155.921 178.04 156.758 177.821 157.633 177.384L157.905 178.456C156.988 178.925 156.022 179.16 155.009 179.16C153.697 179.16 152.652 178.787 151.873 178.04C151.105 177.283 150.721 176.269 150.721 175C150.721 173.731 151.105 172.723 151.873 171.976C152.652 171.219 153.697 170.84 155.009 170.84C156.022 170.84 156.988 171.075 157.905 171.544L157.633 172.616C156.758 172.179 155.921 171.96 155.121 171.96C154.246 171.96 153.537 172.232 152.993 172.776C152.46 173.32 152.193 174.061 152.193 175C152.193 175.939 152.46 176.68 152.993 177.224C153.537 177.768 154.246 178.04 155.121 178.04ZM171.959 179.112L170.871 176.456H165.255L164.215 179H162.679L167.223 168.136L168.919 167.928L173.447 178.888L171.959 179.112ZM165.767 175.208H170.359L168.055 169.592L165.767 175.208ZM179.238 179.16C178.075 179.16 177.131 178.696 176.406 177.768V182.472L174.966 182.68V171H176.294L176.406 172.232C177.11 171.304 178.054 170.84 179.238 170.84C180.379 170.84 181.296 171.219 181.99 171.976C182.683 172.733 183.03 173.741 183.03 175C183.03 176.259 182.683 177.267 181.99 178.024C181.296 178.781 180.379 179.16 179.238 179.16ZM178.87 171.96C177.91 171.96 177.088 172.36 176.406 173.16V176.824C177.088 177.635 177.91 178.04 178.87 178.04C179.712 178.04 180.368 177.763 180.838 177.208C181.318 176.643 181.558 175.907 181.558 175C181.558 174.093 181.318 173.363 180.838 172.808C180.368 172.243 179.712 171.96 178.87 171.96ZM189.269 179.16C188.106 179.16 187.162 178.696 186.437 177.768V182.472L184.997 182.68V171H186.325L186.437 172.232C187.141 171.304 188.085 170.84 189.269 170.84C190.41 170.84 191.328 171.219 192.021 171.976C192.714 172.733 193.061 173.741 193.061 175C193.061 176.259 192.714 177.267 192.021 178.024C191.328 178.781 190.41 179.16 189.269 179.16ZM188.901 171.96C187.941 171.96 187.12 172.36 186.437 173.16V176.824C187.12 177.635 187.941 178.04 188.901 178.04C189.744 178.04 190.4 177.763 190.869 177.208C191.349 176.643 191.589 175.907 191.589 175C191.589 174.093 191.349 173.363 190.869 172.808C190.4 172.243 189.744 171.96 188.901 171.96ZM195.028 179V167.528L196.468 167.32V179H195.028ZM199.608 169.544L198.504 168.472L199.608 167.416L200.68 168.472L199.608 169.544ZM200.312 179H198.872V171H200.312V179ZM206.684 178.04C207.484 178.04 208.321 177.821 209.196 177.384L209.468 178.456C208.55 178.925 207.585 179.16 206.572 179.16C205.26 179.16 204.214 178.787 203.436 178.04C202.668 177.283 202.284 176.269 202.284 175C202.284 173.731 202.668 172.723 203.436 171.976C204.214 171.219 205.26 170.84 206.572 170.84C207.585 170.84 208.55 171.075 209.468 171.544L209.196 172.616C208.321 172.179 207.484 171.96 206.684 171.96C205.809 171.96 205.1 172.232 204.556 172.776C204.022 173.32 203.756 174.061 203.756 175C203.756 175.939 204.022 176.68 204.556 177.224C205.1 177.768 205.809 178.04 206.684 178.04ZM218.767 178.056C219.012 178.056 219.215 178.019 219.375 177.944V179C219.076 179.107 218.73 179.16 218.335 179.16C217.332 179.16 216.767 178.707 216.639 177.8C215.882 178.707 214.874 179.16 213.615 179.16C212.772 179.16 212.1 178.947 211.599 178.52C211.098 178.083 210.847 177.523 210.847 176.84C210.847 175.955 211.194 175.293 211.887 174.856C212.58 174.419 213.487 174.2 214.607 174.2C215.226 174.2 215.892 174.248 216.607 174.344V173.64C216.607 173.149 216.426 172.749 216.063 172.44C215.7 172.12 215.146 171.96 214.399 171.96C213.396 171.96 212.426 172.184 211.487 172.632L211.215 171.512C212.132 171.064 213.247 170.84 214.559 170.84C215.7 170.84 216.564 171.101 217.151 171.624C217.748 172.136 218.047 172.835 218.047 173.72V177.192C218.047 177.48 218.095 177.699 218.191 177.848C218.298 177.987 218.49 178.056 218.767 178.056ZM214.063 178.04C215.023 178.04 215.871 177.624 216.607 176.792V175.416C216.042 175.32 215.407 175.272 214.703 175.272C213.114 175.272 212.319 175.736 212.319 176.664C212.319 177.091 212.474 177.427 212.783 177.672C213.103 177.917 213.53 178.04 214.063 178.04ZM222.607 168.12V171H225.439V172.12H222.607V176.776C222.607 177.619 223.103 178.04 224.095 178.04C224.522 178.04 224.954 177.955 225.391 177.784L225.599 178.84C225.023 179.053 224.394 179.16 223.711 179.16C222.837 179.16 222.191 178.952 221.775 178.536C221.37 178.109 221.167 177.533 221.167 176.808V172.12H219.855V171H221.167V168.392L222.607 168.12ZM227.53 169.544L226.426 168.472L227.53 167.416L228.602 168.472L227.53 169.544ZM228.234 179H226.794V171H228.234V179ZM234.51 170.84C235.822 170.84 236.862 171.24 237.63 172.04C238.408 172.829 238.798 173.816 238.798 175C238.798 176.184 238.408 177.176 237.63 177.976C236.862 178.765 235.822 179.16 234.51 179.16C233.176 179.16 232.126 178.765 231.358 177.976C230.59 177.176 230.206 176.184 230.206 175C230.206 173.816 230.59 172.829 231.358 172.04C232.126 171.24 233.176 170.84 234.51 170.84ZM234.494 178.04C235.39 178.04 236.083 177.747 236.574 177.16C237.075 176.563 237.326 175.843 237.326 175C237.326 174.168 237.075 173.453 236.574 172.856C236.083 172.259 235.39 171.96 234.494 171.96C233.598 171.96 232.904 172.259 232.414 172.856C231.923 173.443 231.678 174.157 231.678 175C231.678 175.853 231.918 176.573 232.398 177.16C232.888 177.747 233.587 178.04 234.494 178.04ZM244.971 170.84C245.899 170.84 246.613 171.096 247.115 171.608C247.616 172.12 247.867 172.84 247.867 173.768V179H246.427V173.8C246.427 173.213 246.256 172.76 245.915 172.44C245.573 172.12 245.088 171.96 244.459 171.96C243.595 171.96 242.843 172.344 242.203 173.112V179H240.763V171H242.091L242.203 172.216C242.875 171.299 243.797 170.84 244.971 170.84ZM251.272 173.08C251.272 173.432 251.443 173.709 251.784 173.912C252.126 174.104 252.536 174.253 253.016 174.36C253.507 174.456 253.992 174.573 254.472 174.712C254.952 174.84 255.363 175.069 255.704 175.4C256.046 175.72 256.216 176.152 256.216 176.696C256.216 177.507 255.928 178.12 255.352 178.536C254.776 178.952 253.96 179.16 252.904 179.16C251.614 179.16 250.536 178.931 249.672 178.472L249.96 177.384C250.867 177.843 251.838 178.072 252.872 178.072C254.12 178.072 254.744 177.629 254.744 176.744C254.744 176.392 254.574 176.115 254.232 175.912C253.902 175.709 253.491 175.56 253 175.464C252.52 175.357 252.035 175.24 251.544 175.112C251.064 174.973 250.654 174.739 250.312 174.408C249.982 174.067 249.816 173.624 249.816 173.08C249.816 172.333 250.099 171.773 250.664 171.4C251.23 171.027 251.992 170.84 252.952 170.84C254.243 170.84 255.32 171.064 256.184 171.512L255.912 172.6C255.027 172.152 254.051 171.928 252.984 171.928C251.843 171.928 251.272 172.312 251.272 173.08Z" fill="#CAC3C3"/>
<path d="M32.124 152.271L29.8623 155.227L26.459 152.58L28.7891 149.628L32.124 152.271ZM37.7822 152.271L35.4531 155.227L32.0508 152.58L34.3076 149.628L37.7822 152.271ZM79.4775 139.789C79.4631 140.65 79.3333 141.521 79.0879 142.392C78.8088 143.387 78.6352 144.082 78.1299 144.71C77.3214 145.715 76.1719 145.958 74.2471 146.368C74.2471 146.368 72.3167 146.777 70.0693 146.591C69.4246 146.534 68.982 146.439 68.751 146.401C67.9617 146.263 67.326 146.053 66.8447 145.782C66.3298 146.043 65.709 146.243 64.9824 146.386C63.967 146.586 62.7446 146.686 61.3154 146.686C60.6467 146.686 60.0741 146.567 59.6025 146.325C59.3138 146.172 59.0775 145.992 58.9043 145.768C58.8706 145.954 58.8079 146.235 58.6973 146.558C57.5229 150.047 53.5293 151.581 52.1289 152.119C46.0027 154.466 39.6404 151.185 38.5576 150.609C39.1784 149.723 39.804 148.843 40.4248 147.957C41.7964 148.562 46.1182 150.257 51.2627 148.848C54.1549 148.058 56.1857 146.591 57.3311 145.611C57.2781 145.111 57.0759 144.249 56.7246 143.016C56.3733 141.788 55.9789 140.564 55.541 139.35L58.1348 137.856C58.4716 139.317 58.7845 140.388 59.0684 141.059C59.3522 141.73 59.6986 142.187 60.1123 142.43C60.5213 142.673 61.123 142.792 61.9121 142.792C62.4367 142.792 62.9184 142.787 63.3516 142.768C63.3179 142.554 63.2988 142.33 63.2988 142.097C63.2989 141.083 63.5293 140.022 63.9912 138.917C64.4532 137.813 65.0456 136.885 65.7578 136.137C66.47 135.39 67.2349 135.014 67.9375 135.014C68.6401 135.014 69.295 135.223 69.9014 135.637C70.5077 136.051 70.9887 136.604 71.3496 137.294C71.7104 137.984 71.8935 138.722 71.8936 139.502C71.8936 140.135 71.7445 140.807 71.4414 141.521C71.2585 141.949 71.0373 142.359 70.7822 142.759C71.5234 142.945 72.669 143.135 74.0547 143.001C75.3682 142.876 76.4204 142.504 77.1367 142.18L77.4375 142.059C77.1151 137.36 76.7971 132.667 76.4795 127.968C77.5189 127.687 78.5632 127.401 79.6025 127.121C79.5592 131.343 79.5209 135.566 79.4775 139.789ZM135.221 149.781L133.411 152.147L130.688 150.029L132.55 147.667L135.221 149.781ZM139.749 149.781L137.887 152.147L135.163 150.029L136.968 147.667L139.749 149.781ZM147.92 149.224L146.058 151.589L143.334 149.471L145.139 147.105L147.92 149.224ZM16.2803 148.201C15.2216 148.467 13.9991 148.829 12.6133 149.286L11.6201 149.626C10.6729 149.955 9.864 150.262 9.19629 150.547L9.39844 148.676C10.2743 148.31 11.4102 147.891 12.8154 147.414C14.2207 146.943 15.4481 146.563 16.5068 146.282L16.2803 148.201ZM236.156 135.657C236.142 136.518 236.011 137.389 235.766 138.26C235.544 139.046 235.352 139.779 234.809 140.579C234.573 140.926 234.01 141.754 233.019 142.288C231.262 143.23 229.062 142.783 227.613 141.84C226.618 141.188 226.045 140.35 225.737 139.798C225.487 140.35 225.16 140.807 224.799 141.198C222.133 144.078 217.392 143.84 213.773 141.931H213.769C213.586 141.793 213.316 141.902 213.307 142.13V142.173C213.172 143.316 212.892 144.335 212.464 145.24C212.036 146.149 211.487 146.848 210.813 147.348C209.991 147.981 208.884 148.505 207.498 148.919C206.112 149.334 204.692 149.542 203.248 149.542C201.097 149.542 199.47 149.067 198.368 148.11C197.266 147.153 196.718 145.82 196.718 143.983C196.718 142.148 198.19 136.689 198.195 136.67L199.678 137.099C199.672 137.125 199.21 139.145 199.081 139.921C198.937 140.773 198.864 141.488 198.864 142.069C198.864 143.197 199.293 144.077 200.149 144.71C201.006 145.343 202.281 145.658 203.979 145.658C204.903 145.658 205.876 145.563 206.892 145.372C207.907 145.182 208.826 144.921 209.64 144.587C210.453 144.254 211.045 143.906 211.415 143.539C211.497 143.454 211.555 143.344 211.579 143.202C211.603 143.059 211.617 142.897 211.617 142.716C211.516 139.608 211.348 136.48 211.112 133.338C210.876 130.192 210.683 127.068 210.529 123.959L213.629 122.989L213.504 135.033C213.47 136.346 213.571 137.446 214.221 137.836C218.234 140.24 222.599 140.545 224.779 137.589C225.058 137.213 225.202 136.747 225.222 136.18L225.289 133.581L226.959 132.724L227.113 135.756C227.133 136.994 227.623 137.694 227.854 137.975C229.399 139.836 233.105 139.593 233.947 138.217C234.039 138.07 234.081 137.937 234.101 137.851L233.172 123.959H233.182L236.281 122.989L236.156 135.657ZM225.988 146.258L224.266 148.519L221.662 146.496L223.438 144.235L225.988 146.258ZM230.319 146.258L228.538 148.519L225.935 146.496L227.662 144.235L230.319 146.258ZM50.9688 146.534L49.0771 146.934L48.1201 131.048L51.2236 130.077L50.9688 146.534ZM84.5449 146.534L82.6543 146.934L81.6719 128.082L84.8008 127.107L84.5449 146.534ZM110.873 135.38C111.09 136.261 111.273 137.146 111.427 138.037C111.576 138.927 111.653 139.612 111.653 140.093C111.653 140.707 111.523 141.373 111.264 142.087C111.004 142.801 110.657 143.445 110.219 144.021C109.781 144.597 109.319 144.991 108.833 145.206C107.928 145.667 106.58 146.035 104.8 146.301C103.019 146.568 101.205 146.701 99.3574 146.701C96.7202 146.701 94.8432 146.291 93.7363 145.467C92.6249 144.648 92.0714 143.43 92.0713 141.817C92.0713 141.155 92.1679 140.374 92.3604 139.474C92.5528 138.574 92.8507 137.575 93.2549 136.48L94.6406 136.927C94.5059 137.479 94.3911 138.027 94.29 138.575C94.189 139.127 94.1406 139.565 94.1406 139.898C94.1406 140.812 94.5934 141.526 95.5029 142.04C96.4077 142.554 97.9041 142.811 99.9873 142.811C101.546 142.811 103.024 142.745 104.41 142.612C105.796 142.478 106.956 142.297 107.89 142.074C108.823 141.85 109.43 141.621 109.719 141.388C109.666 141.041 109.497 140.422 109.213 139.532C108.924 138.641 108.616 137.751 108.279 136.851L110.873 135.38ZM18.0332 129.42C18.1679 130.682 18.3028 132.095 18.4375 133.657C18.4904 134.437 18.5338 135.09 18.5771 135.614C18.6205 136.137 18.6829 136.794 18.7695 137.575C18.8995 138.765 18.9332 139.088 19.1738 139.469C19.4577 139.75 19.7506 140.027 20.0586 140.293C25.1357 143.897 29.2891 143.558 33.0332 141.706C33.5673 141.44 33.4708 140.692 33.4756 140.297L33.5527 138.303L35.3672 138.032V139.874C35.3672 140.888 35.6129 141.626 36.1084 142.092C36.6041 142.559 37.3888 142.792 38.4668 142.792C39.8958 142.792 40.9304 142.736 41.5801 142.617C42.2247 142.498 42.6051 142.331 42.7256 142.117C42.6726 141.683 42.5187 141.031 42.2588 140.16C41.9989 139.284 41.6811 138.394 41.3154 137.48L43.9385 136.008C44.0492 136.456 44.1498 136.904 44.2412 137.351C44.299 137.637 44.3522 137.91 44.3955 138.143L44.4824 138.679C44.6124 139.493 44.8622 141.045 44.3184 142.759C43.9911 143.787 43.4951 144.473 43.2979 144.753C42.8744 145.353 42.4316 145.777 41.96 146.025C41.474 146.258 40.8872 146.425 40.209 146.525C39.5256 146.625 38.7409 146.677 37.8506 146.677C34.5348 146.677 33.7888 144.834 33.9717 143.915C33.4664 146.458 23.2742 148.662 17.9756 142.602C17.2393 141.764 16.8925 140.869 16.623 140.279C16.5557 140.769 16.5608 141.24 16.6426 141.683C16.2046 141.916 15.5589 142.116 14.7119 142.283C13.8602 142.449 13.0421 142.531 12.2529 142.531C11.2135 142.531 10.4097 142.316 9.84668 141.883C9.28373 141.45 9.00007 140.893 9 140.212C9 139.698 9.11566 139.141 9.3418 138.541C9.57279 137.942 9.87079 137.356 10.251 136.77C10.6311 136.189 11.079 135.69 11.5986 135.276C12.359 134.581 13.3742 133.799 14.6494 132.933C15.0199 132.695 15.3522 132.477 15.6602 132.272C15.5784 131.663 15.4968 131.072 15.4102 130.515L18.0332 129.42ZM190.097 146.177L188.206 146.577L187.224 127.725L190.348 126.754L190.097 146.177ZM184.908 139.422C184.894 140.284 184.764 141.155 184.519 142.026C184.273 142.897 183.956 143.668 183.562 144.344C183.167 145.02 182.767 145.482 182.363 145.73C182.026 145.949 181.607 146.1 181.102 146.191C180.601 146.281 180.096 146.33 179.591 146.33C178.431 146.33 177.516 146.072 176.843 145.558C176.251 145.106 175.876 144.444 175.712 143.573C175.466 144.125 175.154 144.597 174.778 144.973C174.321 145.43 173.734 145.773 173.013 145.997C172.286 146.22 171.419 146.334 170.413 146.334H170.01C169.452 146.334 168.965 146.253 168.546 146.096C168.123 145.934 167.781 145.672 167.512 145.296C167.314 145.025 167.16 144.673 167.045 144.245C166.641 144.668 166.217 144.991 165.774 145.21C164.952 145.572 163.931 145.853 162.714 146.043C161.496 146.234 160.158 146.33 158.695 146.33H153.83C152.67 146.33 151.756 146.072 151.082 145.558C150.49 145.106 150.11 144.444 149.951 143.573C149.701 144.125 149.388 144.597 149.013 144.973C148.556 145.43 147.968 145.773 147.246 145.997C146.52 146.22 145.658 146.334 144.647 146.334H144.243C143.083 146.334 142.169 146.077 141.495 145.563C140.903 145.111 140.523 144.449 140.364 143.578C140.119 144.13 139.806 144.601 139.431 144.977C138.974 145.434 138.387 145.777 137.665 146C136.938 146.224 136.077 146.339 135.066 146.339H134.662C132.963 146.339 131.567 146.244 130.475 146.053C129.686 145.915 129.05 145.705 128.569 145.434C128.05 145.696 127.434 145.896 126.707 146.039C125.692 146.238 124.469 146.339 123.04 146.339H119.257C118.165 146.339 117.27 146.144 116.562 145.753C115.86 145.363 115.321 144.763 114.95 143.958C114.58 143.149 114.363 142.093 114.296 140.779C114.094 136.304 113.867 131.986 113.617 127.811L116.74 126.764C116.74 129.125 116.735 130.944 116.726 132.224C116.716 133.505 116.697 135.366 116.663 137.808V138.707C116.663 140.002 116.909 140.95 117.404 141.55C117.9 142.15 118.718 142.45 119.863 142.45H123.646C124.171 142.45 124.652 142.44 125.085 142.426C125.051 142.212 125.032 141.988 125.032 141.754C125.032 140.74 125.264 139.679 125.726 138.575C126.188 137.47 126.779 136.542 127.491 135.794C128.203 135.047 128.964 134.671 129.671 134.671C130.378 134.671 131.033 134.88 131.64 135.294C132.241 135.709 132.727 136.261 133.088 136.952C133.449 137.642 133.632 138.379 133.632 139.16C133.632 139.793 133.483 140.464 133.18 141.178C133.002 141.607 132.78 142.017 132.525 142.416C133.3 142.44 134.215 142.45 135.273 142.45H135.678C136.688 142.45 137.491 142.364 138.098 142.188C138.704 142.012 139.142 141.74 139.421 141.364C139.7 140.988 139.845 140.522 139.864 139.956L139.941 137.96L141.756 137.684V139.532C141.756 140.545 142.001 141.283 142.496 141.749C142.992 142.216 143.781 142.45 144.854 142.45H145.259C146.269 142.45 147.073 142.364 147.68 142.188C148.286 142.012 148.724 141.74 149.003 141.364C149.282 140.988 149.431 140.522 149.445 139.956L149.522 137.96L151.337 137.684V139.532C151.337 140.545 151.583 141.283 152.078 141.749C152.574 142.216 153.359 142.45 154.437 142.45H155.351C155.904 141.731 156.428 141.069 156.924 140.464L156.251 127.735L159.35 126.764L159.172 137.927C160.115 136.961 160.981 136.218 161.761 135.704C162.608 135.147 163.382 134.866 164.09 134.866C164.85 134.866 165.592 135.114 166.323 135.614C167.05 136.114 167.651 136.761 168.123 137.561C168.594 138.356 168.83 139.17 168.83 140.002C168.83 140.669 168.695 141.354 168.426 142.059C168.402 142.121 168.373 142.178 168.349 142.24C168.541 142.287 168.759 142.326 169.009 142.359C169.475 142.416 170.014 142.445 170.62 142.445H171.024C172.035 142.445 172.839 142.359 173.445 142.183C174.051 142.007 174.489 141.736 174.769 141.36C175.048 140.984 175.193 140.517 175.212 139.951L175.288 137.956L177.103 137.679V139.527C177.103 140.54 177.353 141.278 177.849 141.745C178.344 142.211 179.134 142.445 180.207 142.445C180.943 142.445 181.55 142.383 182.021 142.269C182.493 142.15 182.777 141.959 182.878 141.693L182.868 141.688L181.935 127.725L185.034 126.754L184.908 139.422ZM243.448 128.896C244.141 129.562 245.113 130.358 246.374 131.29C247.264 131.971 247.928 132.52 248.366 132.924C248.799 133.334 249.151 133.781 249.411 134.271C249.671 134.761 249.801 135.328 249.801 135.956C249.801 136.585 249.699 137.247 249.497 137.937C249.32 138.541 249.081 139.108 248.782 139.642L248.66 139.874C248.299 140.469 247.9 140.936 247.462 141.269C246.754 141.797 245.854 142.231 244.752 142.564C243.65 142.897 242.553 143.064 241.461 143.064C240.369 143.064 239.551 142.783 239.002 142.216C238.458 141.65 238.184 140.817 238.184 139.722C238.184 139.308 238.198 138.879 238.231 138.436C238.265 137.993 238.299 137.46 238.333 136.828L239.771 136.751V137.575C239.771 138.122 239.93 138.527 240.248 138.784C240.566 139.041 241.138 139.169 241.961 139.169C242.87 139.169 243.785 139.064 244.709 138.855C245.633 138.65 246.418 138.394 247.067 138.084C247.712 137.775 248.097 137.489 248.213 137.222C248.179 136.922 247.962 136.599 247.558 136.251C247.153 135.904 246.489 135.404 245.565 134.756C244.892 134.304 244.257 133.866 243.65 133.433C243.044 133.005 242.481 132.538 241.961 132.039L243.448 128.896ZM67.2783 138.298C66.9078 138.298 66.5466 138.436 66.1953 138.712C65.9319 138.919 65.698 139.164 65.4941 139.444L65.3008 139.727C65.0554 140.136 64.9055 140.522 64.8574 140.888C64.8911 141.383 65.2091 141.816 65.8154 142.183C66.186 142.407 66.6146 142.563 67.1006 142.659C67.4517 142.568 67.789 142.459 68.1113 142.321C68.6838 142.083 69.1649 141.831 69.5498 141.574C69.9396 141.317 70.175 141.074 70.2568 140.84C70.2039 140.445 70.0405 140.041 69.752 139.646C69.4632 139.251 69.097 138.922 68.6543 138.674C68.2069 138.422 67.7498 138.298 67.2783 138.298ZM163.161 138.179C162.608 138.179 162.03 138.346 161.424 138.689C160.822 139.027 160.153 139.526 159.422 140.183C158.772 140.769 158.017 141.521 157.16 142.44H159.384C160.746 142.44 161.987 142.378 163.104 142.264C164.08 142.16 164.891 142.037 165.533 141.89L165.789 141.831C166.472 141.654 166.872 141.46 166.987 141.246C166.939 140.865 166.718 140.431 166.333 139.951C165.948 139.47 165.471 139.05 164.898 138.703C164.331 138.355 163.748 138.179 163.161 138.179ZM129.031 137.951C128.661 137.951 128.3 138.084 127.948 138.36C127.685 138.567 127.451 138.812 127.247 139.092L127.049 139.384C126.803 139.794 126.654 140.179 126.605 140.545C126.639 141.04 126.957 141.474 127.563 141.84C127.934 142.064 128.363 142.221 128.849 142.316C129.2 142.225 129.537 142.116 129.859 141.978C130.432 141.74 130.913 141.488 131.298 141.231C131.688 140.974 131.924 140.731 132.006 140.497C131.953 140.098 131.784 139.698 131.5 139.298C131.211 138.898 130.846 138.574 130.403 138.327C129.961 138.074 129.503 137.951 129.031 137.951ZM15.9775 134.713C14.1826 135.751 12.9121 136.527 12.1758 137.037C11.3967 137.579 10.9882 137.955 10.9541 138.174C11.0022 138.374 11.1994 138.523 11.5459 138.622C11.8923 138.727 12.3927 138.775 13.0469 138.775C13.462 138.775 13.9072 138.753 14.3799 138.71L14.8613 138.656C15.4148 138.594 15.9299 138.522 16.4111 138.441C16.4063 138.365 16.3963 138.289 16.3867 138.217C16.329 137.67 16.2475 136.994 16.1465 136.175C16.0887 135.675 16.0353 135.189 15.9775 134.713ZM30.7666 132.943C30.8388 133.209 30.8961 133.505 30.9346 133.829L30.9834 134.304C30.993 134.456 30.9971 134.602 30.9971 134.743C30.997 135.29 30.9106 135.79 30.7422 136.247C30.5689 136.704 30.3425 137.061 30.0586 137.323C29.7747 137.58 29.4475 137.708 29.0723 137.708C28.6969 137.708 28.3645 137.609 28.1191 137.409C27.8737 137.209 27.6958 136.923 27.5947 136.556C27.4312 136.941 27.2005 137.227 26.9023 137.417C26.604 137.608 26.2619 137.704 25.8721 137.704C25.2898 137.704 24.8522 137.532 24.5635 137.184C24.2748 136.837 24.125 136.37 24.125 135.78C24.125 135.428 24.1592 135.032 24.2266 134.604C24.2939 134.176 24.3847 133.79 24.5049 133.453L25.2656 133.676C25.1742 134.105 25.1309 134.495 25.1309 134.852C25.1309 135.209 25.2224 135.466 25.4004 135.637C25.5784 135.809 25.8239 135.894 26.1367 135.894C26.4784 135.894 26.7579 135.832 26.9648 135.704C27.1714 135.58 27.2913 135.414 27.3203 135.205L27.3877 134.385L28.2402 134.276V134.761C28.2402 135.175 28.3317 135.466 28.5098 135.637C28.6878 135.808 28.9575 135.894 29.3135 135.894C29.5202 135.894 29.6984 135.852 29.8379 135.771C29.9774 135.69 30.0729 135.551 30.1162 135.361C30.1017 135.142 30.0444 134.846 29.9482 134.485C29.852 134.123 29.7363 133.785 29.6016 133.476L30.7666 132.943ZM99.2041 132.467C99.4543 132.767 99.8105 133.096 100.263 133.453C100.715 133.81 101.173 134.119 101.625 134.385L99.9883 136.533C99.5167 136.252 99.0499 135.932 98.5879 135.584C98.1212 135.237 97.7648 134.914 97.5146 134.614L99.2041 132.467ZM103.213 132.462C103.449 132.762 103.81 133.091 104.296 133.448C104.787 133.809 105.263 134.119 105.734 134.385L104.045 136.528C103.691 136.317 103.34 136.085 102.992 135.835L102.645 135.576C102.183 135.228 101.822 134.904 101.571 134.604L103.213 132.462ZM175.202 133.952L173.325 136.409L170.496 134.209L172.431 131.752L175.202 133.952ZM179.909 133.952L177.975 136.409L175.146 134.209L177.021 131.752L179.909 133.952ZM43.6006 132.086L41.835 134.329L39.25 132.319L40.9639 130.077L43.6006 132.086ZM204.958 127.834C205.28 127.834 205.574 127.944 205.829 128.159L205.927 128.252C206.138 128.457 206.309 128.724 206.436 129.044C206.58 129.416 206.657 129.82 206.657 130.258C206.657 130.696 206.561 131.153 206.373 131.553C206.181 131.953 205.901 132.267 205.535 132.496C204.895 132.905 203.731 133.286 202.037 133.638L202.167 132.414C203.163 132.2 203.938 132.005 204.491 131.833C205.045 131.662 205.435 131.51 205.656 131.376C205.877 131.243 206.007 131.096 206.036 130.934C206.035 130.863 206.032 130.794 206.028 130.727C205.867 130.849 205.656 130.946 205.396 131.02C205.126 131.096 204.842 131.134 204.549 131.134C204.202 131.134 203.928 131.039 203.726 130.853C203.524 130.667 203.428 130.386 203.428 130.025C203.428 129.663 203.495 129.292 203.63 128.954C203.765 128.616 203.953 128.344 204.184 128.139C204.414 127.935 204.674 127.834 204.958 127.834ZM65.2617 129.129C65.5119 129.429 65.8681 129.758 66.3203 130.115C66.7727 130.472 67.2302 130.782 67.6826 131.048L66.0459 133.195C65.5744 132.914 65.1074 132.595 64.6455 132.247C64.1837 131.9 63.8224 131.577 63.5723 131.277L65.2617 129.129ZM69.2705 129.124C69.5063 129.424 69.8676 129.753 70.3535 130.11C70.8444 130.467 71.3214 130.777 71.793 131.043L70.1035 133.19C69.75 132.979 69.3989 132.748 69.0508 132.498L68.708 132.239C68.246 131.891 67.885 131.567 67.6348 131.267L69.2705 129.124ZM129.311 130.553L127.481 132.948L124.725 130.805L126.61 128.411L129.311 130.553ZM133.896 130.553L132.016 132.948L129.258 130.805L131.087 128.411L133.896 130.553ZM30.6123 130.376C29.674 130.614 28.5863 130.934 27.3545 131.338L26.4766 131.641C25.6355 131.933 24.9191 132.209 24.3271 132.462L24.5049 130.8C25.2797 130.477 26.2907 130.106 27.5371 129.682C28.7835 129.263 29.8761 128.925 30.8145 128.672L30.6123 130.376ZM204.771 128.887C204.607 128.887 204.462 128.93 204.337 129.006C204.212 129.087 204.12 129.177 204.058 129.277C204 129.377 203.967 129.477 203.967 129.573C203.967 129.701 204.024 129.796 204.135 129.863C204.25 129.929 204.438 129.958 204.698 129.958C205.141 129.958 205.532 129.914 205.871 129.831C205.819 129.678 205.756 129.541 205.68 129.42C205.454 129.068 205.146 128.887 204.771 128.887ZM54.1982 127.006C53.6064 127.359 52.8988 127.625 52.0664 127.806C51.2339 127.992 50.4491 128.082 49.708 128.082C49.1919 128.082 48.7055 128.045 48.251 127.97L47.8066 127.877C47.2245 127.744 46.7191 127.568 46.2812 127.354L45.4727 129.396L44.2891 128.449L45.4248 126.155C45.6461 125.693 45.8577 125.36 46.0693 125.16C46.281 124.96 46.5316 124.86 46.8154 124.86C46.9308 124.86 47.0609 124.879 47.2051 124.921C47.3446 124.964 47.4845 125.002 47.6191 125.036C48.0378 125.155 48.4472 125.254 48.8418 125.335C49.2363 125.416 49.7607 125.459 50.415 125.459C51.0406 125.459 51.7098 125.407 52.4219 125.297C53.1341 125.193 53.7698 125.022 54.3232 124.789L54.1982 127.006ZM15.1201 125.412L12.8633 128.368L9.45605 125.721L11.7852 122.765L15.1201 125.412ZM20.7793 125.412L18.4551 128.368L15.0479 125.721L17.3096 122.765L20.7793 125.412ZM180.602 123.893C179.543 124.16 178.321 124.522 176.935 124.979L175.941 125.309C174.994 125.638 174.185 125.946 173.518 126.235L173.72 124.365C174.596 123.998 175.732 123.579 177.137 123.108C178.542 122.637 179.769 122.256 180.828 121.975L180.602 123.893ZM248.077 120.142C247.018 120.409 245.796 120.77 244.41 121.227L243.417 121.558C242.47 121.887 241.661 122.195 240.993 122.484L241.195 120.613C242.071 120.246 243.207 119.827 244.612 119.356C246.017 118.885 247.245 118.504 248.304 118.223L248.077 120.142Z" fill="#061C1A"/>
<path d="M101.397 66.494L103.952 78.6349L116.123 81.194L99.1012 98.1193L84.3757 83.4193L101.397 66.494Z" fill="#061C1A"/>
<path d="M100.258 43.0102L93.4714 53.4095L100.273 63.831L76.2631 63.7609L76.2586 42.95L100.258 43.0102Z" fill="#061C1A"/>
<path d="M116.051 25.6029L103.9 28.158L101.341 40.3387L84.4157 23.3171L99.1257 8.59143L116.051 25.6029Z" fill="#061C1A"/>
<path d="M139.527 24.462L129.138 17.685L118.716 24.4766L118.776 0.476815L139.587 0.462208L139.527 24.462Z" fill="#061C1A"/>
<path d="M156.93 40.2542L154.376 28.1134L142.205 25.5543L159.216 8.61906L173.952 23.3289L156.93 40.2542Z" fill="#061C1A"/>
<path d="M158.071 63.7379L164.858 53.3386L158.056 42.9171L182.056 42.9874L182.071 63.7981L158.071 63.7379Z" fill="#061C1A"/>
<path d="M142.282 81.1353L154.423 78.5905L156.992 66.4096L173.917 83.4312L159.207 98.1569L142.282 81.1353Z" fill="#061C1A"/>
<path d="M118.805 82.2861L129.194 89.063L139.615 82.2715L139.555 106.271L118.734 106.286L118.805 82.2861Z" fill="#061C1A"/>
</svg>
