<svg xmlns="http://www.w3.org/2000/svg" width="237" height="132" fill="none" viewBox="0 0 237 132"><path fill="#66997E" d="M9.73 111.397c1.521 0 2.67.366 3.446 1.097.784.723 1.176 1.789 1.176 3.198 0 1.417-.388 2.483-1.164 3.199-.776.716-1.93 1.073-3.459 1.073H6.757v-8.567h2.972Zm2.79 4.261c0-.941-.229-1.631-.689-2.068-.46-.444-1.16-.667-2.102-.667H8.554v5.516h1.175c.957 0 1.662-.219 2.114-.656.452-.444.678-1.153.678-2.125Zm3.14-4.814h1.741v1.706h-1.74v-1.706Zm0 2.757h1.741v6.363h-1.74v-6.363Zm7.208-.135v1.559h-.26c-.595 0-1.187.219-1.774.656v4.283h-1.74v-6.363h1.74v.611c.58-.498 1.171-.746 1.774-.746h.26Zm2.65 3.797c.136.957.73 1.436 1.786 1.436.286 0 .565-.038.836-.113.279-.076.591-.196.938-.362l.463 1.356a4.268 4.268 0 0 1-1.152.441c-.377.09-.814.136-1.311.136-.724 0-1.342-.14-1.854-.419a2.845 2.845 0 0 1-1.164-1.186c-.264-.513-.396-1.104-.396-1.775 0-.708.136-1.315.407-1.819.271-.505.64-.886 1.108-1.142a3.114 3.114 0 0 1 1.56-.395c.911 0 1.623.267 2.136.802.52.535.78 1.319.78 2.351v.689h-4.137Zm1.22-2.384c-.316 0-.576.082-.78.248-.195.166-.33.437-.406.814h2.283c-.038-.369-.147-.637-.328-.803-.18-.173-.437-.259-.768-.259Zm6.946 5.278c-1.032-.008-1.823-.306-2.374-.893-.55-.596-.825-1.424-.825-2.487 0-1.055.275-1.876.825-2.464.55-.587 1.342-.885 2.374-.892a4.895 4.895 0 0 1 1.797.316v1.594a3.82 3.82 0 0 0-.791-.272 3.976 3.976 0 0 0-.814-.079c-.55.008-.95.166-1.198.475-.249.301-.373.738-.373 1.311 0 1.221.509 1.835 1.526 1.842.52 0 1.058-.169 1.616-.508l.497 1.458a4.414 4.414 0 0 1-2.26.599Zm5.48-4.815v2.509c0 .264.042.448.125.554.09.105.248.158.474.158.241 0 .471-.03.69-.09v1.491a5.315 5.315 0 0 1-1.142.147c-.648 0-1.126-.139-1.435-.418-.301-.279-.452-.693-.452-1.243v-3.108h-.86v-1.548h.86v-2.148h1.74v2.148h1.447v1.548h-1.447Zm5.616 4.815c-.716 0-1.326-.147-1.831-.441a2.865 2.865 0 0 1-1.142-1.198c-.248-.513-.373-1.089-.373-1.729 0-.633.125-1.202.373-1.707a2.845 2.845 0 0 1 1.142-1.209c.505-.302 1.115-.452 1.83-.452.717 0 1.323.15 1.82.452.498.293.87.697 1.12 1.209.255.505.384 1.074.384 1.707 0 .64-.129 1.216-.385 1.729a2.81 2.81 0 0 1-1.119 1.198c-.497.294-1.103.441-1.82.441Zm0-1.492c.49 0 .862-.162 1.119-.486.256-.332.384-.795.384-1.39 0-.588-.128-1.044-.384-1.368-.257-.332-.63-.497-1.12-.497-.497 0-.877.165-1.14.497-.257.324-.385.78-.385 1.368 0 .587.128 1.047.384 1.378.264.332.645.498 1.142.498Zm8.396-5.199v1.559h-.26c-.595 0-1.186.219-1.774.656v4.283h-1.74v-6.363h1.74v.611c.58-.498 1.172-.746 1.774-.746h.26Zm6.73.135-2.6 7.369c-.165.475-.353.844-.564 1.108a1.72 1.72 0 0 1-.735.554c-.279.113-.625.169-1.04.169-.361 0-.69-.049-.983-.147v-1.491c.226.06.456.09.69.09.293 0 .527-.06.7-.181.181-.12.332-.354.452-.701l.136-.395-2.215-6.375h1.785l1.278 3.967 1.401-3.967h1.695Zm6.507 6.556c-.716 0-1.326-.147-1.831-.441a2.865 2.865 0 0 1-1.142-1.198c-.248-.513-.373-1.089-.373-1.729 0-.633.125-1.202.373-1.707a2.845 2.845 0 0 1 1.142-1.209c.505-.302 1.115-.452 1.83-.452.717 0 1.323.15 1.82.452.498.293.87.697 1.12 1.209.255.505.384 1.074.384 1.707 0 .64-.129 1.216-.385 1.729a2.81 2.81 0 0 1-1.119 1.198c-.497.294-1.103.441-1.82.441Zm0-1.492c.49 0 .862-.162 1.119-.486.256-.332.384-.795.384-1.39 0-.588-.128-1.044-.384-1.368-.257-.332-.63-.497-1.12-.497-.497 0-.877.165-1.14.497-.257.324-.385.78-.385 1.368 0 .587.128 1.047.384 1.378.264.332.644.498 1.142.498Zm7.244-6.861c-.227 0-.385.053-.475.159-.083.098-.124.278-.124.542v1.096H74.3v1.56h-1.243v4.803h-1.741v-4.803h-.768v-1.56h.768v-1.695c0-1.1.63-1.65 1.888-1.65.293 0 .659.045 1.096.136v1.503a2.159 2.159 0 0 0-.644-.091ZM95.25 113.443c0 1.118-.19 2.144-.57 3.077a5.807 5.807 0 0 1-1.625 2.299l2.005 2.264h-3.163l-.968-1.123c-.668.207-1.429.311-2.282.311-1.428 0-2.638-.294-3.63-.882a5.797 5.797 0 0 1-2.246-2.437c-.496-1.037-.744-2.206-.744-3.509 0-1.279.248-2.431.744-3.457a5.803 5.803 0 0 1 2.247-2.437c1.002-.61 2.212-.916 3.63-.916 1.405 0 2.604.306 3.595.916a5.638 5.638 0 0 1 2.247 2.455c.507 1.025.76 2.172.76 3.439Zm-10.405 0c0 1.337.328 2.42.985 3.25.657.83 1.596 1.245 2.817 1.245.139 0 .312-.012.519-.035l-1.746-2.022h3.094l.795.933c.75-.818 1.124-1.959 1.124-3.422 0-.842-.15-1.596-.45-2.265a3.607 3.607 0 0 0-1.313-1.573c-.565-.391-1.239-.587-2.023-.587-.818 0-1.515.196-2.091.587-.565.381-.991.911-1.28 1.591-.287.679-.431 1.446-.431 2.298Zm21.549-3.197v9.731h-2.662v-.83c-.864.692-1.792 1.038-2.783 1.038-1.267 0-2.218-.323-2.852-.968-.622-.646-.933-1.683-.933-3.112v-5.859h2.662v5.859c0 .576.127 1.009.38 1.297.265.276.703.415 1.314.415.726 0 1.463-.312 2.212-.934v-6.637h2.662Zm8.361-.208v2.386h-.398c-.91 0-1.814.334-2.713 1.002v6.551h-2.662v-9.731h2.662v.933c.887-.76 1.792-1.141 2.713-1.141h.398Zm5.418.208c1.21 0 2.126.173 2.748.518.623.334 1.037.784 1.245 1.348.207.565.311 1.285.311 2.161v5.704h-2.662v-.83c-.415.381-.824.652-1.227.813a3.43 3.43 0 0 1-1.314.242c-1.06 0-1.901-.288-2.523-.864-.623-.588-.934-1.395-.934-2.42 0-1.049.317-1.856.951-2.42.645-.565 1.533-.847 2.662-.847.91 0 1.705.173 2.385.518-.011-.38-.063-.679-.155-.898-.093-.231-.277-.404-.554-.519-.265-.127-.662-.19-1.192-.19h-1.798v-2.316h2.057Zm-.363 7.864c.645 0 1.314-.288 2.005-.864v-1.227c-.599-.288-1.193-.432-1.78-.432-.461 0-.83.103-1.106.311-.277.207-.415.536-.415.985 0 .818.432 1.227 1.296 1.227Zm12.526-8.072c1.268 0 2.213.329 2.835.986.634.645.951 1.682.951 3.111v5.842h-2.662v-5.842c0-.576-.127-1.003-.381-1.279-.253-.288-.691-.432-1.313-.432-.738 0-1.475.305-2.213.916v6.637h-2.662v-9.731h2.662v.847c.853-.703 1.781-1.055 2.783-1.055Zm6.287-4.01h2.662v2.61h-2.662v-2.61Zm0 4.218h2.662v9.731h-2.662v-9.731Zm9.536 10.025c-1.578-.012-2.788-.467-3.63-1.365-.841-.911-1.261-2.178-1.261-3.803 0-1.613.42-2.87 1.261-3.768.842-.899 2.052-1.354 3.63-1.366.565 0 1.049.04 1.452.121.415.069.847.19 1.297.363v2.437a5.836 5.836 0 0 0-1.21-.415 6.059 6.059 0 0 0-1.245-.121c-.841.012-1.452.254-1.832.726-.38.461-.571 1.13-.571 2.006 0 1.866.778 2.805 2.334 2.817.795 0 1.619-.259 2.472-.778l.76 2.23c-1.048.611-2.201.916-3.457.916ZM162.679 113.639c.744 0 1.308.106 1.691.319.383.206.639.482.766.83.128.348.192.791.192 1.33v3.511h-1.639v-.511a2.524 2.524 0 0 1-.755.5 2.112 2.112 0 0 1-.809.149c-.652 0-1.17-.177-1.553-.532-.383-.362-.574-.858-.574-1.489 0-.646.195-1.142.585-1.49.397-.347.943-.521 1.638-.521.561 0 1.05.106 1.468.319a1.603 1.603 0 0 0-.095-.553.586.586 0 0 0-.341-.319c-.163-.078-.408-.117-.734-.117h-1.106v-1.426h1.266Zm-.224 4.841c.397 0 .809-.178 1.234-.532v-.756a2.514 2.514 0 0 0-1.095-.266c-.284 0-.511.064-.681.192-.171.128-.256.33-.256.606 0 .504.266.756.798.756Zm7.635-5.011c.532 0 1.004.12 1.415.362.412.234.731.588.958 1.063.234.476.351 1.057.351 1.745 0 .688-.117 1.27-.351 1.745-.227.475-.546.833-.958 1.074-.411.234-.883.351-1.415.351-.56 0-1.106-.202-1.638-.606v2.915h-1.638v-8.479h1.638v.447c.525-.412 1.071-.617 1.638-.617Zm-.34 4.883c.447 0 .784-.145 1.011-.436.234-.291.351-.717.351-1.277 0-.553-.117-.975-.351-1.266-.227-.291-.564-.436-1.011-.436-.426 0-.858.16-1.298.479v2.447c.447.326.879.489 1.298.489Zm7.571-4.883c.532 0 1.004.12 1.415.362.412.234.731.588.958 1.063.234.476.351 1.057.351 1.745 0 .688-.117 1.27-.351 1.745-.227.475-.546.833-.958 1.074-.411.234-.883.351-1.415.351-.56 0-1.106-.202-1.638-.606v2.915h-1.638v-8.479h1.638v.447c.525-.412 1.071-.617 1.638-.617Zm-.34 4.883c.447 0 .784-.145 1.01-.436.235-.291.352-.717.352-1.277 0-.553-.117-.975-.352-1.266-.226-.291-.563-.436-1.01-.436-.426 0-.858.16-1.298.479v2.447c.447.326.879.489 1.298.489Zm6.071 1.415c-1.184 0-1.777-.518-1.777-1.553v-7.586h1.639v7.011c0 .255.039.433.117.532.085.092.234.138.447.138.219 0 .422-.028.606-.085v1.415a5.268 5.268 0 0 1-1.032.128Zm2.099-8.724h1.638v1.607h-1.638v-1.607Zm0 2.596h1.638v5.99h-1.638v-5.99Zm5.869 6.17c-.972-.007-1.716-.287-2.234-.84-.518-.56-.777-1.341-.777-2.341 0-.992.259-1.766.777-2.319.518-.553 1.262-.833 2.234-.84.348 0 .645.025.894.074.255.043.521.117.798.224v1.5a3.586 3.586 0 0 0-.745-.256 3.743 3.743 0 0 0-.766-.074c-.518.007-.894.156-1.128.447-.234.283-.351.695-.351 1.234 0 1.149.479 1.727 1.436 1.734.49 0 .997-.16 1.522-.479l.468 1.373a4.163 4.163 0 0 1-2.128.563Zm5.382-6.17c.745 0 1.309.106 1.692.319.383.206.638.482.766.83.127.348.191.791.191 1.33v3.511h-1.638v-.511a2.528 2.528 0 0 1-.756.5c-.241.099-.51.149-.808.149-.653 0-1.17-.177-1.553-.532-.383-.362-.575-.858-.575-1.489 0-.646.195-1.142.585-1.49.397-.347.944-.521 1.639-.521.56 0 1.049.106 1.468.319a1.577 1.577 0 0 0-.096-.553.584.584 0 0 0-.34-.319c-.164-.078-.408-.117-.735-.117h-1.106v-1.426h1.266Zm-.223 4.841c.397 0 .808-.178 1.234-.532v-.756a2.518 2.518 0 0 0-1.096-.266c-.284 0-.511.064-.681.192-.17.128-.255.33-.255.606 0 .504.266.756.798.756Zm6.347-3.203v2.362c0 .248.039.422.117.521.086.1.235.149.447.149.227 0 .444-.028.649-.085v1.405a5.01 5.01 0 0 1-1.074.138c-.61 0-1.061-.131-1.351-.394-.284-.262-.426-.652-.426-1.17v-2.926h-.808v-1.457h.808v-2.021h1.638v2.021h1.362v1.457h-1.362Zm2.51-4.234h1.638v1.607h-1.638v-1.607Zm0 2.596h1.638v5.99h-1.638v-5.99Zm6.007 6.17c-.674 0-1.248-.138-1.723-.415a2.694 2.694 0 0 1-1.075-1.127 3.68 3.68 0 0 1-.351-1.628c0-.596.117-1.131.351-1.606.241-.483.6-.862 1.075-1.139.475-.283 1.049-.425 1.723-.425.674 0 1.245.142 1.713.425.468.277.819.656 1.053 1.139.241.475.362 1.01.362 1.606 0 .603-.121 1.146-.362 1.628a2.642 2.642 0 0 1-1.053 1.127c-.468.277-1.039.415-1.713.415Zm0-1.404c.461 0 .812-.152 1.053-.457.242-.312.362-.749.362-1.309 0-.553-.12-.982-.362-1.287-.241-.312-.592-.468-1.053-.468-.468 0-.826.156-1.074.468-.241.305-.362.734-.362 1.287 0 .553.121.986.362 1.298.248.312.606.468 1.074.468Zm7.702-4.894c.78 0 1.361.203 1.744.607.391.397.586 1.035.586 1.915v3.596h-1.639v-3.596c0-.355-.078-.617-.234-.788-.156-.177-.425-.266-.808-.266-.454 0-.908.188-1.362.564v4.086h-1.638v-5.99h1.638v.521c.525-.432 1.096-.649 1.713-.649Zm6.029 6.298c-.49 0-.922-.039-1.298-.117a5.24 5.24 0 0 1-1.16-.404v-1.468c.39.22.784.379 1.181.479.404.092.83.138 1.277.138.532 0 .798-.177.798-.532a.426.426 0 0 0-.128-.33c-.085-.078-.22-.138-.404-.181l-.947-.202c-.575-.12-1-.322-1.277-.606-.276-.284-.415-.677-.415-1.181 0-1.291.809-1.936 2.426-1.936.667 0 1.376.127 2.128.383v1.415a4.572 4.572 0 0 0-.968-.309 5.143 5.143 0 0 0-1.086-.117c-.312 0-.532.039-.659.117a.38.38 0 0 0-.181.341c0 .127.039.223.117.287.078.057.202.106.372.149l.947.202c.603.121 1.043.323 1.319.606.277.284.415.71.415 1.277 0 .66-.223 1.156-.67 1.489-.44.334-1.035.5-1.787.5Z"/><path fill="#081C1A" d="M109.026 22.837c.363.311.653.733.864 1.27a4.79 4.79 0 0 1 .316 1.76 4.41 4.41 0 0 1-.406 1.877 3.124 3.124 0 0 1-1.201 1.365c-.916.59-2.586 1.144-5.009 1.655l.184-1.771c1.433-.311 2.539-.59 3.335-.838.795-.248 1.348-.47 1.664-.664.316-.195.5-.406.548-.643-.016-.949-.185-1.681-.511-2.193-.327-.51-.764-.77-1.306-.77a1.11 1.11 0 0 0-.617.175c-.179.116-.31.248-.395.395a.866.866 0 0 0-.126.432c0 .185.084.327.247.422.164.095.432.142.806.142.685 0 1.28-.068 1.797-.21l.142 1.306c-.232.185-.543.338-.933.443-.389.11-.79.164-1.211.164-.495 0-.89-.137-1.175-.412-.289-.274-.432-.669-.432-1.201s.095-1.06.29-1.55c.195-.49.458-.88.79-1.175.332-.295.701-.443 1.106-.443.469 0 .88.158 1.249.47M229.278 12.776c-1.986.664-3.619 1.27-4.893 1.823l.289-2.709c1.254-.527 2.882-1.138 4.894-1.823 2.012-.686 3.771-1.234 5.288-1.645l-.326 2.783c-1.517.385-3.271.912-5.257 1.57"/><path fill="#081C1A" d="m213.175 16.739 1.327 20.133a2.015 2.015 0 0 1-.221.527c-1.211 1.998-6.521 2.346-8.728-.353-.332-.406-1.033-1.418-1.064-3.215l-.221-4.395-2.392 1.238-.095 3.769c-.026.817-.237 1.496-.632 2.04-3.118 4.284-25.289 6.809-42.867 6.809-15.86 0-31.489-2.968-37.241-6.451-.932-.564-1.079-2.161-1.027-4.064l.179-17.456-4.44 1.407c.216 4.507.495 9.034.832 13.588.337 4.553.579 9.08.722 13.587 0 .264-.021.5-.053.706a.864.864 0 0 1-.237.485c-.532.532-1.38 1.038-2.544 1.518-1.17.48-2.481.86-3.935 1.139-1.459.274-2.85.416-4.172.416-2.433 0-4.261-.459-5.489-1.37-1.227-.917-1.843-2.193-1.843-3.832 0-.843.1-1.882.305-3.11.19-1.133.859-4.09.859-4.09l-2.123-.621s-2.112 7.932-2.112 10.599c0 2.666.79 4.595 2.365 5.981 1.575 1.387 3.908 2.077 6.99 2.077 2.07 0 4.098-.3 6.084-.901 1.986-.601 3.571-1.36 4.751-2.277.964-.722 1.754-1.74 2.365-3.052.611-1.307 1.017-2.788 1.206-4.448V43.065c.016-.332.396-.49.659-.29l.005.006c5.183 2.767 22.75 6.145 37.61 6.219 19.948.231 39.353-3.105 43.167-7.284a7.508 7.508 0 0 0 1.338-2.03c.437.802 1.259 2.014 2.692 2.957 2.08 1.365 5.225 2.019 7.738.649 1.422-.775 2.228-1.971 2.565-2.477.779-1.16 1.059-2.22 1.375-3.363.347-1.265.537-2.525.558-3.774l.179-18.357-4.44 1.407.005.011ZM199.232 46.127l-2.549 3.278 3.729 2.93 2.476-3.272-3.656-2.936ZM206.543 52.336l2.549-3.273-3.808-2.936-2.471 3.278 3.73 2.93ZM235.356 39.797c.517-.87.922-1.802 1.212-2.798.29-1.002.432-1.956.432-2.873 0-.917-.185-1.728-.559-2.44a7.404 7.404 0 0 0-1.501-1.95c-.627-.59-1.575-1.38-2.855-2.366-1.807-1.35-3.202-2.504-4.187-3.468l-2.129 4.553a22.538 22.538 0 0 0 2.418 2.024 93.566 93.566 0 0 0 2.745 1.913c1.322.939 2.275 1.66 2.855 2.167.579.506.89.975.937 1.407-.168.385-.716.801-1.643 1.244-.927.448-2.055.817-3.377 1.122-1.322.3-2.639.454-3.935.454-1.179 0-2.001-.185-2.454-.56-.458-.373-.685-.958-.685-1.754V35.28l-2.06.11a100.07 100.07 0 0 1-.142 2.33c-.047.638-.074 1.26-.074 1.86 0 1.592.39 2.794 1.175 3.616.78.817 1.954 1.228 3.519 1.228 1.564 0 3.134-.242 4.714-.722 1.58-.48 2.871-1.107 3.882-1.882.627-.48 1.196-1.154 1.718-2.023M221.303 63.725c-1.623.543-2.955 1.039-3.998 1.492l.237-2.214c1.021-.432 2.354-.927 3.998-1.491a74.489 74.489 0 0 1 4.319-1.344l-.263 2.271a62.273 62.273 0 0 0-4.293 1.286ZM216.029 71.752l-2.264 2.904 3.312 2.604 2.197-2.904-3.245-2.604ZM222.514 77.26l2.264-2.904-3.376-2.604-2.196 2.904 3.308 2.604ZM162.412 67.8l-2.207 2.83 3.229 2.54 2.138-2.836-3.16-2.535ZM168.733 73.17l2.207-2.836-3.292-2.535-2.138 2.83 3.223 2.54ZM169.359 90.589l-2.175 2.799 3.186 2.503 2.112-2.799-3.123-2.503ZM175.606 95.891l2.181-2.799-3.255-2.503-2.112 2.799 3.186 2.503ZM185.168 95.232l2.18-2.798-3.255-2.51-2.112 2.8 3.187 2.508ZM144.003 76.048l-3.04 1.739a66.82 66.82 0 0 1 1.091 3.173c.332 1.054.532 1.787.59 2.198-.337.274-1.049.548-2.139.811-1.09.264-2.449.48-4.072.633a53.5 53.5 0 0 1-5.178.237c-2.438 0-4.187-.306-5.251-.917s-1.591-1.455-1.591-2.54c0-.396.058-.918.179-1.566.116-.648.258-1.296.411-1.95l-1.623-.532c-.474 1.296-.821 2.477-1.048 3.541-.226 1.065-.337 1.987-.337 2.773 0 1.908.648 3.352 1.949 4.322 1.296.975 3.492 1.46 6.579 1.46 2.165 0 4.288-.159 6.374-.475 2.086-.316 3.655-.748 4.719-1.296.569-.259 1.112-.723 1.623-1.402a8.658 8.658 0 0 0 1.222-2.288c.305-.848.458-1.634.458-2.36 0-.57-.089-1.382-.263-2.436a45.97 45.97 0 0 0-.648-3.141"/><path fill="#081C1A" d="M134.369 76.285a19.6 19.6 0 0 0 1.638 1.123l1.975-2.54a16.9 16.9 0 0 1-1.68-1.108c-.569-.421-.996-.811-1.27-1.164l-1.917 2.54c.295.353.711.738 1.254 1.15ZM130.344 72.596l-1.975 2.54c.295.353.711.738 1.254 1.15a19.6 19.6 0 0 0 1.638 1.122l1.917-2.54a14.006 14.006 0 0 1-1.591-1.108c-.532-.421-.943-.811-1.238-1.164M228.256 83.516c-.116.316-.453.543-1.001.68-.548.137-1.259.206-2.123.206-1.259 0-2.181-.275-2.76-.828-.58-.548-.869-1.428-.869-2.625v-2.182l-2.123.327-.09 2.361c-.021.67-.189 1.223-.516 1.666-.326.443-.843.77-1.548.975-.706.206-1.654.31-2.834.31h-.474a15.34 15.34 0 0 1-1.886-.105 5.94 5.94 0 0 1-.769-.142c.031-.074.063-.142.089-.216.316-.838.474-1.65.474-2.435 0-.986-.274-1.95-.827-2.893-.553-.944-1.253-1.713-2.107-2.304-.853-.59-1.727-.885-2.612-.885-.827 0-1.733.327-2.729.99-.911.607-1.922 1.487-3.029 2.63l.211-13.212-3.629 1.149.79 15.068a92.962 92.962 0 0 0-1.844 2.345h-1.069c-1.259 0-2.176-.274-2.76-.827-.58-.548-.869-1.428-.869-2.625v-2.182l-2.123.327-.09 2.361c-.021.67-.189 1.223-.516 1.666-.326.442-.843.77-1.549.975-.705.205-1.654.31-2.833.31h-.475c-1.258 0-2.18-.273-2.76-.827-.579-.548-.869-1.428-.869-2.625v-2.182l-2.123.327-.089 2.361c-.021.67-.19 1.223-.516 1.666-.327.443-.843.77-1.549.975-.706.206-1.654.31-2.834.31h-.474c-1.238 0-2.307-.015-3.218-.036.295-.47.558-.96.769-1.465.353-.844.532-1.645.532-2.393 0-.922-.211-1.797-.632-2.614a5.308 5.308 0 0 0-1.697-1.96 3.956 3.956 0 0 0-2.301-.739c-.827 0-1.718.443-2.55 1.329-.837.885-1.522 1.981-2.065 3.288-.542 1.307-.811 2.562-.811 3.763 0 .275.021.543.063.796-.511.021-1.069.027-1.685.027h-4.425c-1.338 0-2.297-.353-2.876-1.065-.58-.706-.869-1.829-.869-3.363V78.91c.042-2.894.063-5.097.074-6.61.01-1.517.015-3.668.015-6.461l-3.655 1.239c.295 4.938.558 10.056.795 15.347.079 1.555.332 2.81.769 3.763.432.954 1.064 1.66 1.886 2.124.827.464 1.88.696 3.155.696h4.425c1.67 0 3.102-.116 4.293-.353.848-.169 1.575-.406 2.175-.717.564.322 1.307.57 2.234.733 1.28.226 2.913.337 4.898.337h.475c1.179 0 2.191-.132 3.039-.4.843-.264 1.533-.67 2.065-1.213.437-.448.8-1.001 1.095-1.66.19 1.028.632 1.813 1.322 2.35.785.612 1.86.918 3.214.918h.474c1.18 0 2.191-.132 3.039-.4.843-.264 1.533-.67 2.065-1.213a5.562 5.562 0 0 0 1.096-1.66c.189 1.027.626 1.813 1.322 2.35.785.612 1.859.918 3.213.918h5.694c1.712 0 3.276-.111 4.704-.338 1.427-.227 2.618-.553 3.582-.99.521-.259 1.016-.644 1.49-1.144.137.506.316.922.548 1.249.316.442.717.759 1.212.943.49.185 1.064.28 1.712.28h.474c1.18 0 2.191-.132 3.039-.401.843-.264 1.533-.67 2.065-1.212.442-.448.806-1.002 1.096-1.66.189 1.027.626 1.813 1.322 2.35.785.611 1.859.917 3.213.917.59 0 1.18-.053 1.77-.163.59-.11 1.08-.29 1.475-.548.474-.296.937-.844 1.401-1.64.463-.795.837-1.712 1.122-2.745a12.57 12.57 0 0 0 .458-3.084l.148-14.994-3.63 1.149 1.091 16.528v.021Zm-65.322-2.73a4.32 4.32 0 0 1 1.048-1.212c.411-.327.837-.485 1.269-.485a3.23 3.23 0 0 1 1.607.443c.521.295.948.68 1.285 1.149.337.474.532.943.59 1.417-.1.275-.374.564-.827.87-.453.306-1.011.6-1.68.885a8.93 8.93 0 0 1-1.18.401 4.398 4.398 0 0 1-1.501-.564c-.706-.432-1.08-.943-1.122-1.534.058-.432.231-.89.516-1.37m45.332 2.894c-.796.205-1.849.379-3.155.516a42.01 42.01 0 0 1-4.351.206h-2.603c1.001-1.091 1.886-1.982 2.645-2.673.853-.774 1.638-1.365 2.344-1.77.706-.401 1.385-.606 2.033-.606.69 0 1.364.205 2.033.621a6.429 6.429 0 0 1 1.681 1.476c.453.57.705 1.08.769 1.534-.137.258-.606.485-1.401.696M236.705 88.829l.295-22.99-3.66 1.149 1.153 22.315 2.212-.474ZM4.219 92.882c-1.623.542-2.955 1.038-3.998 1.491l.237-2.214c1.022-.432 2.354-.927 3.998-1.491a74.634 74.634 0 0 1 4.32-1.344l-.264 2.272a62.36 62.36 0 0 0-4.293 1.285ZM31.674 73.123c-1.649.548-3.008 1.054-4.067 1.518l.243-2.25c1.043-.444 2.396-.944 4.066-1.519 1.67-.57 3.14-1.028 4.399-1.365l-.27 2.314a62.434 62.434 0 0 0-4.366 1.307M36.477 76.5c.053.444.074.85.074 1.234 0 .743-.116 1.423-.348 2.045-.231.622-.537 1.107-.916 1.455a1.88 1.88 0 0 1-1.322.527c-.5 0-.948-.137-1.275-.406-.332-.269-.564-.654-.706-1.154-.221.522-.532.912-.932 1.17-.4.258-.859.39-1.38.39-.78 0-1.364-.237-1.754-.706-.39-.47-.585-1.107-.585-1.908 0-.48.042-1.012.137-1.592.09-.58.216-1.102.374-1.56l1.022.3a7.833 7.833 0 0 0-.18 1.592c0 .48.122.838.359 1.065.242.232.569.348.99.348.459 0 .832-.085 1.112-.253.279-.17.442-.396.479-.675l.09-1.112 1.143-.148v.66c0 .558.12.953.358 1.185.242.232.6.348 1.08.348.279 0 .516-.053.706-.164.19-.11.316-.295.373-.553-.02-.3-.094-.696-.226-1.186s-.285-.948-.464-1.365l1.56-.722c.1.359.173.759.226 1.202M3.25 61.486l-2.724 3.5 3.983 3.13 2.644-3.5-3.903-3.13ZM11.056 68.116l2.723-3.5-4.066-3.13-2.644 3.5 3.987 3.13ZM49.683 93.277l-2.723 3.5 3.982 3.13 2.645-3.494-3.904-3.136ZM57.484 99.907l2.723-3.494-4.06-3.136-2.645 3.5 3.982 3.13ZM64.947 75.173l2.07-2.657-3.087-2.377-2.006 2.657 3.023 2.377Z"/><path fill="#081C1A" d="M68.061 80.338a50.3 50.3 0 0 0-.295-1.581c-.11-.527-.226-1.06-.353-1.592l-3.066 1.745c.433 1.08.801 2.14 1.107 3.173.305 1.033.484 1.802.547 2.319-.136.252-.584.453-1.343.59-.758.137-1.97.205-3.645.205-1.259 0-2.18-.274-2.76-.827-.58-.548-.87-1.428-.87-2.625v-2.182l-2.122.322-.09 2.36c-.005.465.085 1.319-.516 1.666-4.34 2.525-12.046 4.886-21.596 4.923-8.365.032-13.706-1.434-20.127-6.599a22.843 22.843 0 0 1-1.038-.975c-.28-.453-.321-.838-.474-2.24a76.43 76.43 0 0 1-.221-2.319 112.42 112.42 0 0 1-.158-2.319c-.158-1.85-.316-3.52-.474-5.017L7.5 70.66c.1.665.2 1.36.295 2.082-.358.243-.753.506-1.18.78-1.49 1.028-2.681 1.95-3.571 2.773a7.407 7.407 0 0 0-1.58 1.77c-.443.69-.796 1.387-1.065 2.098-.263.706-.4 1.37-.4 1.977 0 .806.332 1.465.99 1.976.659.511 1.596.764 2.818.764.922 0 1.88-.095 2.876-.295.99-.195 1.744-.432 2.255-.706a5.297 5.297 0 0 1-.021-1.66c.31.7.758 1.728 1.58 2.75 5.958 7.39 15.903 8.433 22.034 8.296 17.715-.4 23.035-6.308 23.219-6.74.19 1.027.632 1.813 1.327 2.35.785.612 1.86.917 3.214.917 1.042 0 1.96-.058 2.755-.179.795-.116 1.48-.316 2.049-.59.553-.295 1.074-.796 1.564-1.508.232-.337.811-1.143 1.196-2.36.637-2.03.342-3.864.19-4.829m-61.193-.031c-.77.09-1.475.137-2.123.137-.769 0-1.354-.058-1.754-.18-.405-.12-.637-.294-.695-.532.042-.258.516-.706 1.433-1.344.863-.6 2.344-1.517 4.45-2.745.064.563.132 1.138.2 1.728a121.796 121.796 0 0 1 .306 2.683c-.563.095-1.164.18-1.812.253M73.428 90.088l2.212-.469.295-19.48-3.628 1.15 1.121 18.8ZM71.938 67.541a9.83 9.83 0 0 0 2.228.237c.864 0 1.786-.11 2.76-.327.975-.216 1.802-.532 2.492-.943l.147-2.625c-.647.274-1.39.48-2.228.606-.837.127-1.617.19-2.344.19-.769 0-1.38-.047-1.843-.147-.464-.1-.938-.216-1.433-.354-.158-.036-.321-.084-.485-.131a1.72 1.72 0 0 0-.458-.074c-.332 0-.622.116-.87.353-.247.237-.494.633-.752 1.18l-1.328 2.715 1.386 1.123.942-2.42a7.957 7.957 0 0 0 1.786.622M96.395 72.706c.543.411 1.085.786 1.638 1.123l1.975-2.54a16.999 16.999 0 0 1-1.68-1.107c-.569-.422-.996-.812-1.27-1.165l-1.916 2.54c.294.353.71.738 1.253 1.15ZM92.365 69.017l-1.975 2.54c.295.353.71.738 1.253 1.15.543.41 1.085.785 1.638 1.122l1.917-2.54a13.988 13.988 0 0 1-1.59-1.107c-.532-.422-.943-.812-1.238-1.165"/><path fill="#081C1A" d="M106.597 84.307a11.285 11.285 0 0 1-7.774.848c.295-.474.558-.959.769-1.465.353-.848.532-1.644.532-2.393 0-.927-.211-1.797-.632-2.614a5.302 5.302 0 0 0-1.697-1.96 3.96 3.96 0 0 0-2.302-.738c-.826 0-1.717.442-2.549 1.328-.832.885-1.522 1.982-2.065 3.289-.542 1.307-.811 2.561-.811 3.763 0 .28.021.543.063.796-.51.02-1.07.026-1.685.026-.927 0-1.628-.142-2.107-.427-.48-.285-.89-.827-1.222-1.623-.338-.796-.701-2.06-1.09-3.795l-3.04 1.77a69.04 69.04 0 0 1 1.385 4.339c.411 1.454.648 2.477.706 3.067-1.338 1.16-3.719 2.894-7.1 3.832-6.021 1.665-11.078-.338-12.685-1.054-.727 1.048-1.459 2.092-2.186 3.14 1.265.68 8.713 4.565 15.882 1.787 1.638-.637 6.316-2.45 7.685-6.582.127-.385.2-.712.242-.939.206.264.48.48.817.66.553.284 1.217.426 2.007.426 1.67 0 3.102-.116 4.293-.353.848-.169 1.575-.411 2.175-.717.564.322 1.307.57 2.234.733.268.047.79.158 1.543.221 2.634.216 4.888-.269 4.888-.269 2.249-.485 3.598-.77 4.541-1.966.59-.743.795-1.565 1.122-2.745.284-1.033.437-2.061.458-3.084.047-4.996.1-9.993.148-14.994-1.217.332-2.439.67-3.656 1.001.374 5.56.748 11.121 1.117 16.676m-14.196-2.714c.284-.48.632-.886 1.048-1.212.41-.327.838-.485 1.27-.485.547 0 1.085.147 1.606.442.522.296.948.68 1.285 1.15.337.474.532.943.59 1.417-.1.274-.374.564-.827.87-.453.305-1.011.6-1.68.885-.38.164-.774.295-1.18.4a4.4 4.4 0 0 1-1.501-.563c-.706-.432-1.08-.944-1.122-1.534.058-.432.232-.89.516-1.37M112.718 90.088l2.212-.469.295-22.995-3.655 1.154 1.148 22.31ZM28.76 34.327l1.223 6.372 6.331 1.449-9.039 8.686-7.553-7.822 9.039-8.685ZM28.38 22.052l-3.64 5.365 3.456 5.508-12.531-.253.184-10.873 12.532.253ZM36.788 13.102l-6.363 1.223-1.454 6.335-8.681-9.044 7.817-7.563 8.68 9.05ZM49.055 12.723 43.693 9.08l-5.505 3.458L38.441 0l10.872.184-.258 12.539ZM58 21.135l-1.217-6.367-6.337-1.455 9.045-8.686 7.553 7.822L58 21.135ZM58.379 33.41l3.64-5.366-3.456-5.507 12.537.253-.184 10.878-12.537-.258ZM49.973 42.359l6.368-1.218 1.449-6.34 8.68 9.05-7.811 7.557-8.686-9.05ZM37.704 42.739l5.362 3.641 5.505-3.457-.253 12.544-10.867-.19.253-12.538Z"/></svg>