<svg width="25" height="24" viewBox="0 0 25 24" fill="none" xmlns="http://www.w3.org/2000/svg">
<g clip-path="url(#clip0_3_1854)">
<path d="M13.6608 17.3555C14.6995 17.2978 15.7014 17.3068 16.7162 17.106C16.4041 16.4947 16.1576 15.9938 16.256 15.2801C16.3305 14.7364 16.5452 14.2235 16.7569 13.7176C16.911 13.3499 17.0949 12.9513 17.4557 12.7823C17.8652 12.5915 18.3811 12.7903 18.6534 13.1501C18.9257 13.5099 18.9933 13.99 18.9566 14.4402C18.889 15.2881 18.6624 16.2323 18.0829 16.8824C18.062 16.9052 18.0481 16.934 18.0282 16.9639C17.8702 17.2014 18.9327 17.1935 18.9824 17.1915C19.5201 17.1666 20.0579 17.1428 20.5956 17.1189C21.7476 17.0672 22.9185 17.0702 24.0645 16.941C24.0446 16.6299 23.9681 16.3456 23.8657 16.0693C23.6918 15.5992 23.4264 15.1817 23.0715 14.8279C22.9433 14.6996 22.9125 14.5814 22.9682 14.4094C23.0735 14.0834 23.159 13.7494 23.2534 13.4194C23.2644 13.3827 23.2842 13.3489 23.2982 13.318C23.3906 13.1143 24.0943 14.1152 24.1341 14.1858C24.3786 14.6241 24.5396 15.1101 24.5992 15.6091C24.6966 16.4212 24.5277 17.263 24.1231 17.9737C24.0635 18.0791 23.9949 18.1844 23.8915 18.2471C23.7812 18.3137 23.645 18.3216 23.5158 18.3276C21.8251 18.4061 20.1334 18.4836 18.4427 18.5621C18.3015 18.5691 18.1584 18.5751 18.0222 18.5363C17.7092 18.4468 17.3513 17.6845 17.083 17.9051C16.6963 18.2222 16.416 18.4846 15.9021 18.5443C15.2292 18.6218 14.5543 18.6735 13.8775 18.6993C13.461 18.7152 12.7424 18.8573 12.7473 18.2341C12.7563 17.4956 12.7583 16.7571 12.7622 16.0186C12.7672 15.9868 12.7613 15.959 12.7424 15.9341C11.3518 16.5593 9.89668 17.0454 8.36002 17.1537C6.87307 17.2581 5.34139 17.0046 4.03335 16.289C3.33161 15.9043 2.70244 15.3934 2.16074 14.804C0.915314 13.4502 0.118163 11.6522 -0.000117381 9.81038C-0.00309924 9.76864 0.0207556 9.7249 0.0694594 9.67719C0.44915 10.6433 0.597249 11.6701 1.10118 12.5915C1.59021 13.485 2.28697 14.2673 3.12984 14.8408C4.46174 15.7463 6.10872 16.123 7.71892 16.0792C8.63237 16.0544 9.53885 15.8983 10.4185 15.6558C10.8698 15.5316 11.3141 15.3835 11.7514 15.2185C11.9045 15.1608 12.7613 14.8776 12.7642 14.644C12.7682 14.3786 12.7712 14.0685 12.7772 13.7574C12.7801 13.6252 12.798 13.492 12.7931 13.3598C12.7781 12.9453 12.7543 12.5318 12.7384 12.1173C12.7215 11.686 12.7106 11.2536 12.6937 10.8222C12.6758 10.366 12.6201 9.91574 12.479 9.4784C12.4491 9.38497 12.4004 9.32235 12.315 9.2647C12.0098 9.05697 11.7216 8.82438 11.4174 8.61665C11.2007 8.46954 11.0914 8.26081 11.0298 8.02127C11.0099 7.94274 11.0179 7.84633 11.0447 7.7688C11.156 7.45074 11.2733 7.13466 11.3995 6.82157C11.4731 6.63967 11.5287 6.62476 11.7295 6.66551C12.2692 6.77584 12.6271 7.13764 12.9223 7.56305C13.2463 8.03021 13.4033 8.57092 13.468 9.12953C13.5435 9.77659 13.5992 10.4266 13.627 11.0777C13.6568 11.7804 13.6449 12.4851 13.6518 13.1888C13.6538 13.4214 13.6568 13.654 13.6588 13.9065C13.7075 13.8975 13.7403 13.9005 13.7612 13.8856C15.1269 12.9413 16.424 11.5071 17.2142 10.044C17.5581 9.40783 17.7221 8.82041 17.6286 8.10178C17.5382 7.408 17.3195 6.73211 16.9428 6.13872C16.7331 5.80873 16.4846 5.5006 16.2361 5.19745C16.1367 5.07519 16.091 4.96486 16.1298 4.81378C16.2182 4.47186 16.3007 4.12895 16.3892 3.78703C16.4001 3.74429 16.4339 3.7085 16.4548 3.67372C16.584 3.65881 16.6546 3.73534 16.7261 3.8079C18.7777 5.92104 18.4347 9.04902 17.0203 11.4146C16.4498 12.3698 15.7242 13.2226 14.939 14.0069C14.7452 14.2007 14.5474 14.3905 14.3456 14.5774C14.1667 14.7444 13.8675 14.9243 13.7363 15.128C13.5057 15.4859 13.6667 16.3098 13.6667 16.7412C13.6667 16.936 13.6618 17.1299 13.6588 17.3575L13.6608 17.3555ZM17.5511 16.448C17.7976 16.1985 18.0312 15.9679 18.2578 15.7294C18.3035 15.6807 18.3413 15.6081 18.3483 15.5435C18.4079 14.9869 18.2181 14.5247 17.7897 14.1669C17.6734 14.0705 17.5233 14.0019 17.3742 14.0466C17.0303 14.148 16.7937 14.3826 16.6585 14.7116C16.6287 14.7851 16.6208 14.8865 16.6456 14.9611C16.7142 15.1658 16.7738 15.3745 16.8961 15.5614C17.0879 15.8556 17.2639 16.1608 17.5511 16.449V16.448Z" fill="#A0533B"/>
<path d="M19.6513 2.68774C19.4595 2.71557 19.3641 2.60623 19.2597 2.47602C18.9486 2.08838 18.6246 1.71167 18.2956 1.33894C18.2081 1.23955 18.1823 1.14512 18.222 1.02684C18.3204 0.736605 18.4129 0.443388 18.5222 0.15713C18.5888 -0.0187999 18.6395 -0.0297334 18.8204 0.0368615C19.057 0.124329 19.2746 0.24261 19.4555 0.424503C19.5211 0.490104 19.5947 0.54676 19.6633 0.609379C20.1483 1.04274 20.4336 1.59041 20.5916 2.21561C20.7526 2.84975 20.7944 3.49781 20.8262 4.14686C20.862 4.88139 20.8898 5.61692 20.9137 6.35145C20.9405 7.20824 20.9455 8.06602 20.9823 8.92181C21.018 9.74182 21.0747 10.5618 21.1353 11.3809C21.188 12.0905 21.3928 12.7535 21.7923 13.3489C21.8003 13.3608 21.8062 13.3737 21.8142 13.3857C21.9792 13.6093 22.008 13.821 21.8211 14.0615C21.7148 14.1987 21.6641 14.3796 21.5905 14.5426C21.5607 14.6072 21.5399 14.6768 21.5081 14.7404C21.4305 14.8915 21.3719 14.9064 21.2486 14.7921C21.019 14.5804 20.7477 14.4402 20.4654 14.315C20.3153 14.2484 20.1652 14.1808 20.0161 14.1132C19.8412 14.0327 19.8243 14.0029 19.8929 13.817C19.9644 13.6232 20.039 13.4294 20.1294 13.2435C20.2 13.0984 20.208 12.9215 20.3501 12.8112C20.373 12.7933 20.371 12.7306 20.364 12.6909C20.2209 11.9226 20.2249 11.1413 20.1742 10.365C20.1324 9.71697 20.1394 9.06593 20.1195 8.41688C20.0966 7.64558 20.0678 6.87526 20.045 6.10395C20.034 5.73321 20.038 5.36147 20.0191 4.99073C19.9863 4.32676 19.9237 3.66579 19.7597 3.01872C19.7319 2.90939 19.6881 2.80403 19.6484 2.68774H19.6513Z" fill="#A0533B"/>
<path d="M22.1333 8.50436C22.3758 8.07299 22.666 7.7082 22.9573 7.34243C23.0089 7.36529 23.0417 7.37125 23.0636 7.39014C23.2902 7.59489 23.5248 7.79269 23.7385 8.01037C23.9582 8.23301 24.0039 8.50237 23.8677 8.79062C23.7842 8.96754 23.6958 9.14248 23.6063 9.31742C23.5566 9.41482 23.495 9.50726 23.4513 9.60765C23.331 9.88496 23.3638 10.0341 23.5854 10.2378C23.6948 10.3392 23.8111 10.4326 23.9194 10.536C24.1232 10.7308 24.1411 10.8988 23.9512 11.1085C23.7465 11.3341 23.6391 11.6144 23.4821 11.8669C23.4383 11.9365 23.3886 12.0021 23.3061 12.1204C23.2654 11.8262 23.0557 11.7437 22.9125 11.6015C22.8678 11.5568 22.8181 11.518 22.7724 11.4763C22.4503 11.1821 22.3887 10.9624 22.5507 10.5509C22.6541 10.2895 22.7883 10.039 22.9135 9.78656C23.0487 9.51521 23.0845 9.37208 22.7535 9.06595C22.5537 8.88008 22.349 8.69918 22.1343 8.50436H22.1333Z" fill="#A0533B"/>
<path d="M14.0107 7.20722C14.2532 6.77584 14.5434 6.41106 14.8346 6.04529C14.8863 6.06815 14.9191 6.07411 14.941 6.093C15.1676 6.29775 15.4022 6.49555 15.6159 6.71322C15.8355 6.93587 15.8813 7.20523 15.7451 7.49348C15.6616 7.6704 15.5731 7.84534 15.4837 8.02027C15.434 8.11768 15.3724 8.21012 15.3286 8.31051C15.2084 8.58782 15.2412 8.73691 15.4628 8.94067C15.5722 9.04206 15.6884 9.13549 15.7968 9.23886C16.0005 9.43368 16.0184 9.60165 15.8286 9.81138C15.6238 10.037 15.5165 10.3173 15.3594 10.5698C15.3157 10.6393 15.266 10.7049 15.1835 10.8232C15.1428 10.529 14.933 10.4465 14.7899 10.3044C14.7452 10.2597 14.6955 10.2209 14.6498 10.1791C14.3277 9.88493 14.2661 9.66527 14.4281 9.25377C14.5315 8.99236 14.6657 8.74188 14.7909 8.48942C14.9261 8.21807 14.9619 8.07494 14.6309 7.7688C14.4311 7.58293 14.2263 7.40203 14.0116 7.20722H14.0107Z" fill="#A0533B"/>
<path d="M8.7838 9.72304L7.1731 11.9853L9.87181 13.9068L11.4825 11.6445L8.7838 9.72304Z" fill="#A0533B"/>
<path d="M21.1373 15.8855L20.8968 16.2552H19.5072C19.4625 16.2552 19.4416 16.2363 19.4446 16.1976C19.4476 16.1588 19.4605 16.117 19.4824 16.0703C19.5042 16.0246 19.5301 15.9819 19.5599 15.9431C19.5897 15.9043 19.6116 15.8855 19.6265 15.8855H20.041L20.0052 15.8546C19.9724 15.8218 19.9426 15.7861 19.9137 15.7453C19.8859 15.7055 19.866 15.6638 19.8561 15.6201C19.8451 15.5773 19.8451 15.5326 19.8541 15.4869C19.863 15.4412 19.8869 15.3925 19.9257 15.3418C19.9525 15.309 19.9913 15.2742 20.041 15.2374C20.0916 15.2006 20.1483 15.1638 20.2099 15.1281C20.2725 15.0923 20.3372 15.0585 20.4037 15.0257C20.4703 14.9929 20.535 14.9631 20.5976 14.9362C20.6155 14.9273 20.6304 14.9263 20.6423 14.9342C20.6542 14.9412 20.6622 14.9521 20.6671 14.9651C20.6721 14.978 20.6731 14.9929 20.6721 15.0098C20.6701 15.0257 20.6622 15.0386 20.6473 15.0476C20.6264 15.0654 20.5926 15.0883 20.5469 15.1161C20.5012 15.144 20.4534 15.1738 20.4047 15.2056C20.356 15.2364 20.3103 15.2672 20.2686 15.297C20.2268 15.3269 20.202 15.3517 20.193 15.3726C20.1781 15.3905 20.1841 15.4243 20.2109 15.473C20.2378 15.5217 20.2735 15.5714 20.3183 15.6221C20.3421 15.6519 20.3749 15.6817 20.4167 15.7135C20.4584 15.7443 20.5121 15.7731 20.5767 15.798C20.6423 15.8228 20.7188 15.8437 20.8063 15.8606C20.8938 15.8765 21.0041 15.8855 21.1383 15.8855H21.1373Z" fill="#A0533B"/>
<path d="M1.26031 20.696H1.67877V23.7564H1.26031V20.696Z" fill="#A0533B"/>
<path d="M7.1813 20.696V21.0608H6.14958V23.7574H5.73113V21.0608H4.6994V20.696H7.1813Z" fill="#A0533B"/>
<path d="M12.9651 23.7484L12.7574 23.9999L12.2833 23.6401C12.17 23.7027 12.0457 23.7524 11.9135 23.7902C11.7813 23.8279 11.6362 23.8468 11.4792 23.8468C11.004 23.8468 10.6323 23.6908 10.3629 23.3797C10.1254 23.0765 10.0071 22.6978 10.0071 22.2416C10.0071 21.8281 10.1095 21.4733 10.3152 21.1791C10.5796 20.8014 10.9693 20.6125 11.4861 20.6125C12.003 20.6125 12.4264 20.7864 12.6858 21.1333C12.8886 21.4037 12.99 21.7506 12.99 22.173C12.99 22.3698 12.9661 22.5597 12.9174 22.7416C12.8439 23.0189 12.7196 23.2455 12.5447 23.4204L12.9651 23.7484ZM11.7734 23.4592C11.8489 23.4473 11.9135 23.4234 11.9692 23.3886L11.6312 23.1262L11.84 22.8698L12.2395 23.1809C12.3668 23.0368 12.4522 22.8747 12.498 22.6948C12.5437 22.5149 12.5655 22.344 12.5655 22.18C12.5655 21.8202 12.4711 21.5299 12.2833 21.3103C12.0954 21.0906 11.838 20.9803 11.511 20.9803C11.184 20.9803 10.9186 21.0856 10.7257 21.2963C10.5329 21.5071 10.4365 21.8311 10.4365 22.2694C10.4365 22.6382 10.5289 22.9314 10.7148 23.1491C10.9007 23.3677 11.173 23.4761 11.5318 23.4761C11.6183 23.4761 11.6988 23.4701 11.7744 23.4582L11.7734 23.4592Z" fill="#A0533B"/>
<path d="M16.9767 20.696H17.4459L18.5561 23.7564H18.1019L17.7918 22.8399H16.5811L16.2501 23.7564H15.8247L16.9767 20.696ZM17.6586 22.502L17.1944 21.1502L16.7004 22.502H17.6586Z" fill="#A0533B"/>
<path d="M21.536 20.696H22.024L23.5507 23.1689V20.696H23.9463V23.7564H23.4802L21.9316 21.2864V23.7564H21.536V20.696Z" fill="#A0533B"/>
</g>
<defs>
<clipPath id="clip0_3_1854">
<rect width="24.6262" height="24" fill="white"/>
</clipPath>
</defs>
</svg>
