<svg width="234" height="42" viewBox="0 0 234 42" fill="none" xmlns="http://www.w3.org/2000/svg">
<path d="M216.633 41.0078L208.563 41.0127L208.591 31.7119L212.617 34.3379L216.656 31.7061L216.633 41.0078Z" fill="#061C1A"/>
<path d="M229.949 32.1553L224.248 37.8623L217.688 31.2656L222.395 30.2793L223.39 25.5586L229.949 32.1553Z" fill="#061C1A"/>
<path d="M202.835 30.2969L207.552 31.2881L200.954 37.8477L195.248 32.1514L201.845 25.5918L202.835 30.2969Z" fill="#061C1A"/>
<path d="M17.5684 31.8281L15.8496 34.0742L13.2646 32.0635L15.0342 29.8203L17.5684 31.8281Z" fill="#061C1A"/>
<path d="M21.8672 31.8281L20.0977 34.0742L17.5127 32.0635L19.2275 29.8203L21.8672 31.8281Z" fill="#061C1A"/>
<path fill-rule="evenodd" clip-rule="evenodd" d="M53.5449 22.3447C53.534 22.9993 53.4345 23.6614 53.248 24.3232C53.036 25.0791 52.9044 25.6076 52.5205 26.085C51.9063 26.8477 51.0325 27.0318 49.5703 27.3428C49.5657 27.3438 48.1012 27.6545 46.3965 27.5137C45.9067 27.4703 45.57 27.3971 45.3945 27.3682C44.7952 27.2633 44.3128 27.1045 43.9473 26.8984C43.5561 27.0973 43.0843 27.2489 42.5322 27.3574C41.7608 27.5093 40.832 27.5859 39.7461 27.5859C39.2379 27.5859 38.8026 27.495 38.4443 27.3105C38.2251 27.1948 38.0456 27.0576 37.9141 26.8877C37.8885 27.0287 37.8409 27.2425 37.7568 27.4883C36.8646 30.1388 33.8307 31.3032 32.7666 31.7119C28.1123 33.4949 23.2788 31.0031 22.4561 30.5654C22.9276 29.8928 23.4034 29.2234 23.875 28.5508C24.9172 29.0102 28.2001 30.298 32.1084 29.2275C34.3055 28.6272 35.8485 27.5136 36.7188 26.7686C36.6785 26.3888 36.5247 25.7336 36.2578 24.7969C35.9909 23.8639 35.6911 22.9339 35.3584 22.0117L37.3291 20.877C37.585 21.9871 37.8234 22.8006 38.0391 23.3105C38.2548 23.8204 38.5176 24.1681 38.832 24.3525C39.1427 24.5369 39.5998 24.6269 40.1992 24.627C40.5977 24.627 40.9639 24.6238 41.293 24.6094C41.2674 24.4466 41.2529 24.2758 41.2529 24.0986C41.253 23.3284 41.4284 22.5215 41.7793 21.6826C42.1302 20.8438 42.5801 20.139 43.1211 19.5713C43.6622 19.0035 44.2435 18.7178 44.7773 18.7178C45.311 18.7178 45.808 18.8768 46.2686 19.1914C46.7292 19.5061 47.0949 19.9258 47.3691 20.4502C47.6433 20.9745 47.7822 21.5349 47.7822 22.1279C47.7822 22.6089 47.6688 23.1187 47.4385 23.6611C47.2995 23.9866 47.1313 24.2978 46.9375 24.6016C47.5005 24.7426 48.371 24.8873 49.4238 24.7861C50.4217 24.6912 51.2213 24.4083 51.7656 24.1621L51.9941 24.0703C51.7492 20.5006 51.5079 16.934 51.2666 13.3643C52.0563 13.1509 52.8499 12.9341 53.6396 12.7207C53.6067 15.9287 53.5778 19.1368 53.5449 22.3447ZM44.2764 21.2129C43.9948 21.2129 43.72 21.3176 43.4531 21.5273C43.2531 21.6846 43.0757 21.8704 42.9209 22.083L42.7734 22.2979C42.587 22.6089 42.4741 22.9022 42.4375 23.1807C42.4632 23.5567 42.7045 23.8857 43.165 24.1641C43.4464 24.3339 43.7716 24.4531 44.1406 24.5254C44.4075 24.4567 44.6642 24.3734 44.9092 24.2686C45.344 24.0878 45.7096 23.8964 46.002 23.7012C46.2979 23.506 46.4768 23.3216 46.5391 23.1445C46.4988 22.8444 46.3746 22.5365 46.1553 22.2363C45.936 21.9364 45.6584 21.687 45.3223 21.499C44.9823 21.3074 44.6346 21.2129 44.2764 21.2129Z" fill="#061C1A"/>
<path d="M95.8945 29.9365L94.5195 31.7344L92.4502 30.124L93.8652 28.3311L95.8945 29.9365Z" fill="#061C1A"/>
<path d="M99.335 29.9365L97.9199 31.7344L95.8506 30.124L97.2217 28.3311L99.335 29.9365Z" fill="#061C1A"/>
<path d="M105.543 29.5137L104.128 31.3105L102.059 29.7012L103.43 27.9043L105.543 29.5137Z" fill="#061C1A"/>
<path d="M5.53125 28.7354C4.72693 28.9379 3.79801 29.2134 2.74512 29.5605L1.99121 29.8193C1.27148 30.0689 0.656762 30.3015 0.149414 30.5186L0.302734 29.0977C0.968158 28.8192 1.83181 28.5003 2.89941 28.1387C3.96673 27.7807 4.89892 27.4917 5.70312 27.2783L5.53125 28.7354Z" fill="#061C1A"/>
<path d="M172.579 19.2061C172.568 19.8604 172.469 20.522 172.282 21.1836C172.114 21.7803 171.968 22.3377 171.555 22.9453C171.375 23.2094 170.948 23.8392 170.195 24.2441C168.861 24.9602 167.189 24.6194 166.089 23.9033C165.332 23.408 164.897 22.772 164.663 22.3525C164.473 22.7718 164.224 23.1186 163.95 23.415C161.925 25.603 158.324 25.4227 155.574 23.9727H155.57C155.431 23.8678 155.226 23.9506 155.219 24.124V24.1572C155.116 25.0251 154.904 25.7993 154.579 26.4863C154.254 27.1769 153.837 27.7082 153.325 28.0879C152.7 28.5689 151.859 28.9676 150.806 29.2822C149.753 29.5967 148.675 29.7558 147.578 29.7559C145.944 29.7559 144.707 29.3939 143.87 28.667C143.033 27.94 142.616 26.9272 142.616 25.5312C142.616 24.138 143.734 19.9922 143.738 19.9756L144.865 20.3018C144.86 20.3232 144.509 21.8573 144.411 22.4463C144.301 23.0935 144.247 23.636 144.247 24.0771C144.247 24.9342 144.572 25.604 145.223 26.085C145.873 26.566 146.843 26.8047 148.134 26.8047C148.836 26.8047 149.574 26.7316 150.346 26.5869C151.117 26.4423 151.815 26.2433 152.433 25.9902C153.05 25.7371 153.501 25.4737 153.782 25.1953C153.844 25.1303 153.888 25.0468 153.906 24.9385C153.925 24.83 153.936 24.7067 153.936 24.5693C153.859 22.2077 153.731 19.8313 153.552 17.4443C153.373 15.0537 153.226 12.681 153.109 10.3193L155.464 9.58105L155.369 18.7314C155.344 19.7296 155.42 20.5657 155.914 20.8623C158.963 22.6886 162.279 22.9197 163.936 20.6738C164.148 20.3882 164.257 20.0338 164.271 19.6035L164.323 17.6289L165.592 16.9775L165.709 19.2812C165.724 20.2212 166.096 20.7533 166.271 20.9668C167.445 22.3809 170.26 22.1965 170.9 21.1514C170.97 21.0393 171.003 20.9382 171.018 20.873L170.312 10.3193H170.319L172.674 9.58105L172.579 19.2061Z" fill="#061C1A"/>
<path d="M164.854 27.2598L163.545 28.9775L161.567 27.4404L162.917 25.7227L164.854 27.2598Z" fill="#061C1A"/>
<path d="M168.145 27.2598L166.791 28.9775L164.813 27.4404L166.126 25.7227L168.145 27.2598Z" fill="#061C1A"/>
<path d="M31.8848 27.4697L30.4482 27.7734L29.7207 15.7041L32.0791 14.9668L31.8848 27.4697Z" fill="#061C1A"/>
<path d="M57.3945 27.4697L55.958 27.7734L55.2119 13.4512L57.5879 12.71L57.3945 27.4697Z" fill="#061C1A"/>
<path d="M77.3975 18.9961C77.5619 19.665 77.7004 20.3376 77.8174 21.0137C77.9307 21.6898 77.9892 22.2109 77.9893 22.5762C77.9893 23.0427 77.8908 23.5493 77.6934 24.0918C77.4959 24.6343 77.2321 25.1229 76.8994 25.5605C76.5668 25.9979 76.2158 26.2982 75.8467 26.4609C75.1593 26.8117 74.1358 27.0905 72.7832 27.293C71.4304 27.4955 70.0514 27.5967 68.6475 27.5967C66.6441 27.5966 65.2178 27.2858 64.377 26.6602C63.5324 26.0381 63.1123 25.1117 63.1123 23.8857C63.1123 23.3831 63.1858 22.7899 63.332 22.1064C63.4783 21.4229 63.7046 20.6629 64.0117 19.8311L65.0645 20.1709C64.9621 20.5904 64.8746 21.0069 64.7979 21.4229C64.7211 21.8421 64.6846 22.1747 64.6846 22.4277C64.6846 23.122 65.0279 23.6651 65.7188 24.0557C66.4061 24.4463 67.5438 24.6416 69.127 24.6416C70.3113 24.6416 71.4335 24.5905 72.4863 24.4893C73.5391 24.388 74.4206 24.251 75.1299 24.0811C75.8389 23.9111 76.3001 23.7377 76.5195 23.5605C76.4793 23.2965 76.3514 22.8257 76.1357 22.1494C75.9164 21.4732 75.6827 20.7968 75.4268 20.1133L77.3975 18.9961Z" fill="#061C1A"/>
<path fill-rule="evenodd" clip-rule="evenodd" d="M6.8623 14.4678C6.96467 15.4262 7.06755 16.5003 7.16992 17.6865C7.21013 18.2795 7.24249 18.7751 7.27539 19.1729C7.30829 19.5707 7.35607 20.07 7.42188 20.6631C7.52059 21.5672 7.54669 21.8132 7.72949 22.1025C7.94516 22.3159 8.1684 22.526 8.40234 22.7285C12.2593 25.466 15.4145 25.2095 18.2588 23.8027C18.6646 23.6002 18.5921 23.0316 18.5957 22.7314L18.6543 21.2168L20.0322 21.0107V22.4102C20.0323 23.1804 20.2191 23.7413 20.5957 24.0957C20.9723 24.4499 21.5681 24.6269 22.3867 24.627C23.4723 24.627 24.2583 24.5835 24.752 24.4932C25.2418 24.4028 25.5316 24.276 25.623 24.1133C25.5828 23.7842 25.465 23.2887 25.2676 22.627C25.0702 21.9616 24.8296 21.2851 24.5518 20.5908L26.5439 19.4736C26.628 19.8135 26.705 20.1533 26.7744 20.4932C26.8183 20.7101 26.8587 20.918 26.8916 21.0947L26.957 21.502C27.0557 22.1204 27.246 23.2997 26.833 24.6016C26.5844 25.3828 26.2075 25.9038 26.0576 26.1172C25.7359 26.5729 25.3993 26.8949 25.041 27.083C24.6718 27.2602 24.2253 27.387 23.71 27.4629C23.1909 27.5388 22.5951 27.5781 21.9189 27.5781C19.3999 27.5781 18.8328 26.1785 18.9717 25.4805C18.5877 27.4118 10.8438 29.0864 6.81836 24.4824C6.25916 23.846 5.99573 23.1662 5.79102 22.7178C5.7399 23.09 5.74358 23.448 5.80566 23.7842C5.47295 23.9613 4.98319 24.1137 4.33984 24.2402C3.69276 24.3668 3.07124 24.4277 2.47168 24.4277C1.68205 24.4277 1.07132 24.2656 0.643555 23.9365C0.215845 23.6075 6.60287e-05 23.1841 0 22.667C0 22.2764 0.0879488 21.8531 0.259766 21.3975C0.435247 20.9418 0.661393 20.4966 0.950195 20.0518C1.23903 19.6105 1.57975 19.2307 1.97461 18.916C2.55221 18.3881 3.32336 17.7948 4.29199 17.1367C4.57351 16.9559 4.82656 16.7893 5.06055 16.6338C4.99842 16.1711 4.9359 15.7228 4.87012 15.2998L6.8623 14.4678ZM5.30176 18.4893C3.93801 19.2777 2.97248 19.8679 2.41309 20.2549C1.82093 20.6671 1.50997 20.9528 1.48438 21.1191C1.52107 21.2709 1.67151 21.3831 1.93457 21.459C2.1978 21.5385 2.57825 21.5742 3.0752 21.5742C3.39036 21.5742 3.7281 21.5579 4.08691 21.5254L4.45312 21.4844C4.87358 21.4374 5.26524 21.3828 5.63086 21.3213C5.6272 21.2635 5.61961 21.2056 5.6123 21.1514C5.56843 20.7355 5.50646 20.2217 5.42969 19.5996C5.38582 19.2199 5.34562 18.8509 5.30176 18.4893Z" fill="#061C1A"/>
<path d="M137.586 27.1982L136.149 27.502L135.403 13.1797L137.776 12.4424L137.586 27.1982Z" fill="#061C1A"/>
<path fill-rule="evenodd" clip-rule="evenodd" d="M133.645 22.0664C133.634 22.721 133.535 23.3831 133.349 24.0449C133.162 24.7065 132.921 25.2922 132.621 25.8057C132.321 26.3192 132.017 26.6703 131.71 26.8584C131.454 27.0246 131.136 27.1403 130.753 27.209C130.373 27.2777 129.988 27.3144 129.604 27.3145C128.723 27.3145 128.028 27.1191 127.517 26.7285C127.067 26.385 126.782 25.8823 126.657 25.2207C126.471 25.6399 126.233 25.9976 125.948 26.2832C125.601 26.6304 125.155 26.8915 124.606 27.0615C124.054 27.2315 123.396 27.3184 122.632 27.3184H122.325C121.901 27.3184 121.532 27.256 121.214 27.1367C120.892 27.0138 120.632 26.815 120.428 26.5293C120.278 26.3232 120.16 26.0559 120.072 25.7305C119.765 26.0522 119.444 26.2985 119.107 26.4648C118.482 26.7397 117.707 26.953 116.782 27.0977C115.857 27.2423 114.841 27.3144 113.729 27.3145H110.033C109.152 27.3145 108.457 27.119 107.945 26.7285C107.496 26.385 107.207 25.8823 107.086 25.2207C106.896 25.64 106.658 25.9976 106.373 26.2832C106.026 26.6304 105.58 26.8915 105.031 27.0615C104.479 27.2315 103.824 27.3184 103.057 27.3184H102.75C101.869 27.3184 101.174 27.1229 100.662 26.7324C100.212 26.3888 99.9234 25.8855 99.8027 25.2236C99.6163 25.6431 99.3789 26.0014 99.0938 26.2871C98.7465 26.6342 98.3002 26.8945 97.752 27.0645C97.1999 27.2344 96.5451 27.3213 95.7773 27.3213H95.4697C94.1793 27.3213 93.1189 27.2491 92.2891 27.1045C91.6898 26.9997 91.2073 26.8408 90.8418 26.6348C90.447 26.8337 89.9787 26.9853 89.4268 27.0938C88.6553 27.2456 87.7265 27.3213 86.6406 27.3213H83.7666C82.937 27.3213 82.2571 27.1733 81.7197 26.877C81.1859 26.5804 80.7757 26.1239 80.4941 25.5127C80.2128 24.898 80.0483 24.0954 79.9971 23.0977C79.8435 19.6979 79.6716 16.417 79.4814 13.2451L81.8545 12.4492C81.8545 14.2429 81.8511 15.6248 81.8438 16.5977C81.8364 17.5706 81.8215 18.9855 81.7959 20.8408V21.5234C81.7959 22.5071 81.9829 23.2269 82.3594 23.6826C82.736 24.1383 83.3574 24.3662 84.2275 24.3662H87.1016C87.4999 24.3662 87.8654 24.3595 88.1943 24.3486C88.1688 24.186 88.1543 24.016 88.1543 23.8389C88.1543 23.0686 88.3297 22.2619 88.6807 21.4229C89.0316 20.5838 89.4814 19.8784 90.0225 19.3105C90.5636 18.7427 91.1413 18.457 91.6787 18.457C92.2161 18.457 92.7132 18.6161 93.1738 18.9307C93.6308 19.2453 94.0002 19.665 94.2744 20.1895C94.5486 20.7138 94.6874 21.2742 94.6875 21.8672C94.6875 22.3482 94.5741 22.8589 94.3438 23.4014C94.2085 23.7267 94.0404 24.0381 93.8467 24.3418C94.4353 24.3599 95.1302 24.3662 95.9346 24.3662H96.2412C97.009 24.3662 97.6204 24.3018 98.0811 24.168C98.5415 24.0342 98.8739 23.8276 99.0859 23.542C99.298 23.2563 99.4082 22.902 99.4229 22.4717L99.4814 20.9561L100.859 20.7461V22.1494C100.859 22.9198 101.046 23.4805 101.423 23.835C101.799 24.1893 102.399 24.3662 103.214 24.3662H103.521C104.289 24.3662 104.9 24.3018 105.36 24.168C105.821 24.0342 106.153 23.8276 106.365 23.542C106.577 23.2563 106.691 22.902 106.702 22.4717L106.761 20.9561L108.139 20.7461V22.1494C108.139 22.9198 108.326 23.4805 108.702 23.835C109.079 24.1893 109.674 24.3662 110.493 24.3662H111.188C111.609 23.8203 112.007 23.3176 112.384 22.8584L111.872 13.1875L114.227 12.4492L114.091 20.9307C114.807 20.1965 115.466 19.6328 116.059 19.2422C116.702 18.8191 117.291 18.6055 117.828 18.6055C118.406 18.6055 118.969 18.7932 119.524 19.1729C120.076 19.5526 120.533 20.0447 120.892 20.6523C121.25 21.2563 121.429 21.8749 121.429 22.5078C121.429 23.0141 121.327 23.5351 121.122 24.0703C121.104 24.1172 121.082 24.1611 121.063 24.208C121.21 24.2442 121.374 24.2725 121.564 24.2979C121.919 24.3412 122.328 24.3633 122.789 24.3633H123.097C123.864 24.3633 124.475 24.2979 124.936 24.1641C125.396 24.0302 125.729 23.8238 125.941 23.5381C126.153 23.2525 126.263 22.8979 126.277 22.4678L126.336 20.9521L127.714 20.7432V22.1455C127.714 22.9158 127.905 23.4766 128.281 23.8311C128.658 24.1854 129.257 24.3633 130.072 24.3633C130.632 24.3633 131.093 24.3163 131.451 24.2295C131.809 24.1391 132.025 23.9943 132.102 23.792L132.095 23.7881L131.385 13.1797L133.739 12.4424L133.645 22.0664ZM117.122 21.1221C116.702 21.1221 116.263 21.2495 115.803 21.5098C115.346 21.7666 114.837 22.1464 114.281 22.6455C113.788 23.0903 113.213 23.6615 112.562 24.3594H114.252C115.287 24.3594 116.23 24.3124 117.078 24.2256C117.714 24.1578 118.258 24.0795 118.708 23.9883L119.118 23.8965C119.637 23.7627 119.942 23.6139 120.029 23.4512C119.993 23.1619 119.824 22.8329 119.531 22.4678C119.239 22.1027 118.877 21.7844 118.442 21.5205C118.011 21.2565 117.568 21.1221 117.122 21.1221ZM91.1924 20.9492C90.911 20.9492 90.6369 21.0501 90.3701 21.2598C90.17 21.4171 89.9918 21.6027 89.8369 21.8154L89.6865 22.0371C89.5001 22.3481 89.3862 22.6415 89.3496 22.9199C89.3752 23.296 89.6167 23.6249 90.0771 23.9033C90.3587 24.0733 90.6844 24.1933 91.0537 24.2656C91.3205 24.1969 91.5764 24.1136 91.8213 24.0088C92.2563 23.828 92.6216 23.6357 92.9141 23.4404C93.2102 23.2451 93.39 23.061 93.4521 22.8838C93.4119 22.5801 93.2839 22.2763 93.0684 21.9727C92.849 21.6689 92.5707 21.4224 92.2344 21.2344C91.8981 21.0427 91.5506 20.9492 91.1924 20.9492Z" fill="#061C1A"/>
<path d="M178.119 14.0703C178.646 14.5765 179.384 15.18 180.342 15.8887C181.018 16.4059 181.523 16.8225 181.855 17.1299C182.184 17.4409 182.452 17.7808 182.649 18.1533C182.847 18.5258 182.945 18.9563 182.945 19.4336C182.945 19.9109 182.868 20.4141 182.715 20.9385C182.6 21.3317 182.449 21.7045 182.266 22.0586L182.079 22.4102C181.805 22.8622 181.501 23.2166 181.168 23.4697C180.631 23.8711 179.947 24.2 179.109 24.4531C178.272 24.7062 177.439 24.833 176.609 24.833C175.779 24.833 175.157 24.6198 174.74 24.1895C174.327 23.7591 174.119 23.1256 174.119 22.2939C174.119 21.9794 174.13 21.6536 174.155 21.3174C174.181 20.9812 174.207 20.5764 174.232 20.0957L175.325 20.0371V20.6631C175.325 21.079 175.446 21.3867 175.688 21.582C175.929 21.7773 176.364 21.875 176.989 21.875C177.68 21.875 178.375 21.7949 179.077 21.6357C179.779 21.4802 180.375 21.2848 180.868 21.0498C181.358 20.8148 181.65 20.598 181.738 20.3955C181.713 20.1677 181.548 19.9212 181.241 19.6572C180.934 19.3932 180.429 19.0141 179.728 18.5225C179.216 18.1789 178.733 17.8457 178.272 17.5166C177.812 17.1911 177.384 16.8367 176.989 16.457L178.119 14.0703Z" fill="#061C1A"/>
<path d="M201.403 16.4902L198.772 20.5205L201.408 24.5596L192.104 24.5322L192.102 16.4668L201.403 16.4902Z" fill="#061C1A"/>
<path d="M233.104 16.4814L233.109 24.5469L223.809 24.5234L226.438 20.4932L223.803 16.4541L233.104 16.4814Z" fill="#061C1A"/>
<path d="M16.5371 17.1445C16.5919 17.3468 16.6358 17.5708 16.665 17.8164L16.7012 18.1777C16.7085 18.2929 16.7119 18.4041 16.7119 18.5107C16.7119 18.9266 16.6465 19.3071 16.5186 19.6543C16.3869 20.0014 16.2147 20.2728 15.999 20.4717C15.7834 20.6668 15.535 20.7646 15.25 20.7646C14.9648 20.7646 14.7119 20.688 14.5254 20.5361C14.3392 20.3843 14.2037 20.1669 14.127 19.8887C14.0026 20.1816 13.8273 20.3993 13.6006 20.5439C13.374 20.6885 13.1144 20.7607 12.8184 20.7607C12.376 20.7607 12.0436 20.6302 11.8242 20.3662C11.6049 20.1022 11.4912 19.7481 11.4912 19.2998C11.4912 19.0322 11.5172 18.7317 11.5684 18.4062C11.6195 18.0809 11.6889 17.788 11.7803 17.5312L12.3574 17.7012C12.288 18.0266 12.2549 18.3235 12.2549 18.5947C12.255 18.8658 12.3248 19.0613 12.46 19.1914C12.5952 19.3215 12.7819 19.3867 13.0195 19.3867C13.279 19.3867 13.4912 19.3398 13.6484 19.2422C13.8055 19.1482 13.8969 19.0213 13.9189 18.8623L13.9697 18.2402L14.6172 18.1562V18.5254C14.6172 18.84 14.687 19.0612 14.8223 19.1914C14.9575 19.3214 15.1623 19.3867 15.4326 19.3867C15.5898 19.3867 15.725 19.3535 15.8311 19.292C15.937 19.2305 16.0101 19.126 16.043 18.9814C16.032 18.8151 15.9882 18.5903 15.915 18.3154C15.8419 18.0407 15.7547 17.7838 15.6523 17.5488L16.5371 17.1445Z" fill="#061C1A"/>
<path d="M68.5312 16.7822C68.7214 17.0101 68.9923 17.26 69.3359 17.5312C69.6795 17.8024 70.0265 18.0378 70.3701 18.2402L69.127 19.8711C68.7688 19.6578 68.4144 19.4153 68.0635 19.1514C67.7088 18.8874 67.4382 18.6409 67.248 18.4131L68.5312 16.7822Z" fill="#061C1A"/>
<path d="M71.5762 16.7783C71.7553 17.0062 72.0302 17.2561 72.3994 17.5273C72.7723 17.8022 73.1339 18.0377 73.4922 18.2402L72.209 19.8672C71.9404 19.7072 71.6737 19.5312 71.4092 19.3418L71.1455 19.1445C70.7946 18.8806 70.5202 18.6341 70.3301 18.4062L71.5762 16.7783Z" fill="#061C1A"/>
<path d="M126.271 17.9111L124.844 19.7773L122.694 18.1064L124.164 16.2402L126.271 17.9111Z" fill="#061C1A"/>
<path d="M129.847 17.9111L128.376 19.7773L126.227 18.1064L127.652 16.2402L129.847 17.9111Z" fill="#061C1A"/>
<path d="M26.2871 16.4932L24.9453 18.1963L22.9824 16.6699L24.2842 14.9668L26.2871 16.4932Z" fill="#061C1A"/>
<path fill-rule="evenodd" clip-rule="evenodd" d="M148.877 13.2637C149.122 13.2638 149.344 13.3463 149.538 13.5088L149.68 13.6504C149.81 13.7951 149.917 13.973 149.999 14.1816C150.109 14.4637 150.167 14.7718 150.167 15.1045C150.167 15.4371 150.094 15.7842 149.951 16.0879C149.805 16.3915 149.593 16.6301 149.315 16.8037C148.829 17.1147 147.944 17.4042 146.657 17.6719L146.756 16.7422C147.512 16.5795 148.101 16.4319 148.521 16.3018C148.942 16.1716 149.238 16.0553 149.406 15.9541C149.574 15.853 149.673 15.741 149.695 15.6182C149.695 15.5642 149.691 15.5112 149.688 15.46C149.566 15.5527 149.407 15.6268 149.209 15.6826C149.004 15.7404 148.788 15.7695 148.565 15.7695C148.302 15.7695 148.094 15.6976 147.94 15.5566C147.787 15.4156 147.714 15.2016 147.714 14.9268C147.714 14.652 147.765 14.3699 147.867 14.1133C147.97 13.8565 148.113 13.6506 148.288 13.4951C148.464 13.3396 148.661 13.2637 148.877 13.2637ZM148.734 14.0625C148.61 14.0625 148.5 14.0955 148.405 14.1533C148.31 14.2148 148.24 14.2834 148.192 14.3594C148.149 14.4351 148.123 14.5109 148.123 14.583C148.123 14.6805 148.167 14.7531 148.251 14.8037C148.339 14.8543 148.481 14.8759 148.679 14.876C149.015 14.876 149.313 14.8426 149.57 14.7803C149.531 14.6636 149.483 14.5593 149.425 14.4678C149.253 14.2003 149.019 14.0626 148.734 14.0625Z" fill="#061C1A"/>
<path d="M42.7441 14.2471C42.9343 14.4749 43.2052 14.7249 43.5488 14.9961C43.8922 15.2671 44.2396 15.5017 44.583 15.7041L43.3398 17.3359C42.9817 17.1226 42.6272 16.8801 42.2764 16.6162C41.9254 16.3522 41.6511 16.1058 41.4609 15.8779L42.7441 14.2471Z" fill="#061C1A"/>
<path d="M45.79 14.2432C45.9692 14.471 46.2431 14.721 46.6123 14.9922C46.9852 15.2634 47.3478 15.4986 47.7061 15.7012L46.4229 17.332C46.1541 17.172 45.8867 16.9962 45.6221 16.8066L45.3623 16.6084C45.0114 16.3445 44.737 16.0989 44.5469 15.8711L45.79 14.2432Z" fill="#061C1A"/>
<path d="M91.4043 15.3281L90.0146 17.1475L87.9199 15.5205L89.3535 13.7012L91.4043 15.3281Z" fill="#061C1A"/>
<path d="M94.8887 15.3281L93.459 17.1475L91.3643 15.5205L92.7529 13.7012L94.8887 15.3281Z" fill="#061C1A"/>
<path d="M16.4199 15.1943C15.707 15.3752 14.8802 15.6174 13.9443 15.9248L13.2773 16.1553C12.6386 16.3773 12.0942 16.5858 11.6445 16.7783L11.7803 15.5166C12.3688 15.2707 13.1364 14.9888 14.083 14.667C15.03 14.3487 15.8603 14.0911 16.5732 13.8994L16.4199 15.1943Z" fill="#061C1A"/>
<path d="M207.523 9.74414L202.814 10.7344L201.822 15.4551L195.263 8.8584L200.964 3.15137L207.523 9.74414Z" fill="#061C1A"/>
<path d="M229.964 8.8623L223.367 15.4219L222.377 10.7168L217.66 9.72461L224.253 3.16211L229.964 8.8623Z" fill="#061C1A"/>
<path d="M34.3389 12.6338C33.8892 12.9014 33.3513 13.1038 32.7188 13.2412C32.0864 13.3822 31.4907 13.4511 30.9277 13.4512C30.5356 13.4512 30.1656 13.4232 29.8203 13.3662L29.4834 13.2959C29.0411 13.1947 28.6569 13.0611 28.3242 12.8984L27.71 14.4492L26.8105 13.7295L27.6729 11.9863C27.841 11.6355 28.0022 11.3824 28.1631 11.2305C28.3238 11.0787 28.514 11.003 28.7295 11.0029C28.8172 11.0029 28.9167 11.0173 29.0264 11.0498C29.1323 11.0823 29.2385 11.1114 29.3408 11.1367C29.6588 11.2271 29.9698 11.3028 30.2695 11.3643C30.5693 11.4257 30.9678 11.459 31.4648 11.459C31.9401 11.459 32.4482 11.4191 32.9893 11.3359C33.5304 11.2564 34.0131 11.1255 34.4336 10.9482L34.3389 12.6338Z" fill="#061C1A"/>
<path d="M4.65039 11.4229L2.93555 13.668L0.34668 11.6572L2.11621 9.41113L4.65039 11.4229Z" fill="#061C1A"/>
<path d="M8.94922 11.4229L7.18359 13.668L4.59473 11.6572L6.31348 9.41113L8.94922 11.4229Z" fill="#061C1A"/>
<path d="M130.372 10.2686C129.568 10.4711 128.639 10.7456 127.586 11.0928L126.832 11.3447C126.112 11.5945 125.498 11.8281 124.99 12.0479L125.144 10.627C125.809 10.3485 126.673 10.0299 127.74 9.67188C128.808 9.31392 129.74 9.02488 130.544 8.81152L130.372 10.2686Z" fill="#061C1A"/>
<path d="M216.621 9.30176L212.595 6.6748L208.556 9.30762L208.579 0.00585938L216.645 0L216.621 9.30176Z" fill="#061C1A"/>
<path d="M181.636 7.41895C180.831 7.62148 179.903 7.89598 178.85 8.24316L178.095 8.49512C177.375 8.74478 176.761 8.97857 176.254 9.19824L176.407 7.77637C177.073 7.49792 177.936 7.18025 179.003 6.82227C180.071 6.46421 181.003 6.17432 181.808 5.96094L181.636 7.41895Z" fill="#061C1A"/>
</svg>
