<svg width="237" height="132" viewBox="0 0 237 132" fill="none" xmlns="http://www.w3.org/2000/svg">
<path d="M9.72919 111.397C11.2512 111.397 12.4003 111.763 13.1763 112.494C13.96 113.217 14.3518 114.283 14.3518 115.692C14.3518 117.109 13.9637 118.175 13.1876 118.891C12.4116 119.607 11.2587 119.964 9.72919 119.964H6.75672V111.397H9.72919ZM12.5208 115.658C12.5208 114.717 12.291 114.027 11.8314 113.59C11.3718 113.146 10.671 112.923 9.72919 112.923H8.55376V118.439H9.72919C10.6861 118.439 11.3906 118.22 11.8427 117.783C12.2948 117.339 12.5208 116.63 12.5208 115.658ZM15.6606 110.844H17.4011V112.55H15.6606V110.844ZM15.6606 113.601H17.4011V119.964H15.6606V113.601ZM22.8681 113.466V115.025H22.6082C22.0129 115.025 21.4214 115.244 20.8337 115.681V119.964H19.0932V113.601H20.8337V114.212C21.4139 113.714 22.0054 113.466 22.6082 113.466H22.8681ZM25.5179 117.263C25.6535 118.22 26.2488 118.699 27.3037 118.699C27.59 118.699 27.8688 118.661 28.14 118.586C28.4188 118.51 28.7315 118.39 29.0781 118.224L29.5415 119.58C29.1572 119.791 28.7729 119.938 28.3887 120.021C28.0119 120.111 27.5749 120.157 27.0776 120.157C26.3543 120.157 25.7364 120.017 25.2241 119.738C24.7117 119.452 24.3237 119.057 24.0599 118.552C23.7962 118.039 23.6644 117.448 23.6644 116.777C23.6644 116.069 23.8 115.462 24.0712 114.958C24.3425 114.453 24.7117 114.072 25.1789 113.816C25.646 113.552 26.1659 113.421 26.7386 113.421C27.6503 113.421 28.3623 113.688 28.8747 114.223C29.3946 114.758 29.6545 115.542 29.6545 116.574V117.263H25.5179ZM26.7386 114.879C26.4221 114.879 26.1621 114.961 25.9587 115.127C25.7628 115.293 25.6272 115.564 25.5518 115.941H27.8349C27.7972 115.572 27.6879 115.304 27.5071 115.138C27.3263 114.965 27.0701 114.879 26.7386 114.879ZM33.6839 120.157C32.6516 120.149 31.8605 119.851 31.3104 119.264C30.7604 118.668 30.4854 117.84 30.4854 116.777C30.4854 115.722 30.7604 114.901 31.3104 114.313C31.8605 113.726 32.6516 113.428 33.6839 113.421C34.0531 113.421 34.3696 113.447 34.6333 113.5C34.9045 113.545 35.1871 113.624 35.4809 113.737V115.331C35.2021 115.203 34.9384 115.112 34.6898 115.059C34.4411 115.007 34.1699 114.98 33.876 114.98C33.326 114.988 32.9267 115.146 32.678 115.455C32.4294 115.756 32.305 116.193 32.305 116.766C32.305 117.987 32.8136 118.601 33.8308 118.608C34.3507 118.608 34.8895 118.439 35.447 118.1L35.9443 119.558C35.2587 119.957 34.5052 120.157 33.6839 120.157ZM39.1643 115.342V117.851C39.1643 118.115 39.2057 118.299 39.2886 118.405C39.379 118.51 39.5373 118.563 39.7633 118.563C40.0044 118.563 40.2342 118.533 40.4527 118.473V119.964C40.0157 120.062 39.6352 120.111 39.3112 120.111C38.6632 120.111 38.1848 119.972 37.8758 119.693C37.5745 119.414 37.4238 119 37.4238 118.45V115.342H36.5648V113.794H37.4238V111.646H39.1643V113.794H40.611V115.342H39.1643ZM44.7798 120.157C44.064 120.157 43.4537 120.01 42.9488 119.716C42.444 119.422 42.0635 119.023 41.8073 118.518C41.5587 118.005 41.4343 117.429 41.4343 116.789C41.4343 116.156 41.5587 115.587 41.8073 115.082C42.0635 114.57 42.444 114.166 42.9488 113.873C43.4537 113.571 44.064 113.421 44.7798 113.421C45.4956 113.421 46.1021 113.571 46.5994 113.873C47.0967 114.166 47.4697 114.57 47.7183 115.082C47.9745 115.587 48.1026 116.156 48.1026 116.789C48.1026 117.429 47.9745 118.005 47.7183 118.518C47.4697 119.023 47.0967 119.422 46.5994 119.716C46.1021 120.01 45.4956 120.157 44.7798 120.157ZM44.7798 118.665C45.2695 118.665 45.6425 118.503 45.8987 118.179C46.1549 117.847 46.283 117.384 46.283 116.789C46.283 116.201 46.1549 115.745 45.8987 115.421C45.6425 115.089 45.2695 114.924 44.7798 114.924C44.2825 114.924 43.902 115.089 43.6383 115.421C43.3821 115.745 43.254 116.201 43.254 116.789C43.254 117.376 43.3821 117.836 43.6383 118.167C43.902 118.499 44.2825 118.665 44.7798 118.665ZM53.1764 113.466V115.025H52.9164C52.3212 115.025 51.7297 115.244 51.142 115.681V119.964H49.4015V113.601H51.142V114.212C51.7222 113.714 52.3136 113.466 52.9164 113.466H53.1764ZM59.9063 113.601L57.3068 120.97C57.141 121.445 56.9526 121.814 56.7417 122.078C56.5307 122.342 56.2858 122.526 56.007 122.632C55.7282 122.745 55.3817 122.801 54.9672 122.801C54.6056 122.801 54.2778 122.752 53.984 122.654V121.163C54.21 121.223 54.4398 121.253 54.6734 121.253C54.9672 121.253 55.2008 121.193 55.3741 121.072C55.555 120.952 55.7056 120.718 55.8262 120.371L55.9618 119.976L53.7466 113.601H55.5323L56.8095 117.568L58.211 113.601H59.9063ZM66.4128 120.157C65.697 120.157 65.0867 120.01 64.5818 119.716C64.077 119.422 63.6965 119.023 63.4403 118.518C63.1917 118.005 63.0673 117.429 63.0673 116.789C63.0673 116.156 63.1917 115.587 63.4403 115.082C63.6965 114.57 64.077 114.166 64.5818 113.873C65.0867 113.571 65.697 113.421 66.4128 113.421C67.1286 113.421 67.7351 113.571 68.2324 113.873C68.7297 114.166 69.1027 114.57 69.3513 115.082C69.6075 115.587 69.7356 116.156 69.7356 116.789C69.7356 117.429 69.6075 118.005 69.3513 118.518C69.1027 119.023 68.7297 119.422 68.2324 119.716C67.7351 120.01 67.1286 120.157 66.4128 120.157ZM66.4128 118.665C66.9025 118.665 67.2755 118.503 67.5317 118.179C67.7879 117.847 67.916 117.384 67.916 116.789C67.916 116.201 67.7879 115.745 67.5317 115.421C67.2755 115.089 66.9025 114.924 66.4128 114.924C65.9155 114.924 65.535 115.089 65.2713 115.421C65.0151 115.745 64.887 116.201 64.887 116.789C64.887 117.376 65.0151 117.836 65.2713 118.167C65.535 118.499 65.9155 118.665 66.4128 118.665ZM73.6566 111.804C73.4305 111.804 73.2723 111.857 73.1819 111.963C73.099 112.061 73.0575 112.241 73.0575 112.505V113.601H74.3008V115.161H73.0575V119.964H71.317V115.161H70.5485V113.601H71.317V111.906C71.317 110.806 71.9462 110.256 73.2045 110.256C73.4983 110.256 73.8638 110.301 74.3008 110.392V111.895C74.1049 111.834 73.8901 111.804 73.6566 111.804Z" fill="#66997E"/>
<path d="M95.2504 113.443C95.2504 114.561 95.0602 115.587 94.68 116.52C94.3112 117.442 93.7696 118.208 93.0552 118.819L95.0602 121.083H91.8971L90.9291 119.96C90.2608 120.167 89.5002 120.271 88.6475 120.271C87.2186 120.271 86.0087 119.977 85.0176 119.389C84.0266 118.79 83.2776 117.978 82.7706 116.952C82.2751 115.915 82.0273 114.746 82.0273 113.443C82.0273 112.164 82.2751 111.012 82.7706 109.986C83.2776 108.961 84.0266 108.148 85.0176 107.549C86.0202 106.939 87.2301 106.633 88.6475 106.633C90.0533 106.633 91.2518 106.939 92.2428 107.549C93.2453 108.148 93.9943 108.967 94.4898 110.004C94.9969 111.029 95.2504 112.176 95.2504 113.443ZM84.8448 113.443C84.8448 114.78 85.1732 115.863 85.83 116.693C86.4869 117.523 87.426 117.938 88.6475 117.938C88.7858 117.938 88.9586 117.926 89.166 117.903L87.4203 115.881H90.5143L91.3094 116.814C92.0584 115.996 92.4329 114.855 92.4329 113.392C92.4329 112.55 92.2831 111.796 91.9835 111.127C91.6839 110.459 91.246 109.935 90.6698 109.554C90.1052 109.163 89.4311 108.967 88.6475 108.967C87.8293 108.967 87.1322 109.163 86.556 109.554C85.9914 109.935 85.565 110.465 85.2769 111.145C84.9888 111.824 84.8448 112.591 84.8448 113.443ZM106.394 110.246V119.977H103.732V119.147C102.868 119.839 101.94 120.185 100.949 120.185C99.6817 120.185 98.731 119.862 98.0973 119.217C97.475 118.571 97.1639 117.534 97.1639 116.105V110.246H99.8258V116.105C99.8258 116.681 99.9525 117.114 100.206 117.402C100.471 117.678 100.909 117.817 101.52 117.817C102.246 117.817 102.983 117.505 103.732 116.883V110.246H106.394ZM114.755 110.038V112.424H114.357C113.447 112.424 112.543 112.758 111.644 113.426V119.977H108.982V110.246H111.644V111.179C112.531 110.419 113.436 110.038 114.357 110.038H114.755ZM120.173 110.246C121.383 110.246 122.299 110.419 122.921 110.764C123.544 111.098 123.958 111.548 124.166 112.112C124.373 112.677 124.477 113.397 124.477 114.273V119.977H121.815V119.147C121.4 119.528 120.991 119.799 120.588 119.96C120.196 120.121 119.758 120.202 119.274 120.202C118.214 120.202 117.373 119.914 116.751 119.338C116.128 118.75 115.817 117.943 115.817 116.918C115.817 115.869 116.134 115.062 116.768 114.498C117.413 113.933 118.301 113.651 119.43 113.651C120.34 113.651 121.135 113.824 121.815 114.169C121.804 113.789 121.752 113.49 121.66 113.271C121.567 113.04 121.383 112.867 121.106 112.752C120.841 112.625 120.444 112.562 119.914 112.562H118.116V110.246H120.173ZM119.81 118.11C120.455 118.11 121.124 117.822 121.815 117.246V116.019C121.216 115.731 120.622 115.587 120.035 115.587C119.574 115.587 119.205 115.69 118.929 115.898C118.652 116.105 118.514 116.434 118.514 116.883C118.514 117.701 118.946 118.11 119.81 118.11ZM132.336 110.038C133.604 110.038 134.549 110.367 135.171 111.024C135.805 111.669 136.122 112.706 136.122 114.135V119.977H133.46V114.135C133.46 113.559 133.333 113.132 133.079 112.856C132.826 112.568 132.388 112.424 131.766 112.424C131.028 112.424 130.291 112.729 129.553 113.34V119.977H126.891V110.246H129.553V111.093C130.406 110.39 131.334 110.038 132.336 110.038ZM138.623 106.028H141.285V108.638H138.623V106.028ZM138.623 110.246H141.285V119.977H138.623V110.246ZM148.159 120.271C146.581 120.259 145.371 119.804 144.529 118.906C143.688 117.995 143.268 116.728 143.268 115.103C143.268 113.49 143.688 112.233 144.529 111.335C145.371 110.436 146.581 109.981 148.159 109.969C148.724 109.969 149.208 110.009 149.611 110.09C150.026 110.159 150.458 110.28 150.908 110.453V112.89C150.481 112.694 150.078 112.556 149.698 112.475C149.317 112.395 148.902 112.354 148.453 112.354C147.612 112.366 147.001 112.608 146.621 113.08C146.241 113.541 146.05 114.21 146.05 115.086C146.05 116.952 146.828 117.891 148.384 117.903C149.179 117.903 150.003 117.644 150.856 117.125L151.616 119.355C150.568 119.966 149.415 120.271 148.159 120.271Z" fill="#66997E"/>
<path d="M162.679 113.639C163.423 113.639 163.987 113.745 164.37 113.958C164.753 114.164 165.009 114.44 165.136 114.788C165.264 115.136 165.328 115.579 165.328 116.118V119.629H163.689V119.118C163.434 119.352 163.182 119.519 162.934 119.618C162.693 119.717 162.423 119.767 162.125 119.767C161.473 119.767 160.955 119.59 160.572 119.235C160.189 118.873 159.998 118.377 159.998 117.746C159.998 117.1 160.193 116.604 160.583 116.256C160.98 115.909 161.526 115.735 162.221 115.735C162.782 115.735 163.271 115.841 163.689 116.054C163.682 115.82 163.65 115.636 163.594 115.501C163.537 115.359 163.423 115.253 163.253 115.182C163.09 115.104 162.845 115.065 162.519 115.065H161.413V113.639H162.679ZM162.455 118.48C162.852 118.48 163.264 118.302 163.689 117.948V117.192C163.321 117.015 162.955 116.926 162.594 116.926C162.31 116.926 162.083 116.99 161.913 117.118C161.742 117.246 161.657 117.448 161.657 117.724C161.657 118.228 161.923 118.48 162.455 118.48ZM170.09 113.469C170.622 113.469 171.094 113.589 171.505 113.831C171.917 114.065 172.236 114.419 172.463 114.894C172.697 115.37 172.814 115.951 172.814 116.639C172.814 117.327 172.697 117.909 172.463 118.384C172.236 118.859 171.917 119.217 171.505 119.458C171.094 119.692 170.622 119.809 170.09 119.809C169.53 119.809 168.984 119.607 168.452 119.203V122.118H166.814V113.639H168.452V114.086C168.977 113.674 169.523 113.469 170.09 113.469ZM169.75 118.352C170.197 118.352 170.534 118.207 170.761 117.916C170.995 117.625 171.112 117.199 171.112 116.639C171.112 116.086 170.995 115.664 170.761 115.373C170.534 115.082 170.197 114.937 169.75 114.937C169.324 114.937 168.892 115.097 168.452 115.416V117.863C168.899 118.189 169.331 118.352 169.75 118.352ZM177.321 113.469C177.853 113.469 178.325 113.589 178.736 113.831C179.148 114.065 179.467 114.419 179.694 114.894C179.928 115.37 180.045 115.951 180.045 116.639C180.045 117.327 179.928 117.909 179.694 118.384C179.467 118.859 179.148 119.217 178.736 119.458C178.325 119.692 177.853 119.809 177.321 119.809C176.761 119.809 176.215 119.607 175.683 119.203V122.118H174.045V113.639H175.683V114.086C176.208 113.674 176.754 113.469 177.321 113.469ZM176.981 118.352C177.428 118.352 177.765 118.207 177.991 117.916C178.226 117.625 178.343 117.199 178.343 116.639C178.343 116.086 178.226 115.664 177.991 115.373C177.765 115.082 177.428 114.937 176.981 114.937C176.555 114.937 176.123 115.097 175.683 115.416V117.863C176.13 118.189 176.562 118.352 176.981 118.352ZM183.052 119.767C181.868 119.767 181.275 119.249 181.275 118.214V110.628H182.914V117.639C182.914 117.894 182.953 118.072 183.031 118.171C183.116 118.263 183.265 118.309 183.478 118.309C183.697 118.309 183.9 118.281 184.084 118.224V119.639C183.673 119.724 183.329 119.767 183.052 119.767ZM185.151 111.043H186.789V112.65H185.151V111.043ZM185.151 113.639H186.789V119.629H185.151V113.639ZM191.02 119.809C190.048 119.802 189.304 119.522 188.786 118.969C188.268 118.409 188.009 117.628 188.009 116.628C188.009 115.636 188.268 114.862 188.786 114.309C189.304 113.756 190.048 113.476 191.02 113.469C191.368 113.469 191.665 113.494 191.914 113.543C192.169 113.586 192.435 113.66 192.712 113.767V115.267C192.449 115.146 192.201 115.061 191.967 115.011C191.733 114.962 191.477 114.937 191.201 114.937C190.683 114.944 190.307 115.093 190.073 115.384C189.839 115.667 189.722 116.079 189.722 116.618C189.722 117.767 190.201 118.345 191.158 118.352C191.648 118.352 192.155 118.192 192.68 117.873L193.148 119.246C192.502 119.621 191.793 119.809 191.02 119.809ZM196.402 113.639C197.147 113.639 197.711 113.745 198.094 113.958C198.477 114.164 198.732 114.44 198.86 114.788C198.987 115.136 199.051 115.579 199.051 116.118V119.629H197.413V119.118C197.157 119.352 196.906 119.519 196.657 119.618C196.416 119.717 196.147 119.767 195.849 119.767C195.196 119.767 194.679 119.59 194.296 119.235C193.913 118.873 193.721 118.377 193.721 117.746C193.721 117.1 193.916 116.604 194.306 116.256C194.703 115.909 195.25 115.735 195.945 115.735C196.505 115.735 196.994 115.841 197.413 116.054C197.406 115.82 197.374 115.636 197.317 115.501C197.26 115.359 197.147 115.253 196.977 115.182C196.813 115.104 196.569 115.065 196.242 115.065H195.136V113.639H196.402ZM196.179 118.48C196.576 118.48 196.987 118.302 197.413 117.948V117.192C197.044 117.015 196.679 116.926 196.317 116.926C196.033 116.926 195.806 116.99 195.636 117.118C195.466 117.246 195.381 117.448 195.381 117.724C195.381 118.228 195.647 118.48 196.179 118.48ZM202.526 115.277V117.639C202.526 117.887 202.565 118.061 202.643 118.16C202.729 118.26 202.878 118.309 203.09 118.309C203.317 118.309 203.534 118.281 203.739 118.224V119.629C203.328 119.721 202.97 119.767 202.665 119.767C202.055 119.767 201.604 119.636 201.314 119.373C201.03 119.111 200.888 118.721 200.888 118.203V115.277H200.08V113.82H200.888V111.799H202.526V113.82H203.888V115.277H202.526ZM205.036 111.043H206.674V112.65H205.036V111.043ZM205.036 113.639H206.674V119.629H205.036V113.639ZM211.043 119.809C210.369 119.809 209.795 119.671 209.32 119.394C208.845 119.118 208.486 118.742 208.245 118.267C208.011 117.785 207.894 117.242 207.894 116.639C207.894 116.043 208.011 115.508 208.245 115.033C208.486 114.55 208.845 114.171 209.32 113.894C209.795 113.611 210.369 113.469 211.043 113.469C211.717 113.469 212.288 113.611 212.756 113.894C213.224 114.171 213.575 114.55 213.809 115.033C214.05 115.508 214.171 116.043 214.171 116.639C214.171 117.242 214.05 117.785 213.809 118.267C213.575 118.742 213.224 119.118 212.756 119.394C212.288 119.671 211.717 119.809 211.043 119.809ZM211.043 118.405C211.504 118.405 211.855 118.253 212.096 117.948C212.338 117.636 212.458 117.199 212.458 116.639C212.458 116.086 212.338 115.657 212.096 115.352C211.855 115.04 211.504 114.884 211.043 114.884C210.575 114.884 210.217 115.04 209.969 115.352C209.728 115.657 209.607 116.086 209.607 116.639C209.607 117.192 209.728 117.625 209.969 117.937C210.217 118.249 210.575 118.405 211.043 118.405ZM218.745 113.511C219.525 113.511 220.106 113.714 220.489 114.118C220.88 114.515 221.075 115.153 221.075 116.033V119.629H219.436V116.033C219.436 115.678 219.358 115.416 219.202 115.245C219.046 115.068 218.777 114.979 218.394 114.979C217.94 114.979 217.486 115.167 217.032 115.543V119.629H215.394V113.639H217.032V114.16C217.557 113.728 218.128 113.511 218.745 113.511ZM224.774 119.809C224.284 119.809 223.852 119.77 223.476 119.692C223.107 119.614 222.72 119.48 222.316 119.288V117.82C222.706 118.04 223.1 118.199 223.497 118.299C223.901 118.391 224.327 118.437 224.774 118.437C225.306 118.437 225.572 118.26 225.572 117.905C225.572 117.763 225.529 117.653 225.444 117.575C225.359 117.497 225.224 117.437 225.04 117.394L224.093 117.192C223.518 117.072 223.093 116.87 222.816 116.586C222.54 116.302 222.401 115.909 222.401 115.405C222.401 114.114 223.21 113.469 224.827 113.469C225.494 113.469 226.203 113.596 226.955 113.852V115.267C226.678 115.139 226.355 115.036 225.987 114.958C225.625 114.88 225.263 114.841 224.901 114.841C224.589 114.841 224.369 114.88 224.242 114.958C224.121 115.036 224.061 115.15 224.061 115.299C224.061 115.426 224.1 115.522 224.178 115.586C224.256 115.643 224.38 115.692 224.55 115.735L225.497 115.937C226.1 116.058 226.54 116.26 226.816 116.543C227.093 116.827 227.231 117.253 227.231 117.82C227.231 118.48 227.008 118.976 226.561 119.309C226.121 119.643 225.526 119.809 224.774 119.809Z" fill="#66997E"/>
<path d="M109.026 22.8371C109.389 23.148 109.679 23.5697 109.89 24.1073C110.1 24.6449 110.206 25.2299 110.206 25.8676C110.206 26.5369 110.069 27.1641 109.8 27.7439C109.526 28.3289 109.126 28.7822 108.599 29.109C107.683 29.6993 106.013 30.2527 103.59 30.7639L103.774 28.993C105.207 28.682 106.313 28.4027 107.109 28.155C107.904 27.9073 108.457 27.6859 108.773 27.4909C109.089 27.2959 109.273 27.0851 109.321 26.8479C109.305 25.8992 109.136 25.1666 108.81 24.6554C108.483 24.1442 108.046 23.8859 107.504 23.8859C107.272 23.8859 107.066 23.9439 106.887 24.0598C106.708 24.1758 106.577 24.3075 106.492 24.4551C106.408 24.6027 106.366 24.745 106.366 24.8873C106.366 25.0718 106.45 25.2141 106.613 25.3089C106.777 25.4038 107.045 25.4512 107.419 25.4512C108.104 25.4512 108.699 25.3827 109.216 25.2404L109.358 26.5475C109.126 26.732 108.815 26.8848 108.425 26.9902C108.036 27.1009 107.635 27.1536 107.214 27.1536C106.719 27.1536 106.324 27.0166 106.039 26.7425C105.75 26.4685 105.607 26.0731 105.607 25.5408C105.607 25.0085 105.702 24.4815 105.897 23.9913C106.092 23.5011 106.355 23.1111 106.687 22.816C107.019 22.5208 107.388 22.3733 107.793 22.3733C108.262 22.3733 108.673 22.5314 109.042 22.8423" fill="#081C1A"/>
<path d="M229.278 12.7756C227.292 13.4397 225.659 14.0458 224.385 14.5992L224.674 11.8902C225.928 11.3632 227.556 10.7518 229.568 10.0666C231.58 9.38144 233.339 8.83331 234.856 8.42221L234.53 11.205C233.013 11.5898 231.259 12.1168 229.273 12.7756" fill="#081C1A"/>
<path d="M213.175 16.739L214.502 36.8722C214.471 36.9935 214.407 37.1885 214.281 37.3993C213.07 39.3968 207.76 39.7447 205.553 37.0462C205.221 36.6403 204.52 35.6284 204.489 33.8311L204.268 29.4356L201.876 30.6741L201.781 34.4425C201.755 35.2595 201.544 35.9394 201.149 36.4822C198.031 40.7671 175.86 43.2917 158.282 43.2917C142.422 43.2917 126.793 40.3244 121.041 36.8406C120.109 36.2767 119.962 34.6797 120.014 32.7771L120.193 15.3212L115.753 16.7284C115.969 21.2347 116.248 25.762 116.585 30.3157C116.922 34.8694 117.164 39.3968 117.307 43.9031C117.307 44.1666 117.286 44.4038 117.254 44.6093C117.217 44.8148 117.138 44.9783 117.017 45.0942C116.485 45.6265 115.637 46.1325 114.473 46.6121C113.303 47.0917 111.992 47.4712 110.538 47.7505C109.079 48.0246 107.688 48.1669 106.366 48.1669C103.933 48.1669 102.105 47.7084 100.877 46.7966C99.6501 45.8795 99.0338 44.604 99.0338 42.9649C99.0338 42.1216 99.1339 41.0834 99.3393 39.8553C99.529 38.7222 100.198 35.7654 100.198 35.7654L98.0751 35.1435C98.0751 35.1435 95.9629 43.0756 95.9629 45.7425C95.9629 48.4093 96.753 50.3383 98.328 51.7245C99.903 53.1106 102.236 53.801 105.318 53.801C107.388 53.801 109.416 53.5006 111.402 52.8998C113.388 52.299 114.973 51.54 116.153 50.6229C117.117 49.9009 117.907 48.8837 118.518 47.5713C119.129 46.2642 119.535 44.7832 119.724 43.123C119.724 43.1125 119.724 43.1019 119.724 43.0914C119.724 43.0809 119.724 43.0756 119.724 43.0651C119.74 42.733 120.12 42.5749 120.383 42.7752C120.383 42.7752 120.383 42.7752 120.388 42.7805C125.571 45.5475 143.138 48.9258 157.998 48.9996C177.946 49.2315 197.351 45.8953 201.165 41.7158C201.681 41.1466 202.15 40.4878 202.503 39.6867C202.94 40.4878 203.762 41.7 205.195 42.6434C207.275 44.0085 210.42 44.662 212.933 43.2917C214.355 42.5169 215.161 41.3205 215.498 40.8145C216.277 39.655 216.557 38.5957 216.873 37.452C217.22 36.1871 217.41 34.9274 217.431 33.6783L217.61 15.3212L213.17 16.7284L213.175 16.739Z" fill="#081C1A"/>
<path d="M199.232 46.1271L196.683 49.4053L200.412 52.3357L202.888 49.0627L199.232 46.1271Z" fill="#081C1A"/>
<path d="M206.543 52.3357L209.092 49.0627L205.284 46.1271L202.813 49.4053L206.543 52.3357Z" fill="#081C1A"/>
<path d="M235.356 39.7975C235.873 38.9279 236.278 37.995 236.568 36.9989C236.858 35.9975 237 35.0435 237 34.1265C237 33.2094 236.815 32.3978 236.441 31.6863C236.067 30.9747 235.567 30.3265 234.94 29.7362C234.313 29.1459 233.365 28.3553 232.085 27.3697C230.278 26.0205 228.883 24.8662 227.898 23.9017L225.769 28.4554C226.517 29.1775 227.323 29.8521 228.187 30.4793C229.051 31.1065 229.968 31.7442 230.932 32.3925C232.254 33.3306 233.207 34.0527 233.787 34.5586C234.366 35.0646 234.677 35.5337 234.724 35.9659C234.556 36.3506 234.008 36.767 233.081 37.2097C232.154 37.6577 231.026 38.0266 229.704 38.3323C228.382 38.6327 227.065 38.7856 225.769 38.7856C224.59 38.7856 223.768 38.6011 223.315 38.2269C222.857 37.8527 222.63 37.2677 222.63 36.4718V35.2807L220.57 35.3914C220.523 36.3085 220.476 37.0832 220.428 37.7209C220.381 38.3587 220.354 38.9806 220.354 39.5814C220.354 41.1731 220.744 42.3748 221.529 43.197C222.309 44.0139 223.483 44.425 225.048 44.425C226.612 44.425 228.182 44.1826 229.762 43.703C231.342 43.2233 232.633 42.5962 233.644 41.8214C234.271 41.3418 234.84 40.6671 235.362 39.7975" fill="#081C1A"/>
<path d="M221.303 63.7254C219.68 64.2683 218.348 64.7637 217.305 65.217L217.542 63.0033C218.563 62.5712 219.896 62.0757 221.54 61.5118C223.183 60.9531 224.621 60.5051 225.859 60.1678L225.596 62.4394C224.358 62.7556 222.925 63.1825 221.303 63.7254Z" fill="#081C1A"/>
<path d="M216.029 71.7524L213.765 74.6564L217.077 77.26L219.274 74.356L216.029 71.7524Z" fill="#081C1A"/>
<path d="M222.514 77.26L224.778 74.356L221.402 71.7524L219.206 74.6564L222.514 77.26Z" fill="#081C1A"/>
<path d="M162.412 67.7993L160.205 70.6295L163.434 73.1699L165.572 70.3344L162.412 67.7993Z" fill="#081C1A"/>
<path d="M168.733 73.1699L170.94 70.3344L167.648 67.7993L165.51 70.6295L168.733 73.1699Z" fill="#081C1A"/>
<path d="M169.359 90.589L167.184 93.3876L170.37 95.8911L172.482 93.0925L169.359 90.589Z" fill="#081C1A"/>
<path d="M175.606 95.8911L177.787 93.0925L174.532 90.589L172.42 93.3876L175.606 95.8911Z" fill="#081C1A"/>
<path d="M185.168 95.2323L187.348 92.4337L184.093 89.9249L181.981 92.7236L185.168 95.2323Z" fill="#081C1A"/>
<path d="M144.003 76.0477L140.963 77.787C141.358 78.8516 141.722 79.9057 142.054 80.9598C142.386 82.0139 142.586 82.7465 142.644 83.1576C142.307 83.4317 141.595 83.7057 140.505 83.9692C139.415 84.2328 138.056 84.4489 136.433 84.6017C134.811 84.7598 133.083 84.8389 131.255 84.8389C128.817 84.8389 127.068 84.5332 126.004 83.9218C124.94 83.3105 124.413 82.4672 124.413 81.3814C124.413 80.9862 124.471 80.4644 124.592 79.8161C124.708 79.1678 124.85 78.5196 125.003 77.866L123.38 77.3337C122.906 78.6303 122.559 79.8108 122.332 80.8755C122.106 81.9401 121.995 82.8624 121.995 83.6478C121.995 85.5557 122.643 86.9998 123.944 87.9696C125.24 88.9446 127.436 89.4295 130.523 89.4295C132.688 89.4295 134.811 89.2714 136.897 88.9551C138.983 88.6389 140.552 88.2067 141.616 87.6586C142.185 87.4003 142.728 86.9365 143.239 86.2566C143.75 85.5768 144.155 84.8178 144.461 83.9692C144.766 83.1207 144.919 82.3354 144.919 81.6081C144.919 81.0389 144.83 80.2272 144.656 79.1731C144.477 78.119 144.261 77.0754 144.008 76.0319" fill="#081C1A"/>
<path d="M134.369 76.2851C134.911 76.6962 135.454 77.0704 136.007 77.4077L137.982 74.8673C137.429 74.5511 136.87 74.1822 136.302 73.7605C135.733 73.3389 135.306 72.9489 135.032 72.5958L133.115 75.1361C133.41 75.4893 133.826 75.874 134.369 76.2851Z" fill="#081C1A"/>
<path d="M130.344 72.5958L128.369 75.1361C128.664 75.4893 129.08 75.874 129.623 76.2851C130.165 76.6962 130.708 77.0704 131.261 77.4077L133.178 74.8673C132.646 74.5511 132.114 74.1822 131.587 73.7605C131.055 73.3389 130.644 72.9489 130.349 72.5958" fill="#081C1A"/>
<path d="M228.256 83.5161C228.14 83.8324 227.803 84.059 227.255 84.196C226.707 84.3331 225.996 84.4016 225.132 84.4016C223.873 84.4016 222.951 84.1275 222.372 83.5741C221.792 83.026 221.503 82.1458 221.503 80.9494V78.7674L219.38 79.0942L219.29 81.4554C219.269 82.1248 219.101 82.6781 218.774 83.1209C218.448 83.5636 217.931 83.8904 217.226 84.0959C216.52 84.3015 215.572 84.4069 214.392 84.4069H213.918C213.212 84.4069 212.58 84.37 212.032 84.3014C211.737 84.2646 211.484 84.2171 211.263 84.1592C211.294 84.0854 211.326 84.0168 211.352 83.9431C211.668 83.105 211.826 82.2934 211.826 81.5081C211.826 80.5225 211.552 79.558 210.999 78.6146C210.446 77.6712 209.746 76.9017 208.892 76.3114C208.039 75.7211 207.165 75.426 206.28 75.426C205.453 75.426 204.547 75.7527 203.551 76.4168C202.64 77.0229 201.629 77.9031 200.522 79.0468L200.733 65.8337L197.104 66.9826L197.894 82.051C197.309 82.7678 196.698 83.5478 196.05 84.3963H194.981C193.722 84.3963 192.805 84.1223 192.221 83.5689C191.641 83.0207 191.352 82.1405 191.352 80.9441V78.7622L189.229 79.089L189.139 81.4501C189.118 82.1195 188.95 82.6729 188.623 83.1156C188.297 83.5583 187.78 83.8851 187.074 84.0906C186.369 84.2962 185.42 84.4016 184.241 84.4016H183.766C182.508 84.4016 181.586 84.1275 181.006 83.5741C180.427 83.026 180.137 82.1458 180.137 80.9494V78.7674L178.014 79.0942L177.925 81.4554C177.904 82.1248 177.735 82.6781 177.409 83.1209C177.082 83.5636 176.566 83.8904 175.86 84.0959C175.154 84.3015 174.206 84.4069 173.026 84.4069H172.552C171.314 84.4069 170.245 84.391 169.334 84.37C169.629 83.9009 169.892 83.4108 170.103 82.9048C170.456 82.0615 170.635 81.2604 170.635 80.512C170.635 79.5896 170.424 78.7147 170.003 77.8978C169.581 77.0809 169.012 76.4273 168.306 75.9372C167.601 75.447 166.832 75.1993 166.005 75.1993C165.178 75.1993 164.287 75.642 163.455 76.5275C162.618 77.4129 161.933 78.5092 161.39 79.8163C160.848 81.1233 160.579 82.3777 160.579 83.5794C160.579 83.8535 160.6 84.1223 160.642 84.3752C160.131 84.3963 159.573 84.4016 158.957 84.4016H154.532C153.194 84.4016 152.235 84.0485 151.656 83.337C151.076 82.6307 150.787 81.5081 150.787 79.9744V78.9097C150.829 76.0162 150.85 73.8132 150.861 72.3006C150.871 70.7827 150.876 68.6323 150.876 65.8389L147.221 67.0775C147.516 72.0159 147.779 77.1336 148.016 82.4252C148.095 83.9799 148.348 85.2343 148.785 86.1883C149.217 87.1422 149.849 87.8485 150.671 88.3123C151.498 88.7761 152.551 89.008 153.826 89.008H158.251C159.921 89.008 161.353 88.892 162.544 88.6549C163.392 88.4862 164.119 88.2491 164.719 87.9381C165.283 88.2596 166.026 88.5073 166.953 88.6707C168.233 88.8973 169.866 89.008 171.851 89.008H172.326C173.505 89.008 174.517 88.8763 175.365 88.6075C176.208 88.3439 176.898 87.9381 177.43 87.3952C177.867 86.9472 178.23 86.3938 178.525 85.735C178.715 86.7628 179.157 87.5481 179.847 88.0857C180.632 88.697 181.707 89.0027 183.061 89.0027H183.535C184.715 89.0027 185.726 88.871 186.574 88.6022C187.417 88.3387 188.107 87.9328 188.639 87.39C189.076 86.942 189.445 86.3886 189.735 85.7298C189.924 86.7575 190.361 87.5428 191.057 88.0804C191.842 88.6918 192.916 88.9975 194.27 88.9975H199.964C201.676 88.9975 203.24 88.8868 204.668 88.6602C206.095 88.4335 207.286 88.1067 208.25 87.6693C208.771 87.411 209.266 87.0263 209.74 86.5256C209.877 87.0316 210.056 87.4479 210.288 87.7747C210.604 88.2174 211.005 88.5337 211.5 88.7181C211.99 88.9026 212.564 88.9975 213.212 88.9975H213.686C214.866 88.9975 215.877 88.8657 216.725 88.5969C217.568 88.3334 218.258 87.9276 218.79 87.3847C219.232 86.9367 219.596 86.3833 219.886 85.7245C220.075 86.7522 220.512 87.5375 221.208 88.0751C221.993 88.6865 223.067 88.9922 224.421 88.9922C225.011 88.9922 225.601 88.9395 226.191 88.8288C226.781 88.7181 227.271 88.5389 227.666 88.2807C228.14 87.9855 228.603 87.4374 229.067 86.6415C229.53 85.8457 229.904 84.9287 230.189 83.8956C230.473 82.8626 230.626 81.8349 230.647 80.8124L230.795 65.8178L227.165 66.9668L228.256 83.4951V83.5161ZM162.934 80.786C163.218 80.3064 163.566 79.9006 163.982 79.5738C164.393 79.2471 164.819 79.089 165.251 79.089C165.799 79.089 166.336 79.2365 166.858 79.5317C167.379 79.8268 167.806 80.2116 168.143 80.6806C168.48 81.155 168.675 81.624 168.733 82.0984C168.633 82.3725 168.359 82.6623 167.906 82.968C167.453 83.2737 166.895 83.5689 166.226 83.8535C165.846 84.0169 165.451 84.1434 165.046 84.254C164.477 84.1434 163.977 83.9589 163.545 83.6901C162.839 83.2579 162.465 82.7466 162.423 82.1564C162.481 81.7242 162.654 81.2657 162.939 80.786M208.271 83.6795C207.475 83.8851 206.422 84.059 205.116 84.196C203.809 84.3331 202.355 84.4016 200.765 84.4016H198.162C199.163 83.3106 200.048 82.4199 200.807 81.7294C201.66 80.9547 202.445 80.3644 203.151 79.9586C203.857 79.558 204.536 79.3525 205.184 79.3525C205.874 79.3525 206.548 79.558 207.217 79.9744C207.886 80.3855 208.445 80.8809 208.898 81.4501C209.351 82.0193 209.603 82.5306 209.667 82.9838C209.53 83.2421 209.061 83.4687 208.266 83.6795" fill="#081C1A"/>
<path d="M236.705 88.8287L237 65.8388L233.34 66.9878L234.493 89.303L236.705 88.8287Z" fill="#081C1A"/>
<path d="M4.21872 92.8815C2.59633 93.4244 1.26366 93.9198 0.220703 94.3731L0.45773 92.1594C1.47962 91.7273 2.81229 91.2318 4.45575 90.6679C6.0992 90.1092 7.53723 89.6612 8.77509 89.3239L8.51171 91.5955C7.27385 91.9117 5.8411 92.3386 4.21872 92.8815Z" fill="#081C1A"/>
<path d="M31.6739 73.1227C30.0252 73.6708 28.6662 74.1768 27.6074 74.6406L27.8497 72.3901C28.8927 71.9473 30.2464 71.4466 31.9162 70.8722C33.586 70.3029 35.0556 69.8444 36.3146 69.5071L36.0459 71.8208C34.787 72.1423 33.3279 72.5745 31.6792 73.1279" fill="#081C1A"/>
<path d="M36.4773 76.5009C36.53 76.9436 36.5511 77.3495 36.5511 77.7342C36.5511 78.4774 36.4352 79.1573 36.2034 79.7792C35.9717 80.4011 35.6661 80.886 35.2869 81.2338C34.9076 81.5869 34.4652 81.7609 33.9648 81.7609C33.4644 81.7609 33.0166 81.6238 32.69 81.3551C32.3582 81.0863 32.1264 80.7015 31.9842 80.2008C31.763 80.7226 31.4522 81.1126 31.0518 81.3708C30.6515 81.6291 30.1932 81.7609 29.6718 81.7609C28.8922 81.7609 28.3075 81.5237 27.9177 81.0546C27.5279 80.5856 27.333 79.9478 27.333 79.1467C27.333 78.6671 27.3751 78.1348 27.47 77.555C27.5595 76.9753 27.6859 76.4535 27.844 75.9949L28.8658 76.2954C28.7447 76.8751 28.6867 77.4074 28.6867 77.8871C28.6867 78.3667 28.8079 78.7251 29.0449 78.9517C29.2872 79.1836 29.6138 79.2996 30.0352 79.2996C30.4935 79.2996 30.8675 79.2152 31.1467 79.0466C31.4258 78.8779 31.5891 78.6513 31.626 78.3719L31.7155 77.2599L32.8586 77.1123V77.7711C32.8586 78.3298 32.9797 78.7251 33.2168 78.957C33.4591 79.1889 33.8173 79.3048 34.2966 79.3048C34.5758 79.3048 34.8128 79.2521 35.0025 79.1414C35.1921 79.0308 35.3185 78.8463 35.3764 78.588C35.3554 78.2876 35.2816 77.8923 35.1499 77.4022C35.0183 76.912 34.8655 76.4535 34.6864 76.0371L36.2456 75.3151C36.3457 75.6735 36.4194 76.074 36.4721 76.5168" fill="#081C1A"/>
<path d="M3.24966 61.4855L0.526367 64.9851L4.50858 68.1158L7.15285 64.6162L3.24966 61.4855Z" fill="#081C1A"/>
<path d="M11.056 68.116L13.7793 64.6164L9.71281 61.4857L7.06854 64.9853L11.056 68.116Z" fill="#081C1A"/>
<path d="M49.6833 93.277L46.96 96.7766L50.9422 99.9073L53.5865 96.413L49.6833 93.277Z" fill="#081C1A"/>
<path d="M57.4842 99.9073L60.2074 96.413L56.1462 93.277L53.502 96.7766L57.4842 99.9073Z" fill="#081C1A"/>
<path d="M64.9469 75.1727L67.0166 72.5164L63.9304 70.1394L61.9238 72.7957L64.9469 75.1727Z" fill="#081C1A"/>
<path d="M68.0611 80.338C68.0137 80.0534 67.9031 79.4315 67.7661 78.7569C67.6555 78.2298 67.5396 77.6975 67.4132 77.1652L64.3475 78.9097C64.7795 79.9902 65.1482 81.0495 65.4537 82.0826C65.7592 83.1156 65.9383 83.885 66.0015 84.4016C65.8646 84.6545 65.4168 84.8548 64.6583 84.9918C63.8998 85.1289 62.6883 85.1974 61.0132 85.1974C59.7543 85.1974 58.8325 84.9233 58.2531 84.3699C57.6736 83.8218 57.3839 82.9416 57.3839 81.7452V79.5632L55.2611 79.8847L55.1716 82.2459C55.1663 82.7097 55.2559 83.5635 54.6554 83.9114C50.315 86.436 42.6087 88.7972 33.0587 88.8341C24.694 88.8657 19.3527 87.4005 12.9317 82.2354C12.5735 81.9192 12.2258 81.5924 11.894 81.2604C11.6148 80.8071 11.5726 80.4224 11.4199 79.0204C11.3198 78.0928 11.2461 77.3233 11.1987 76.7014C11.1513 76.0847 11.0933 75.31 11.0406 74.3824C10.8826 72.5324 10.7246 70.8617 10.5666 69.3649L7.50089 70.6614C7.60097 71.3255 7.70105 72.0212 7.79586 72.7432C7.43768 72.9857 7.04262 73.2492 6.61595 73.5233C5.12526 74.551 3.93481 75.4733 3.0446 76.2955C2.43358 76.7857 1.91209 77.376 1.46436 78.0664C1.02189 78.7569 0.668975 79.4526 0.400334 80.1641C0.13696 80.8703 0 81.5344 0 82.1405C0 82.9469 0.331854 83.6057 0.990289 84.117C1.64872 84.6282 2.58634 84.8812 3.80839 84.8812C4.7302 84.8812 5.68888 84.7863 6.68443 84.586C7.67472 84.391 8.42797 84.1538 8.93891 83.8798C8.8441 83.3527 8.83883 82.7993 8.91784 82.2196C9.22862 82.9205 9.67636 83.9483 10.4981 84.9708C16.4556 92.36 26.4006 93.4035 32.532 93.2665C50.2465 92.866 55.5666 86.9578 55.751 86.5256C55.9406 87.5533 56.3831 88.3386 57.0784 88.8762C57.8633 89.4876 58.9378 89.7933 60.2916 89.7933C61.3345 89.7933 62.2511 89.7353 63.0465 89.6141C63.8419 89.4981 64.5266 89.2978 65.0955 89.0238C65.6486 88.7286 66.1701 88.2279 66.66 87.5164C66.8917 87.1791 67.4712 86.3727 67.8557 85.1552C68.493 83.1261 68.1981 81.292 68.0453 80.3275M6.853 80.2959C6.08394 80.3855 5.3781 80.4329 4.7302 80.4329C3.96115 80.4329 3.37645 80.3749 2.97612 80.2537C2.57053 80.1325 2.33875 79.9585 2.28081 79.7214C2.32295 79.4631 2.79703 79.0151 3.71357 78.3774C4.57743 77.7766 6.0576 76.8595 8.16459 75.6315C8.2278 76.1954 8.29628 76.7699 8.36476 77.3602C8.48591 78.3247 8.57546 79.1311 8.64394 79.7794C8.65447 79.8637 8.665 79.9533 8.67027 80.0429C8.10665 80.1377 7.50615 80.2221 6.85825 80.2959" fill="#081C1A"/>
<path d="M73.4284 90.0882L75.6404 89.6191L75.9353 70.1394L72.3066 71.2883L73.4284 90.0882Z" fill="#081C1A"/>
<path d="M71.9381 67.541C72.6176 67.6991 73.3603 67.7782 74.1663 67.7782C75.0301 67.7782 75.9519 67.6675 76.9264 67.4514C77.9009 67.2353 78.7279 66.9191 79.4179 66.508L79.5654 63.8833C78.9175 64.1574 78.1748 64.3629 77.3373 64.4894C76.4997 64.6159 75.7202 64.6791 74.9933 64.6791C74.2242 64.6791 73.6132 64.6317 73.1497 64.5316C72.6861 64.4314 72.212 64.3155 71.7169 64.1784C71.5589 64.1416 71.3956 64.0941 71.2323 64.0467C71.0637 63.9993 70.911 63.9729 70.774 63.9729C70.4422 63.9729 70.1524 64.0889 69.9049 64.326C69.6573 64.5632 69.4097 64.9585 69.1516 65.5066L67.8242 68.2209L69.2096 69.3435L70.1524 66.9244C70.6634 67.1826 71.2586 67.3882 71.9381 67.5463" fill="#081C1A"/>
<path d="M96.3951 72.7063C96.9375 73.1174 97.48 73.4916 98.033 73.8289L100.008 71.2885C99.4549 70.9723 98.8967 70.6034 98.3279 70.1818C97.7591 69.7601 97.3325 69.3701 97.0586 69.017L95.1416 71.5573C95.4365 71.9105 95.8526 72.2952 96.3951 72.7063Z" fill="#081C1A"/>
<path d="M92.3646 69.017L90.3896 71.5573C90.6846 71.9105 91.1006 72.2952 91.6431 72.7063C92.1856 73.1174 92.728 73.4916 93.281 73.8289L95.1981 71.2885C94.6661 70.9723 94.1342 70.6034 93.6075 70.1818C93.0756 69.7601 92.6648 69.3701 92.3699 69.017" fill="#081C1A"/>
<path d="M106.597 84.3069C105.77 84.718 104.411 85.2714 102.652 85.44C101.03 85.5981 99.6864 85.3715 98.8226 85.1554C99.1176 84.6811 99.3809 84.1962 99.5916 83.6902C99.9445 82.8417 100.124 82.0458 100.124 81.2974C100.124 80.3698 99.9129 79.5002 99.4915 78.6833C99.0701 77.8663 98.5013 77.2128 97.7954 76.7226C97.0896 76.2325 96.3205 75.9848 95.4935 75.9848C94.6665 75.9848 93.7763 76.4275 92.9441 77.3129C92.1118 78.1984 91.4218 79.2946 90.8792 80.6017C90.3367 81.9088 90.068 83.1632 90.068 84.3648C90.068 84.6442 90.0891 84.9077 90.1312 85.1607C89.6203 85.1818 89.0619 85.187 88.4456 85.187C87.5186 85.187 86.818 85.0447 86.3386 84.7601C85.8593 84.4755 85.4484 83.9327 85.1166 83.1368C84.7795 82.341 84.416 81.0761 84.0262 79.3421L80.9869 81.1129C81.4978 82.5518 81.9614 83.9959 82.3722 85.4505C82.7831 86.9052 83.0201 87.9277 83.0781 88.518C81.7401 89.6775 79.3592 91.4115 75.9775 92.3496C69.9568 94.0151 64.9 92.0123 63.2934 91.2955C62.5665 92.3444 61.8343 93.3879 61.1074 94.4368C62.3716 95.1166 69.8198 99.001 76.9889 96.2234C78.6271 95.5857 83.3046 93.7727 84.6741 89.6406C84.8006 89.2558 84.8743 88.9291 84.9164 88.7025C85.1219 88.966 85.3958 89.1821 85.7329 89.3613C86.286 89.6459 86.9497 89.7882 87.7398 89.7882C89.4096 89.7882 90.8423 89.6722 92.0328 89.435C92.8809 89.2664 93.6078 89.0239 94.2083 88.7183C94.7719 89.0398 95.5146 89.2875 96.4417 89.4509C96.7103 89.4983 97.2318 89.609 97.985 89.6722C100.619 89.8883 102.873 89.4034 102.873 89.4034C105.122 88.9185 106.471 88.6339 107.414 87.4375C108.004 86.6944 108.209 85.8722 108.536 84.6916C108.82 83.6586 108.973 82.6308 108.994 81.6084C109.041 76.612 109.094 71.6155 109.142 66.6138C107.925 66.9459 106.703 67.2832 105.486 67.6152C105.86 73.1756 106.234 78.736 106.603 84.2911M92.4068 81.5768C92.6912 81.0971 93.0389 80.6913 93.455 80.3645C93.8659 80.0378 94.2925 79.8797 94.7245 79.8797C95.2723 79.8797 95.8096 80.0272 96.331 80.3224C96.8525 80.6175 97.2792 81.0023 97.6163 81.4713C97.9534 81.9457 98.1483 82.4148 98.2063 82.8891C98.1062 83.1632 97.8323 83.4531 97.3793 83.7587C96.9263 84.0644 96.3679 84.3596 95.699 84.6442C95.3197 84.8076 94.9246 84.9393 94.519 85.0447C93.9501 84.9341 93.4497 84.7496 93.0178 84.4808C92.312 84.0486 91.938 83.5374 91.8958 82.9471C91.9538 82.5149 92.1276 82.0564 92.412 81.5768" fill="#081C1A"/>
<path d="M112.718 90.0883L114.93 89.6192L115.225 66.6241L111.57 67.7783L112.718 90.0883Z" fill="#081C1A"/>
<path d="M28.7607 34.3265L29.9827 40.6986L36.3142 42.148L27.2752 50.8337L19.7217 43.0123L28.7607 34.3265Z" fill="#081C1A"/>
<path d="M28.3807 22.0517L24.7409 27.4171L28.1964 32.9248L15.665 32.6718L15.8494 21.7988L28.3807 22.0517Z" fill="#081C1A"/>
<path d="M36.7878 13.1022L30.4247 14.325L28.9709 20.6601L20.29 11.616L28.107 4.0528L36.7878 13.1022Z" fill="#081C1A"/>
<path d="M49.0551 12.7229L43.6928 9.08106L38.1883 12.5385L38.4411 0L49.3132 0.18447L49.0551 12.7229Z" fill="#081C1A"/>
<path d="M57.9999 21.1346L56.7831 14.7679L50.4463 13.3132L59.4906 4.62744L67.0441 12.4489L57.9999 21.1346Z" fill="#081C1A"/>
<path d="M58.3789 33.4096L62.0187 28.0443L58.5633 22.5366L71.0999 22.7896L70.9155 33.6679L58.3789 33.4096Z" fill="#081C1A"/>
<path d="M49.9727 42.3589L56.341 41.1414L57.7896 34.801L66.4704 43.8504L58.6587 51.4083L49.9727 42.3589Z" fill="#081C1A"/>
<path d="M37.704 42.7385L43.0663 46.3804L48.5708 42.9229L48.318 55.4667L37.4512 55.277L37.704 42.7385Z" fill="#081C1A"/>
</svg>
