<svg width="27" height="27" viewBox="0 0 27 27" fill="none" xmlns="http://www.w3.org/2000/svg">
<path d="M7.875 9.5625L11.1848 11.5194C13.1144 12.6602 13.8856 12.6602 15.8152 11.5194L19.125 9.5625" stroke="black" stroke-width="1.5" stroke-linecap="round" stroke-linejoin="round"/>
<path d="M2.26774 15.16C2.34128 18.6088 2.37806 20.3331 3.65058 21.6105C4.9231 22.8879 6.69412 22.9323 10.2362 23.0213C12.4192 23.0762 14.5808 23.0762 16.7638 23.0213C20.3059 22.9323 22.0769 22.8879 23.3494 21.6105C24.622 20.3331 24.6587 18.6088 24.7323 15.16C24.7559 14.0512 24.7559 12.9488 24.7323 11.8399C24.6587 8.39119 24.6219 6.66682 23.3494 5.38946C22.0769 4.1121 20.3059 4.06761 16.7638 3.97861C14.5808 3.92376 12.4192 3.92376 10.2362 3.9786C6.69412 4.06759 4.92309 4.11209 3.65057 5.38945C2.37805 6.66681 2.34128 8.39117 2.26774 11.8399C2.24409 12.9488 2.24409 14.0511 2.26774 15.16Z" stroke="black" stroke-width="1.5" stroke-linejoin="round"/>
</svg>
