<svg width="24" height="24" viewBox="0 0 24 24" fill="none" xmlns="http://www.w3.org/2000/svg">
<path d="M20.5 2L21.25 2.00013L21.2501 1.25H20.5V2ZM20.4975 16V16.75H21.2474L21.2475 16.0001L20.4975 16ZM3.5 5L4.25 5.00021V5H3.5ZM3.49609 19L2.74609 18.9998V19H3.49609ZM3.49609 18.9983L2.74609 18.9981V18.9981L3.49609 18.9983ZM6.5 2V2.75H20.5V2V1.25H6.5V2ZM20.5 2L19.75 1.99987L19.7475 15.9999L20.4975 16L21.2475 16.0001L21.25 2.00013L20.5 2ZM6.5 2V1.25C4.42893 1.25 2.75 2.92893 2.75 5H3.5H4.25C4.25 3.75736 5.25736 2.75 6.5 2.75V2ZM6.49609 16V16.75H20.4975V16V15.25H6.49609V16ZM20.4975 22V21.25H6.49609V22V22.75H20.4975V22ZM6.49609 22V21.25C5.25345 21.25 4.24609 20.2426 4.24609 19H3.49609H2.74609C2.74609 21.0711 4.42502 22.75 6.49609 22.75V22ZM6.49609 16V15.25C4.42574 15.25 2.74725 16.9278 2.74609 18.9979L3.49609 18.9983L4.24609 18.9987C4.24679 17.7567 5.25388 16.75 6.49609 16.75V16ZM3.49609 18.9983L2.74609 18.9981L2.74609 18.9998L3.49609 19L4.24609 19.0002L4.24609 18.9985L3.49609 18.9983ZM3.5 5L2.75 4.99979L2.74609 18.9981L3.49609 18.9983L4.24609 18.9985L4.25 5.00021L3.5 5ZM18.498 16H17.748V22H18.498H19.248V16H18.498Z" fill="#030315"/>
<path d="M12 5L12.5303 4.46967C12.3897 4.32902 12.1989 4.25 12 4.25C11.8011 4.25 11.6103 4.32902 11.4697 4.46967L12 5ZM13.1716 6.17157L12.6412 6.7019L12.8609 6.92157H13.1716V6.17157ZM14.8284 6.17157H15.5784C15.5784 5.75736 15.2426 5.42157 14.8284 5.42157V6.17157ZM14.8284 7.82843H14.0784V8.13909L14.2981 8.35876L14.8284 7.82843ZM16 9L16.5303 9.53033C16.8232 9.23744 16.8232 8.76256 16.5303 8.46967L16 9ZM14.8284 10.1716L14.2981 9.64124L14.0784 9.86091V10.1716H14.8284ZM14.8284 11.8284V12.5784C15.2426 12.5784 15.5784 12.2426 15.5784 11.8284H14.8284ZM13.1716 11.8284V11.0784H12.8609L12.6412 11.2981L13.1716 11.8284ZM12 13L11.4697 13.5303C11.7626 13.8232 12.2374 13.8232 12.5303 13.5303L12 13ZM10.8284 11.8284L11.3588 11.2981L11.1391 11.0784H10.8284V11.8284ZM9.17157 11.8284H8.42157C8.42157 12.2426 8.75736 12.5784 9.17157 12.5784V11.8284ZM9.17157 10.1716H9.92157V9.86091L9.7019 9.64124L9.17157 10.1716ZM8 9L7.46967 8.46967C7.32902 8.61032 7.25 8.80109 7.25 9C7.25 9.19891 7.32902 9.38968 7.46967 9.53033L8 9ZM9.17157 7.82843L9.7019 8.35876L9.92157 8.13909V7.82843H9.17157ZM9.17157 6.17157V5.42157C8.75736 5.42157 8.42157 5.75736 8.42157 6.17157H9.17157ZM10.8284 6.17157V6.92157H11.1391L11.3588 6.7019L10.8284 6.17157ZM12 5L11.4697 5.53033L12.6412 6.7019L13.1716 6.17157L13.7019 5.64124L12.5303 4.46967L12 5ZM13.1716 6.17157V6.92157H14.8284V6.17157V5.42157H13.1716V6.17157ZM14.8284 7.82843L14.2981 8.35876L15.4697 9.53033L16 9L16.5303 8.46967L15.3588 7.2981L14.8284 7.82843ZM14.8284 6.17157H14.0784V7.82843H14.8284H15.5784V6.17157H14.8284ZM14.8284 10.1716H14.0784V11.8284H14.8284H15.5784V10.1716H14.8284ZM16 9L15.4697 8.46967L14.2981 9.64124L14.8284 10.1716L15.3588 10.7019L16.5303 9.53033L16 9ZM13.1716 11.8284L12.6412 11.2981L11.4697 12.4697L12 13L12.5303 13.5303L13.7019 12.3588L13.1716 11.8284ZM14.8284 11.8284V11.0784H13.1716V11.8284V12.5784H14.8284V11.8284ZM10.8284 11.8284V11.0784H9.17157V11.8284V12.5784H10.8284V11.8284ZM12 13L12.5303 12.4697L11.3588 11.2981L10.8284 11.8284L10.2981 12.3588L11.4697 13.5303L12 13ZM9.17157 10.1716L9.7019 9.64124L8.53033 8.46967L8 9L7.46967 9.53033L8.64124 10.7019L9.17157 10.1716ZM9.17157 11.8284H9.92157V10.1716H9.17157H8.42157V11.8284H9.17157ZM9.17157 7.82843H9.92157V6.17157H9.17157H8.42157V7.82843H9.17157ZM8 9L8.53033 9.53033L9.7019 8.35876L9.17157 7.82843L8.64124 7.2981L7.46967 8.46967L8 9ZM10.8284 6.17157L11.3588 6.7019L12.5303 5.53033L12 5L11.4697 4.46967L10.2981 5.64124L10.8284 6.17157ZM9.17157 6.17157V6.92157H10.8284V6.17157V5.42157H9.17157V6.17157Z" fill="#030315"/>
</svg>
