<svg width="24" height="24" viewBox="0 0 24 24" fill="none" xmlns="http://www.w3.org/2000/svg">
<path d="M12.9474 19V22.0004L2 22L2.0003 5.99988H5" stroke="#030315" stroke-width="1.5" stroke-linejoin="round"/>
<path d="M7.49199 19.0006H7.50098" stroke="#030315" stroke-width="1.5" stroke-linecap="square" stroke-linejoin="round"/>
<path d="M8 2L8 1.25C7.58579 1.25 7.25 1.58579 7.25 2H8ZM22 2H22.75C22.75 1.80109 22.671 1.61032 22.5303 1.46967C22.3897 1.32902 22.1989 1.25 22 1.25V2ZM22 13L22 13.75C22.1989 13.75 22.3897 13.671 22.5303 13.5303C22.671 13.3897 22.75 13.1989 22.75 13H22ZM8 13H7.25C7.25 13.4142 7.58579 13.75 8 13.75V13ZM11 16H10.25C10.25 16.2929 10.4205 16.559 10.6866 16.6814C10.9527 16.8038 11.2657 16.7601 11.4881 16.5694L11 16ZM11 13H11.75V12.25H11V13ZM14.5 13L14.5 12.25H14.2226L14.0119 12.4306L14.5 13ZM8 2L8 2.75L22 2.75V2V1.25L8 1.25L8 2ZM22 2H21.25V13H22H22.75V2H22ZM8 2H7.25V13H8H8.75V2H8ZM8 13V13.75H11V13V12.25H8V13ZM11 16H11.75V13H11H10.25V16H11ZM14.5 13L14.5 13.75L22 13.75L22 13L22 12.25L14.5 12.25L14.5 13ZM11 16L11.4881 16.5694L14.9881 13.5694L14.5 13L14.0119 12.4306L10.5119 15.4306L11 16Z" fill="#030315"/>
<path d="M13.8341 8.42918C11.4256 6.7149 14.9992 5.00061 14.9992 5.00061C14.9992 5.00061 18.5747 6.7149 16.1663 8.42918M13.8341 8.42918H16.1663M13.8341 8.42918L13.2506 11.0006M16.1663 8.42918L16.9821 11.0006" stroke="#030315" stroke-width="1.5"/>
</svg>
