<svg width="25" height="25" viewBox="0 0 25 25" fill="none" xmlns="http://www.w3.org/2000/svg">
<path d="M5.78656 15.0237L6.36379 17.7667L9.11352 18.3449L5.26781 22.1688L1.94085 18.8476L5.78656 15.0237Z" fill="#061C1A"/>
<path d="M5.52923 9.71778L3.99586 12.0673L5.53257 14.4218L0.107947 14.406L0.106926 9.70418L5.52923 9.71778Z" fill="#061C1A"/>
<path d="M9.09719 5.78455L6.35191 6.36181L5.77377 9.11383L1.94981 5.26811L5.27327 1.94111L9.09719 5.78455Z" fill="#061C1A"/>
<path d="M14.4011 5.52681L12.0539 3.99567L9.69928 5.53011L9.71288 0.107807L14.4147 0.104507L14.4011 5.52681Z" fill="#061C1A"/>
<path d="M18.3338 9.09484L17.7565 6.35184L15.0068 5.77366L18.8502 1.94746L22.1795 5.27088L18.3338 9.09484Z" fill="#061C1A"/>
<path d="M18.5914 14.4008L20.1248 12.0512L18.588 9.69668L24.0104 9.71256L24.0137 14.4144L18.5914 14.4008Z" fill="#061C1A"/>
<path d="M15.024 18.3316L17.7671 17.7566L18.3475 15.0046L22.1714 18.8503L18.848 22.1773L15.024 18.3316Z" fill="#061C1A"/>
<path d="M9.72004 18.5917L12.0673 20.1228L14.4218 18.5884L14.4082 24.0107L9.70416 24.0141L9.72004 18.5917Z" fill="#061C1A"/>
</svg>
