<svg width="24" height="24" viewBox="0 0 24 24" fill="none" xmlns="http://www.w3.org/2000/svg">
<path d="M12 1.24988C12.2668 1.24988 12.5134 1.39156 12.6478 1.62197L15.989 7.34973L22.1834 8.91197C22.4402 8.97672 22.6437 9.17203 22.719 9.42586C22.7943 9.67969 22.7302 9.95443 22.5504 10.1487L18.318 14.7203L19.9122 21.8359C19.9735 22.1095 19.8771 22.3945 19.6622 22.5746C19.4473 22.7548 19.1499 22.8 18.8912 22.6919L12 19.8127L5.10881 22.6919C4.85009 22.8 4.55269 22.7548 4.33782 22.5746C4.12295 22.3945 4.02652 22.1095 4.08782 21.8359L5.68203 14.7203L1.44966 10.1487C1.26979 9.95443 1.20568 9.67969 1.281 9.42586C1.35631 9.17203 1.55988 8.97672 1.81661 8.91197L8.01099 7.34973L11.3522 1.62197C11.4866 1.39156 11.7333 1.24988 12 1.24988Z" fill="#F3BF3D"/>
</svg>
