<svg width="241" height="373" viewBox="0 0 241 373" fill="none" xmlns="http://www.w3.org/2000/svg">
<path d="M8.91504 383.294L54.4834 354.728L52.3789 458.389L-37.6133 456.843L-35.4775 353.213L8.91504 383.294ZM202.677 362.396L137.977 424.845L66.0947 350.091L118.783 339.981L130.795 287.609L202.677 362.396ZM-99.4355 336.333L-46.9941 348.328L-121.879 420.115L-184.412 355.501L-109.559 283.714L-99.4355 336.333ZM241.001 188.37L239.483 278.242L135.716 276.109L165.837 231.775L137.232 186.268L241.001 188.37ZM-112.685 182.249L-142.806 226.612L-114.201 272.121L-218 270.019L-216.452 180.146L-112.685 182.249ZM207.44 102.888L132.556 174.674L122.463 122.056L69.9912 110.06L144.876 38.2734L207.44 102.888ZM-43.0908 108.298L-95.7793 118.377L-107.791 170.779L-179.673 95.9932L-114.973 33.5127L-43.0908 108.298ZM60.6104 1.51465L58.5059 105.176L14.082 75.0635L-31.4863 103.63L-29.3809 0L60.6104 1.51465Z" fill="white" fill-opacity="0.51"/>
</svg>
