<svg width="24" height="24" viewBox="0 0 24 24" fill="none" xmlns="http://www.w3.org/2000/svg">
<g clip-path="url(#clip0_85_3135)">
<path d="M6.16194 10.44C5.54594 10.44 5.07994 10.296 4.76394 10.008C4.45194 9.724 4.29594 9.32 4.29594 8.796C4.29594 8.616 4.31994 8.414 4.36794 8.19C4.41994 7.962 4.48994 7.742 4.57794 7.53L5.15394 7.698C5.07394 7.87 5.00994 8.044 4.96194 8.22C4.91794 8.396 4.89594 8.548 4.89594 8.676C4.89594 8.928 4.98594 9.122 5.16594 9.258C5.34594 9.398 5.59794 9.468 5.92194 9.468H6.40194C6.74194 9.468 6.99194 9.39 7.15194 9.234C7.31194 9.078 7.39194 8.834 7.39194 8.502C7.39194 8.442 7.38394 8.346 7.36794 8.214C7.35194 8.078 7.32394 7.918 7.28394 7.734L7.21794 7.422L7.86594 7.296L7.92594 7.608C7.94194 7.688 7.95594 7.77 7.96794 7.854C7.98394 7.934 7.99594 8.016 8.00394 8.1H8.02194L8.32194 7.578C8.46194 7.334 8.60394 7.126 8.74794 6.954C8.89594 6.782 9.04994 6.642 9.20994 6.534C9.36994 6.426 9.53794 6.348 9.71394 6.3C9.89394 6.248 10.0859 6.222 10.2899 6.222C10.7619 6.222 11.1159 6.352 11.3519 6.612C11.5879 6.868 11.7059 7.226 11.7059 7.686C11.7059 8.138 11.5779 8.47 11.3219 8.682C11.0659 8.894 10.6619 9 10.1099 9H7.99194C7.92394 9.492 7.73994 9.854 7.43994 10.086C7.14394 10.322 6.71794 10.44 6.16194 10.44ZM10.1099 8.1C10.3019 8.1 10.4599 8.094 10.5839 8.082C10.7119 8.066 10.8139 8.042 10.8899 8.01C10.9699 7.974 11.0259 7.926 11.0579 7.866C11.0899 7.806 11.1059 7.728 11.1059 7.632C11.1059 7.46 11.0499 7.332 10.9379 7.248C10.8259 7.164 10.6399 7.122 10.3799 7.122H10.1999C10.0199 7.122 9.86194 7.13 9.72594 7.146C9.58994 7.158 9.46994 7.184 9.36594 7.224C9.26194 7.264 9.16794 7.32 9.08394 7.392C8.99994 7.464 8.91994 7.558 8.84394 7.674L8.58594 8.064L8.60394 8.1H10.1099ZM10.0499 5.742C9.94594 5.742 9.85994 5.71 9.79194 5.646C9.72794 5.582 9.69594 5.48 9.69594 5.34C9.69594 5.2 9.72794 5.098 9.79194 5.034C9.85994 4.97 9.94594 4.938 10.0499 4.938H10.1699C10.2739 4.938 10.3579 4.97 10.4219 5.034C10.4899 5.098 10.5239 5.2 10.5239 5.34C10.5239 5.48 10.4899 5.582 10.4219 5.646C10.3579 5.71 10.2739 5.742 10.1699 5.742H10.0499Z" fill="black"/>
<path d="M13.5 19.5L14.3333 17M18.5 19.5L17.6667 17M14.3333 17L15.5 13.5H16.5L17.6667 17M14.3333 17H17.6667" stroke="#030315" stroke-width="1.5"/>
<path d="M14 10L14 2L2 2L2 14L10 14" stroke="#030315" stroke-width="1.5" stroke-linejoin="round"/>
<path d="M22 22L22 10L14 10L10 14L10 22L22 22Z" stroke="#030315" stroke-width="1.5" stroke-linejoin="round"/>
<path d="M20 7.5L19.9999 4L16.5 4" stroke="#030315" stroke-width="1.5" stroke-linejoin="round"/>
<path d="M3.9999 16.5L4 20H7.4999" stroke="#030315" stroke-width="1.5" stroke-linejoin="round"/>
</g>
<defs>
<clipPath id="clip0_85_3135">
<rect width="24" height="24" fill="white"/>
</clipPath>
</defs>
</svg>
