<svg xmlns="http://www.w3.org/2000/svg" width="1000" height="1000"><style>#light-icon{display:inline}#dark-icon{display:none}@media (prefers-color-scheme:dark){#light-icon{display:none}#dark-icon{display:inline}}.cls-1{fill:#a0533b}</style><svg xmlns="http://www.w3.org/2000/svg" xmlns:svgjs="http://svgjs.dev/svgjs" xmlns:xlink="http://www.w3.org/1999/xlink" id="light-icon" width="1000" height="1000"><g clip-path="url(#SvgjsClipPath1134)"><path fill="#fff" d="M0 0h1000v1000H0z"/><svg xmlns="http://www.w3.org/2000/svg" xmlns:svgjs="http://svgjs.dev/svgjs" xmlns:xlink="http://www.w3.org/1999/xlink" width="244.38" height="244.38" transform="translate(150 150) scale(2.86439)"><svg xmlns="http://www.w3.org/2000/svg" id="Layer_1" data-name="Layer 1" viewBox="477.81 477.81 244.38 244.38"><defs><clipPath id="SvgjsClipPath1134"><rect width="1000" height="1000" rx="350" ry="350"/></clipPath></defs><path id="_Radial_Repeat_" d="m535.55 629.06 5.38 28.06 27.92 6.4-39.86 38.27-33.31-34.45 39.87-38.28z" class="cls-1" data-name="&amp;lt;Radial Repeat&amp;gt;"/><path id="_Radial_Repeat_-2" d="m533.88 574.98-16.04 23.64 15.22 24.27-55.25-1.12.81-47.92 55.26 1.13z" class="cls-1" data-name="&amp;lt;Radial Repeat&amp;gt;"/><path id="_Radial_Repeat_-3" d="m570.94 535.55-28.06 5.38-6.4 27.92-38.27-39.86 34.45-33.31 38.28 39.87z" class="cls-1" data-name="&amp;lt;Radial Repeat&amp;gt;"/><path id="_Radial_Repeat_-4" d="m625.02 533.88-23.64-16.04-24.27 15.22 1.12-55.25 47.92.81-1.13 55.26z" class="cls-1" data-name="&amp;lt;Radial Repeat&amp;gt;"/><path id="_Radial_Repeat_-5" d="m664.45 570.94-5.38-28.06-27.92-6.4 39.86-38.27 33.31 34.45-39.87 38.28z" class="cls-1" data-name="&amp;lt;Radial Repeat&amp;gt;"/><path id="_Radial_Repeat_-6" d="m666.12 625.02 16.04-23.64-15.22-24.27 55.25 1.12-.81 47.92-55.26-1.13z" class="cls-1" data-name="&amp;lt;Radial Repeat&amp;gt;"/><path id="_Radial_Repeat_-7" d="m629.06 664.45 28.06-5.38 6.4-27.92 38.27 39.86-34.45 33.31-38.28-39.87z" class="cls-1" data-name="&amp;lt;Radial Repeat&amp;gt;"/><path id="_Radial_Repeat_-8" d="m574.98 666.12 23.64 16.04 24.27-15.22-1.12 55.25-47.92-.81 1.13-55.26z" class="cls-1" data-name="&amp;lt;Radial Repeat&amp;gt;"/></svg></svg></g></svg><svg xmlns="http://www.w3.org/2000/svg" xmlns:svgjs="http://svgjs.dev/svgjs" xmlns:xlink="http://www.w3.org/1999/xlink" id="dark-icon" width="1000" height="1000"><g clip-path="url(#SvgjsClipPath1135)"><path d="M0 0h1000v1000H0z"/><svg xmlns="http://www.w3.org/2000/svg" xmlns:svgjs="http://svgjs.dev/svgjs" xmlns:xlink="http://www.w3.org/1999/xlink" width="244.38" height="244.38" transform="translate(150 150) scale(2.86439)"><svg xmlns="http://www.w3.org/2000/svg" data-name="Layer 1" viewBox="477.81 477.81 244.38 244.38"><defs><clipPath id="SvgjsClipPath1135"><rect width="1000" height="1000" rx="350" ry="350"/></clipPath></defs><path d="m535.55 629.06 5.38 28.06 27.92 6.4-39.86 38.27-33.31-34.45 39.87-38.28zM533.88 574.98l-16.04 23.64 15.22 24.27-55.25-1.12.81-47.92 55.26 1.13zM570.94 535.55l-28.06 5.38-6.4 27.92-38.27-39.86 34.45-33.31 38.28 39.87zM625.02 533.88l-23.64-16.04-24.27 15.22 1.12-55.25 47.92.81-1.13 55.26zM664.45 570.94l-5.38-28.06-27.92-6.4 39.86-38.27 33.31 34.45-39.87 38.28zM666.12 625.02l16.04-23.64-15.22-24.27 55.25 1.12-.81 47.92-55.26-1.13zM629.06 664.45l28.06-5.38 6.4-27.92 38.27 39.86-34.45 33.31-38.28-39.87zM574.98 666.12l23.64 16.04 24.27-15.22-1.12 55.25-47.92-.81 1.13-55.26z" class="cls-1" data-name="&amp;lt;Radial Repeat&amp;gt;"/></svg></svg></g></svg></svg>